<?xml version="1.0" encoding="UTF-8"?>
<svg id="_레이어_2" data-name="레이어 2" xmlns="http://www.w3.org/2000/svg" viewBox="0 0 110.84 58.84">
  <defs>
    <style>
      .cls-1 {
        stroke-width: .75px;
      }

      .cls-1, .cls-2 {
        stroke: #000;
        stroke-miterlimit: 10;
      }

      .cls-2 {
        fill: none;
        stroke-width: 2px;
      }
    </style>
  </defs>
  <g id="_레이어_1-2" data-name="레이어 1">
    <g>
      <g>
        <path class="cls-1" d="M21.44,16.77c-.62-.14-1.24-.19-1.9-.19-2,0-4.13.52-6.13.76-.71,0-1.38-.48-1.38-1.05,0-.19.09-.38.29-.57,4.75-.81,7.89-1,10.22-.62.57.19.76.52.76,1.52,0,1.85-1.14,4.66-1.66,7.37.24-.24.57-.62,1.09-.57l1.09.57c1.33.81,2.76,2.09,3.85,2.85.62.57,2.42,2.19,3.52,2.66.52.29.67.52.67,1.66-2.04-.95-3.23-1.66-5.32-3.28-1.14-.81-2.61-1.57-4.89-2.76-1.14,1.62-1.14,4.37-2.19,6.13-.52.76-1.04,1-1.76.67,1.62-4.66,3.37-11.55,3.75-15.16ZM29.38,22c0-.95.38-1.38,1.24-1.38,1.33-.29,3.85-.24,5.08-.86l.33-.14.33-2.52-.05-5.37c0-1.9.19-3.28.62-4.42.33-.29.57-.43.76-.43s.33.14.38.43c.29.71,0,1.95,0,2.33l-.1,8.55-.14,1.04h.05c.48,0,.85.52.85,1.09,0,.29-.29.62-.62.62l-.43.09c-.19,2.19-.33,4.61-.33,5.75,0,.67.38,2.99.48,4.75.05,1.76-.24,2.38-.95,2.38-.14,0-.33-.24-.48-.71-.24-.81-.52-1.95-.67-2.8-.19-2.85-.19-5.75.09-8.89l-.14.05-5.51.52c-.38.05-.67,0-.81-.09Z"/>
        <path class="cls-1" d="M52.09,17.43c-.48-.86-.86-1.85-.95-2.38-1.19,1.71-2.28,3.8-3.33,6.94-.05.38-.38,1.33-1.19,1.33-.24,0-.33-.29-.29-.71.05-.62.76-2.52,1-3.37.43-1.33,1.47-3.75,2.33-5.37,1.38-2.47,2.71-5.04,2.09-6.99-2.8,0-6.75.67-9.22,1.47-1.43.52-.76-1.62.67-1.95,2.66-.57,6.41-.81,8.65-.81.9,0,1.95.52,1.95,2.28,0,2.47-1.05,3.47-1.28,4.89,0,.38.09.9.14,1.14.52,2.38,2.28,6.99,4.42,8.22.24.19.57.57.57,1.19,0,.95-.57,1.09-1.47.14-1.71-1.62-3.23-4.09-4.09-6.03ZM56.85,37.96c-1.95-1.24-3.47-3.09-3.47-4.61,0-2.04,3.33-6.56,4.75-6.56.19-.19.67-.29,1.42-.29,1.76,0,4.18.38,4.66.86.9.76,1.38,2,1.38,3.56,0,3.94-3.18,7.89-6.22,7.89-.9,0-1.76-.29-2.52-.85ZM64.02,30.79c0-.81-.14-1.57-.43-2.28-.71,0-3.42-.71-4.13-.71-1.66,0-4.32,3.85-4.32,6.51,0,1.62,1.9,3.04,3.61,3.04,2.76,0,5.27-3.18,5.27-6.56ZM64.21,20.67v-3.42c-.43-3.18-2.09-7.79-2.09-9.08,0-.43.38-1.04.86-1.04.24,0,.43.24.43.85.29,2.04.81,3.47,1.19,4.32.24.57.71.81,1.24.9.95.19,2.47.43,4.32.67.14,0,.38-.1.47.09.19.52-.19,1.05-1.42,1.05-1.09,0-2.57-.38-3.66-.38,0,1.95.38,4.42.38,6.37,0,.57-.52,2.23-1.09,1.66-.57-.24-.62-1.09-.62-2Z"/>
        <path class="cls-1" d="M71.58,14.58c-.19-.62-1-4.99-1-8.7,0-1.85.38-2.66,1.43-2.9,1.66-.38,3.75-.81,6.03-1.19.81-.62,2.66-1.43,3.71-1.43.95,0,1.28.33,1.09,1.28,0,.29-.43.57-1.04.81-2.33.81-7.65.95-9.03,2.19v8.6c4.8-.71,8.65-1.42,11.4-1.42.33,0,.85-.19,1.28-.19.48,0,.86.76.38,1.19-1.85,1.43-5.27.57-7.56,1.09-1.66,0-3.33,1.33-4.99,1.33-.52,0-1.57-.05-1.71-.67ZM71.15,24.66c0-.43.81-.95,1.52-1,2-.24,4.85-1.14,6.6-1.38-.38-.9-.62-1.71-.76-2.66-.14-.76-.19-1.42-.14-2,0-.33.38-.62.9-.67.14,0,.33.1.38.24.71,1.57.57,3.04,1,4.8l.05.24c2.66-.05,5.7-.71,7.89-.81.85-.05,1.38.05,1.66.29.29.29.43.43.43.62,0,.24-.09.38-.38.43-5.89.67-12.16,1.57-17.58,2.57-.67.09-1.19-.14-1.57-.67ZM81.84,40.86c.1-2.09.52-4.51.52-6.75,0-1.04.47-2.42,1.09-3.14.52,0,.71.19.71.52,0,.38-.14.81-.14,1.09,0,2.9-.57,5.65-.57,7.89,2.71-.76,8.5-.57,12.02-.52l-1.09-10.12c-4.28.76-9.69,0-12.83,1.33-.19.14-.52.24-.81.33-.57,0-.62-.57,0-1.09,1.81-1.52,5.42-1.33,7.6-1.71,1.05,0,4.66-.48,6.18-.48,1.14,0,1.57.38,1.62,1.66l.48,11.07c-.43,1.14-8.27,0-9.93.71-.81.24-2.52.52-3.66.57-.86.09-1.28-.43-1.19-1.38ZM93.01,20.19c-.19-5.32-.57-12.21-1.38-17.49-.1-.76.09-1.19.52-1.19.52,0,1.04.48,1.33,1.19.1,2.14.43,5.18.76,6.7.19,2.14.14,9.12-.1,12.12-.71.14-1.09-.33-1.14-1.33Z"/>
      </g>
      <path class="cls-2" d="M0,55.84c27.71,0,27.71,2,55.42,2s27.71-2,55.42-2"/>
    </g>
  </g>
</svg>