<?xml version="1.0" encoding="UTF-8"?>
<svg id="_레이어_2" data-name="레이어 2" xmlns="http://www.w3.org/2000/svg" viewBox="0 0 714.57 194.73">
  <defs>
    <style>
      .cls-1 {
        stroke: #000;
        stroke-miterlimit: 10;
        stroke-width: .75px;
      }

      .cls-2 {
        fill: #fff;
      }
    </style>
  </defs>
  <g id="_레이어_1-2" data-name="레이어 1">
    <g>
      <g>
        <path class="cls-2" d="M631.57,193.23c-22.76,0-34.33-1.52-45.52-2.99-11.29-1.48-22.95-3.01-45.91-3.01s-34.62,1.53-45.91,3.01c-11.19,1.47-22.76,2.99-45.52,2.99s-34.33-1.52-45.52-2.99c-11.29-1.48-22.95-3.01-45.91-3.01s-34.62,1.53-45.91,3.01c-11.19,1.47-22.76,2.99-45.52,2.99s-34.33-1.52-45.52-2.99c-11.29-1.48-22.96-3.01-45.91-3.01s-34.63,1.53-45.91,3.01c-11.19,1.47-22.76,2.99-45.52,2.99-3.75,0-7.28-2.13-11.01-4.39-2.74-1.66-5.58-3.37-8.54-4.17-2.45-.66-5.05-.74-7.26-.74-.84,0-1.69.01-2.54.03-.83.01-1.66.03-2.48.03-3.14,0-6.39-.2-8.92-1.67-3.15-1.82-5.11-5.39-7.2-9.17-1.57-2.86-3.2-5.81-5.43-8.04-2.23-2.23-5.18-3.86-8.04-5.43-3.78-2.08-7.35-4.05-9.17-7.2-1.78-3.08-1.71-7.12-1.64-11.4.06-3.29.12-6.7-.71-9.8-.79-2.97-2.51-5.8-4.17-8.54-1.95-3.23-3.81-6.3-4.28-9.5h5.89v-1.5c0-1.08-.7-1.38-1.5-1.47v-.03H1.61c.46-3.2,2.32-6.28,4.28-9.51,1.66-2.74,3.37-5.58,4.17-8.54.83-3.11.77-6.51.71-9.8-.07-4.28-.14-8.32,1.64-11.41,1.82-3.15,5.39-5.11,9.17-7.2,2.86-1.58,5.81-3.2,8.04-5.43,2.23-2.23,3.86-5.18,5.43-8.04,2.08-3.78,4.05-7.35,7.2-9.17,2.53-1.46,5.79-1.67,8.92-1.67.82,0,1.65.01,2.48.03.85.01,1.7.03,2.54.03,2.21,0,4.81-.09,7.26-.74,2.97-.79,5.8-2.51,8.54-4.17,3.73-2.26,7.25-4.39,11.01-4.39,22.76,0,34.33,1.52,45.52,2.99,11.28,1.48,22.95,3.01,45.91,3.01s34.62-1.53,45.91-3.01c11.19-1.47,22.76-2.99,45.52-2.99s34.33,1.52,45.52,2.99c11.28,1.48,22.95,3.01,45.91,3.01s34.62-1.53,45.91-3.01c11.19-1.47,22.76-2.99,45.52-2.99s34.33,1.52,45.52,2.99c11.29,1.48,22.96,3.01,45.91,3.01s34.62-1.53,45.91-3.01c11.19-1.47,22.76-2.99,45.52-2.99,3.75,0,7.28,2.13,11.01,4.39,2.74,1.66,5.58,3.37,8.54,4.17,2.45.66,5.05.74,7.26.74.84,0,1.69-.01,2.54-.03.83-.01,1.66-.03,2.48-.03,3.14,0,6.39.2,8.92,1.67,3.15,1.82,5.11,5.39,7.2,9.17,1.58,2.86,3.2,5.81,5.43,8.04s5.18,3.86,8.04,5.43c3.78,2.08,7.35,4.05,9.17,7.2,1.78,3.08,1.71,7.12,1.64,11.4-.06,3.29-.12,6.7.71,9.8.79,2.97,2.51,5.8,4.17,8.54,1.95,3.23,3.81,6.3,4.28,9.5h-4.39v.03c-.8.08-1.5.39-1.5,1.47v1.5h5.89c-.46,3.2-2.32,6.28-4.28,9.51-1.66,2.74-3.37,5.58-4.17,8.54-.83,3.11-.77,6.51-.71,9.8.07,4.28.14,8.32-1.64,11.4-1.82,3.15-5.39,5.11-9.17,7.2-2.86,1.58-5.81,3.2-8.04,5.43s-3.86,5.18-5.43,8.04c-2.08,3.78-4.05,7.35-7.2,9.17-2.53,1.47-5.78,1.67-8.92,1.67-.82,0-1.65-.01-2.48-.03-.85-.02-1.7-.03-2.55-.03-2.21,0-4.8.09-7.26.74-2.97.79-5.8,2.51-8.54,4.17-3.73,2.26-7.25,4.39-11,4.39Z"/>
        <path d="M631.57,31.73c3.33,0,6.68,2.03,10.23,4.17,2.83,1.71,5.76,3.48,8.93,4.33,2.62.7,5.34.79,7.65.79.85,0,1.71-.01,2.57-.03.82-.01,1.64-.03,2.46-.03,2.93,0,5.94.18,8.17,1.47,2.78,1.61,4.65,5,6.63,8.59,1.63,2.95,3.31,6,5.69,8.38,2.38,2.38,5.43,4.06,8.38,5.69,3.59,1.98,6.98,3.85,8.59,6.63,1.57,2.72,1.51,6.56,1.44,10.63-.06,3.4-.12,6.91.76,10.22.85,3.17,2.62,6.1,4.33,8.93,1.5,2.49,2.95,4.88,3.68,7.23h-2.51c-2.36.13-3,2-3,3v3h5.51c-.73,2.35-2.18,4.74-3.68,7.23-1.71,2.83-3.48,5.76-4.33,8.93-.88,3.31-.82,6.82-.77,10.22.07,4.07.14,7.91-1.44,10.63-1.61,2.78-5,4.65-8.59,6.63-2.95,1.63-6,3.31-8.38,5.69-2.38,2.38-4.06,5.43-5.69,8.38-1.98,3.59-3.85,6.98-6.63,8.59-2.23,1.29-5.24,1.47-8.17,1.47-.81,0-1.63-.01-2.46-.03-.86-.01-1.72-.03-2.57-.03-2.31,0-5.03.09-7.64.79-3.17.85-6.1,2.62-8.93,4.33-3.55,2.15-6.9,4.17-10.23,4.17-22.66,0-34.18-1.51-45.32-2.97-11.33-1.49-23.05-3.03-46.1-3.03s-34.77,1.54-46.1,3.03c-11.14,1.46-22.66,2.97-45.32,2.97s-34.18-1.51-45.32-2.97c-11.33-1.49-23.05-3.03-46.1-3.03s-34.77,1.54-46.1,3.03c-11.14,1.46-22.66,2.97-45.32,2.97s-34.18-1.51-45.33-2.97c-11.33-1.49-23.05-3.03-46.11-3.03s-34.77,1.54-46.11,3.03c-11.14,1.46-22.66,2.97-45.33,2.97-3.33,0-6.68-2.03-10.23-4.17-2.83-1.71-5.76-3.48-8.93-4.33-2.62-.7-5.34-.79-7.65-.79-.85,0-1.71.01-2.57.03-.82.01-1.64.03-2.46.03-2.93,0-5.94-.18-8.17-1.47-2.78-1.61-4.65-5-6.63-8.59-1.63-2.95-3.31-6-5.69-8.38-2.38-2.38-5.43-4.06-8.38-5.69-3.59-1.98-6.98-3.85-8.59-6.63-1.57-2.72-1.51-6.56-1.44-10.63.06-3.4.12-6.91-.76-10.22-.85-3.17-2.62-6.1-4.33-8.93-1.5-2.49-2.95-4.88-3.68-7.23h5.51v-3c0-1-.64-2.87-3-2.99h0s-.94,0-.94,0h-1.57c.73-2.35,2.18-4.74,3.68-7.23,1.71-2.83,3.48-5.76,4.33-8.93.88-3.31.82-6.82.77-10.22-.07-4.07-.14-7.91,1.44-10.63,1.61-2.78,5-4.65,8.59-6.63,2.95-1.63,6-3.31,8.38-5.69,2.38-2.38,4.06-5.43,5.69-8.38,1.98-3.59,3.85-6.98,6.63-8.59,2.23-1.29,5.24-1.47,8.17-1.47.81,0,1.63.01,2.46.03.86.01,1.72.03,2.57.03,2.31,0,5.03-.09,7.64-.79,3.17-.85,6.1-2.62,8.93-4.33,3.55-2.15,6.9-4.17,10.23-4.17,22.66,0,34.18,1.51,45.32,2.97,11.33,1.49,23.05,3.03,46.1,3.03s34.77-1.54,46.1-3.03c11.14-1.46,22.66-2.97,45.32-2.97s34.18,1.51,45.32,2.97c11.33,1.49,23.05,3.03,46.1,3.03s34.77-1.54,46.1-3.03c11.14-1.46,22.66-2.97,45.32-2.97s34.18,1.51,45.33,2.97c11.33,1.49,23.05,3.03,46.11,3.03s34.77-1.54,46.11-3.03c11.14-1.46,22.66-2.97,45.33-2.97M631.57,28.73c-45.72,0-45.72,6-91.43,6s-45.72-6-91.43-6-45.71,6-91.43,6-45.71-6-91.43-6-45.71,6-91.43,6-45.71-6-91.43-6c-7.16,0-13.33,6.84-19.94,8.61-2.15.57-4.49.69-6.87.69-1.67,0-3.36-.06-5.03-.06-3.51,0-6.89.26-9.67,1.87-6.07,3.51-8.01,12.52-12.94,17.44-4.93,4.93-13.93,6.87-17.44,12.94-3.46,5.98-.68,14.74-2.5,21.57-1.77,6.61-8.61,12.77-8.61,19.94h6H0s6,0,6,0H0h6H0c0,7.16,6.84,13.33,8.61,19.94,1.83,6.83-.96,15.59,2.5,21.57,3.51,6.07,12.52,8.01,17.44,12.94,4.93,4.93,6.87,13.93,12.94,17.44,2.78,1.61,6.16,1.87,9.67,1.87,1.66,0,3.36-.06,5.03-.06,2.38,0,4.72.12,6.87.69,6.61,1.77,12.77,8.61,19.94,8.61,45.72,0,45.72-6,91.43-6s45.72,6,91.43,6,45.71-6,91.43-6,45.71,6,91.43,6,45.71-6,91.43-6,45.71,6,91.43,6c7.16,0,13.33-6.84,19.94-8.61,2.15-.57,4.49-.69,6.87-.69,1.67,0,3.36.06,5.03.06,3.51,0,6.89-.26,9.67-1.87,6.07-3.51,8.01-12.52,12.94-17.44s13.93-6.87,17.44-12.94c3.46-5.98.68-14.74,2.5-21.57,1.77-6.61,8.61-12.77,8.61-19.94h-6s6,0,6,0h-6,6-6,6c0-7.16-6.84-13.33-8.61-19.94-1.83-6.83.96-15.59-2.5-21.57-3.51-6.07-12.52-8.01-17.44-12.94-4.93-4.93-6.87-13.93-12.94-17.44-2.78-1.61-6.16-1.87-9.67-1.87-1.66,0-3.35.06-5.03.06-2.38,0-4.72-.12-6.87-.69-6.61-1.77-12.77-8.61-19.94-8.61h0Z"/>
      </g>
      <g>
        <path class="cls-1" d="M71.7,131.7c-1.65-7.48-2.52-16.71-2.52-23.15,0-2.87,1.57-4.61,2.52-4.61.61,0,1.22.78,1.22,2.26,0,8.18.17,17.06,1.39,24.63,1.31.44,2.96.7,4.18.7,8.35,0,14.97-5.57,17.4-5.57.52,0,1.13.44,1.13,1.39,0,3.74-2.87,3.39-5.22,4.35-3.74,1.48-6.18,2.44-11.31,2.44-3.65,1.22-7.92,1.31-8.79-2.44ZM105.55,134.05c-.52-1.13-1.04-2.78-1.22-4-.44-5.31-.17-11.49,1.04-20.71l-.09-5.66c0-2.26.35-4,1.31-5.57.7-.44,1.04-.61,1.39-.61.44,0,.61.17.7.61.52.96,0,2.52,0,3.05l-.17,10.44,10.44.96c.09-2.52.09-4.44.26-5.4.44-2.7,1.13-5.83,1.31-7.66.26-2.61.26-3.48.52-4.18,0-.61,2.96-1.65,2.96-.44-.44,1.39-.52,2.44-.52,5.13-.09,1.74-.17,3.39-.52,5.13-.35,2-.78,4.79-.96,7.75.87.35,1.48,1.39,1.48,2.17,0,1.13-.87.96-1.74.96l-.17,6.61.17,4.61c0,1.91-.61,7.74-.87,8.53-.09.26-.35.44-.78.44-.78,0-1.83-.61-2.52-1.31l1.04-12.44c.17-2,.17-4.35.26-6.79-1.22-.35-2.26-.7-3.22-.78-2.18,0-4.53.26-7.66,0-.52,2.52-.52,6.88-.52,10.01,0,.96.7,4.26.78,6.7.09,2.52-.35,3.39-1.74,3.39-.35,0-.7-.26-.96-.96Z"/>
        <path class="cls-1" d="M149.75,133.01c2-2.44,7.83-8.44,8.27-9.92-.61-.43-.87-.87-.78-1.48.26-1.13,2.26-.35,3.39-1.39,1.57-1.48,5.13-6.18,5.13-6.18-7.05,0-13.58.44-19.67,0-.26,0-.87.26-1.39.26-.61,0-1.04-.43-1.39-1.39,0-.61.96-1.13,2.26-1.31,2-.35,8.35-.78,10.01-.78,2.61,0,4.96-.26,7.14-.7,1.91,0,4.53,0,5.66.09,2.26.17,2.87,2.26,1.22,4.26l-6.44,7.83c6.09,2.96,11.05,5.66,13.49,7.66,1.13,1.13,1.65,2.18,1.57,2.96-.09.35-.26.61-.52.87l-16.53-9.4c-2.52,1.31-5.83,7.4-8.01,9.4-1.31,1.04-3.39,1.91-4.52,1.13-.17-.26.17-.87,1.13-1.91ZM166.89,101.59c-3.31-.87-9.05-4.09-10.53-4.52-1.31-.44-3.65-2.44-5.05-3.39-.44-.35-.61-.78-.52-1.22.17-.96,1.74-1.57,2.52-1.31l4.09,2.87c2.87,1.65,7.92,3.39,10.53,4.61,1.22,1.39,1.57,2.61.78,3.05-.26.26-.87.17-1.83-.09ZM185.17,137.36c-.44-1.48-1.04-3.57-1.22-5.05-.52-7.48-.26-11.92,1.04-21.15l-.09-6.35c0-3.39.44-5.83,1.31-8.09.7-.61,1.13-.78,1.39-.78.44,0,.61.26.7.78.44,1.48.09,3.74,0,4.35l-.17,12.27,16.62,1.13c1.13,0,2.87,1.39,2.87,2.44,0,1.22-.87.87-1.83.87-2.26,0-5.57-.87-8.79-1.13-2.18,0-6.44.26-9.4.09-.52,2.44-.52,5.74-.52,8.88,0,1.22.7,5.48.78,8.7.09,3.22-.35,4.44-1.74,4.44-.35,0-.7-.43-.96-1.39Z"/>
        <path class="cls-1" d="M221.89,118.65c0-5.57,5.05-13.58,6.18-14.71.35-.35.87-.61,1.91-.96,1.04-.35,2.09-.87,2.96-1.65,0,0,.09-.09.35-.17,0,0,.09-.26.17-.35,1.22-1.91,3.05-2.96,5.31-2.96.44,0,.87.17,1.39.17,7.31,0,14.71,10.88,14.88,19.23.17,10.44-7.66,19.75-18.1,19.84-8.35.09-15.05-9.49-15.05-18.45ZM236.59,134.05c8.01,0,14.88-7.92,14.88-16.27-.26-6.79-8.01-16.62-11.57-16.62-.96,0-1.91.17-3.05.43.44.26.61.52.61.96,0,.7-.09,1.57-.87,2-1.39.78-5.05,1.04-7.14,3.66-1.74,2.17-4.26,8.88-4.26,11.31,0,6,5.4,14.62,11.4,14.53ZM274.62,134.75l-.44-10.62c-2.61-.44-4.87-.35-8.01,0l-5.13.61c-1.22.09-1.65.09-1.74-.52-.17-1.74,2.7-2.79,6.79-3.22,3.13-.35,6.7-.26,7.92.17l-.44-8.79c-3.92-.35-7.31,1.13-10.01.78-1.31-.17-2.18-.7-2.96-1.48-.61-.52-.35-1.91.87-1.83l11.75-.78c.44-1.04.09-3.22-.35-5.05-.52-2.09-1.13-3.39-1.04-4.18-.09-.7,2.35-1.39,2.87-1.13,1.57.78.87,2.61,1.22,4.26.61,3.39,1.04,7.05,1.13,8.44.35,5.31-.44,8.01.17,12.44.17,1.65.61,3.39.78,5.22.26,1.83.35,5.48,0,6.35-.09.35-.35.52-.7.52-.78.09-1.91-.44-2.7-1.22Z"/>
        <path class="cls-1" d="M300.55,132.49c0-1.13.61-2.26.61-3.39,0-7.4.87-17.67,2-23.15-3.65-.96-13.84,1.31-17.58,1.65-.44,0-.87-.09-1.31-.17-1.13-.61-1.74-1.04-1.74-1.65,0-.87,1.04-1.48,2.87-1.48,4.96-1.31,14.97-2.35,18.27-2,2.35.35,3.48,1.92,2.87,4.18-1.65,6.87-2.52,17.84-2.26,28.02,0,1.04-.35,1.65-1.04,1.65-1.31,0-2.7-2-2.7-3.66ZM326.05,136.66c-.61-1.04-1.48-2.52-1.91-3.65-1.57-5.74-2.18-11.49-2.09-18.27l-1.39-7.4c-.44-2.52-.44-4.53.09-6.09.52-.52.87-.7,1.22-.78.35,0,.7.17.78.52.7.96.52,2.7.61,3.22l1.91,11.66c-.09,2.87.52,9.57.96,11.92.17.87,1.48,4,2,6.35.61,2.44.17,3.31-1.13,3.48-.26,0-.7-.26-1.04-.96Z"/>
        <path class="cls-1" d="M339.45,130.14c-3.31-3.05-4.96-6.44-4.96-10.27,0-8.27,7.22-17.06,16.1-19.75,1.22-.26,1.57-.26,1.83-.09.26.44.17,1.13-.17,1.65,2,1.04,4.18,1.04,6.35,2.09,2.61,1.31,4.35,6.35,4.35,12.88l2.09-.17c1.57.17,3.13.26,5.22.09l5.05-.43c-.7-3.22-1.48-7.83-1.74-10.62-.09-.78-.17-1.57-.09-2.17,1.31-1.65,2.35-.09,3.05,2.17.87,2.7,1.39,6.88,1.91,10.18.96,0,1.74.35,1.74.78,0,1.04-.44,2.09-1.22,2.52l.26.87c0,1.22,3.74,10.18,3.57,11.49-.09.87-1.22,1.57-1.91,1.65-.78.09-1.39-.35-1.65-1.74-1.3-3.74-2.09-7.4-3.13-12.1-1.74-.09-4-.35-6.88-.09-1.39.17-3.48.35-4.35.26-.87.09-1.48,0-2-.17-.78,8.79-6.35,14.88-14.27,14.88-3.31,0-6.35-1.39-9.14-3.92ZM356.42,128.05c2.7-2.61,4.09-6.27,4.09-10.53,0-2.7-.61-5.74-1.91-8.79-1.22-2.7-8.35-5.22-11.75-3.92-2.44.87-8.53,8.18-8.53,10.18-.52,1.39-.78,2.79-.78,4.26,0,6.53,5.31,12.36,11.31,12.36,2.78,0,5.31-1.22,7.57-3.57ZM390.18,133.44c-1.13-3.57-2-6.87-2.96-10.53-1.57-5.74-3.05-15.05-4-22.97,0-1.74,1.48-2.78,2.26-2.87.7-.09.96.96,1.39,2.96.7,5.4,1.57,9.92,2.79,15.84,1.22,6,2.87,11.83,2.96,17.58,0,.7-.26,1.13-.61,1.13-.52.09-1.22-.17-1.83-1.13Z"/>
        <path class="cls-1" d="M398.1,130.05c-.87-.87-1.91-10.53-1.91-18.19,0-3.48.26-5.92.87-7.4,5.13-1.22,9.14-1.22,14.27-2.52,1.04-1.13,4.87-2.44,6.79-2.44,1.74,0,2.35.78,2,2.44,0,2.52-17.58,3.83-20.19,6.35v18.71c8.79-1.3,14.27-2.44,21.75-2.44,1.3,0,3.83-1.22,3.83,1.13-4.96,3.83-9.31,1.3-15.49,2.61-2.96,0-5.92,2.61-9.05,2.61-1.04,0-2-.26-2.87-.87ZM440.74,133.01c-.43-1.22-1.04-2.96-1.22-4.18-.52-4.87-.26-9.31,1.04-18.54l-.09-6.35c0-3.39.43-5.83,1.3-8.09.7-.61,1.13-.78,1.39-.78.44,0,.61.26.7.78.44,1.48.09,3.74,0,4.35l-.44,10.36,16.53-1.57c1.13-.26,3.13.87,3.31,1.91.17,1.22-.78.96-1.65,1.13-2.26.35-5.66.09-8.88.35-2.18.35-6.35,1.31-9.22,1.65-.87,2.96-.87,6.61-.87,9.22,0,1.04.7,4.52.78,7.22.09,2.7-.35,3.74-1.74,3.74-.35,0-.7-.43-.96-1.22Z"/>
        <path class="cls-1" d="M503.22,136.58c-4.7-4.35-7.83-8.61-10.7-13.92-.52-.96-2.35-4.09-2.96-6.27-.09-.52-.26-1.04-.17-1.48-2,5.31-4.87,8.62-5.13,15.05-.09,1.83,1.48,4.79-1.48,4.26-1.74-1.39-2.26-3.13-2.26-4.87,0-2.44.78-4.96,1.74-7.05,4.18-8.61,8.7-19.49,10.79-25.76.17-.61.7-.87,1.22-.87,1.22,0,3.13,1.91,2.35,4.35-1.57,2.7-5.48,7.75-7.05,12.1-.26.78,0,1.91-.09,2.44,1.48-1.13,2.26.17,2.7.96.17.26.35.7.7,1.13,2.96,3.57,4.18,7.4,6.53,10.79,2.61,3.31,8.27,5.83,8.27,10.79,0,.26-.35.52-.78.52-1.65,0-2.26-1.04-3.65-2.18ZM506.96,116.82l3.57-.35c1.57.17,3.13.26,5.22.09l5.05-.43c-.7-3.22-1.48-7.83-1.74-10.62-.09-.78-.17-1.57-.09-2.17,1.3-1.65,2.35-.09,3.04,2.17.87,2.7,1.39,6.88,1.92,10.18.96,0,1.74.35,1.74.78,0,1.04-.44,2.09-1.22,2.52l.26.87c0,1.22,3.74,10.18,3.57,11.49-.09.87-1.22,1.57-1.91,1.65-.78.09-1.39-.35-1.65-1.74-1.31-3.74-2.09-7.4-3.13-12.1-1.74-.09-4-.35-6.88-.09-1.39.17-3.48.35-4.35.26-2.44.17-3.57-.7-3.39-2.52ZM535.68,133.44c-1.13-3.57-2-6.87-2.96-10.53-1.57-5.74-3.05-15.05-4-22.97,0-1.74,1.48-2.78,2.26-2.87.7-.09.96.96,1.39,2.96.7,5.4,1.57,9.92,2.79,15.84,1.22,6,2.87,11.83,2.96,17.58,0,.7-.26,1.13-.61,1.13-.52.09-1.22-.17-1.83-1.13Z"/>
        <path class="cls-1" d="M555.78,125.35c-1.04-3.13-1.31-5.05-1.39-7.48-.09-1.13-.09-2.61,0-3.66l-10.79,1.92c-1.22.09-2.18-.35-2.87-1.31,0-.78,1.48-1.74,2.78-1.83,4.35-.44,10.53-2.52,13.66-2.52,5.13,0,11.23-1.48,15.49-1.74,1.57-.09,2.52.09,3.05.52.52.52.78.96.78,1.39,0,.35-.17.61-.7.7-6.96.7-12.88,1.48-18.62,2.44.61,2.7.26,5.57.61,8.79.09.78.17,1.74.52,2.7.17.35-.17.7-.78.7-.44.09-1.39-.35-1.74-.61ZM545.94,102.38c-2.78-2.09-4.09-5.48-4.09-9.75,0-6,2.87-12.1,7.14-14.53.7-.7,2.44-1.22,4.44-1.22.26-.35.35-.61.35-1.13.09-.61.17-.78.44-1.13.61-.26,1.13-.35,1.65-.35,1.74,0,3.92.87,4.96,2,2.61,2.52,4.79,4.26,5.4,4.96,2.26,2.18,4.18,7.05,4.18,10.62,0,1.83-.43,3.31-1.22,4.53-2.96,4.18-10.62,7.83-17.06,7.83-2.44,0-4.61-.61-6.18-1.83ZM565.17,97.42c1.74-1.57,2.61-3.48,2.61-5.74,0-2.09-.87-4.79-2.61-7.57-2.44-3.74-4.61-4.96-9.14-4.96-6.27,0-11.05,5.4-11.05,12.71,0,5.22,2.44,8.96,6,9.49.35.09.87.09,1.48.09,4.18,0,10.09-1.91,12.71-4ZM554.04,151.89l10.27-25.5c.96-.61,1.74-.96,2.26-.96.7,0,1.04.52,1.04,1.48,0,2.52-3.66,6.27-4.09,9.83,1.48.7,4.79,3.13,7.74,5.57,4.61-9.4,9.92-17.4,11.75-18.62,1.31-.7,2.26-.87,2.87-.43,0,.78.09,1.65-.26,2.17-2.61,3.13-3.83,4.44-5.66,8.18,4,4.44,7.75,7.48,10.44,9.22,1.22.7,2,1.57,2,2.18s-.96.7-2.61.17c-5.57-3.83-9.31-6.61-11.57-8.79-1.31,1.04-4.18,5.57-4.61,7.57-.17.78.61,1.57,2.52,3.48.52.52.7.96.61,1.48-.61,0-1.13,0-1.74-.17-1.22-.52-6.09-4.35-9.22-7.22-1.83-1.48-2.52-1.74-3.92-1.31l-4.61,10.27c-1.13,1.48-1.83,2.09-2.26,2.09-.35,0-.7-.26-.96-.7ZM569.61,120.04c-.09-1.65.44-2.44,1.92-2.52,2.96-.61,5.74-.87,8.53-2.17l1.39-.61c-.43-10.62-1.13-26.63-2.35-35.16-.17-1.39.17-2.18.96-2.18.96,0,1.92.87,2.35,2.18.17,3.92.87,9.49,1.48,12.27.26,3.92.17,24.8-.17,30.2-1.31.17-2-.7-2.09-2.52l-.09-1.91-1.04.35-9.57,2.26c-.61.17-1.04.09-1.31-.17Z"/>
        <path class="cls-1" d="M598.33,103.25c-2.79-2.09-4.09-5.48-4.09-9.75,0-6,2.87-12.1,7.14-14.53.7-.7,2.44-1.22,4.44-1.22.26-.35.35-.61.35-1.13.09-.61.17-.87.44-1.13.61-.26,1.13-.44,1.65-.44,1.74,0,3.92.96,4.96,2,2.61,2.61,4.79,4.35,5.4,5.05,2.26,2.18,4.18,7.05,4.18,10.62,0,1.83-.43,3.31-1.22,4.53-2.96,4.18-10.62,7.83-17.06,7.83-2.44,0-4.61-.61-6.18-1.83ZM594.41,119.78c.26-.87,1.13-1.65,3.39-2.87,5.57-.44,22.8-4.87,28.28-4.35h1.83c1.57.17,2.35.78,2.26,1.83-.7.61-3.13,1.31-4.79,1.39-9.14.44-25.32,4-27.85,4.26-1.13.09-2.35.87-3.13-.26ZM617.56,98.29c1.74-1.57,2.61-3.48,2.61-5.74,0-2.09-.87-4.79-2.61-7.57-2.44-3.74-4.61-4.96-9.14-4.96-6.27,0-11.05,5.31-11.05,12.71,0,5.22,2.44,8.96,6,9.49.35.09.87.09,1.48.09,4.18,0,10.09-2,12.71-4ZM602.77,151.37c.26-3.83,1.04-8.27,1.04-12.36,0-1.91.87-4.44,1.83-5.74.87,0,1.3.35,1.3.96,0,.7-.26,1.48-.26,2,0,5.31-1.04,10.36-1.04,14.45,5.13-1.39,14.01-1.04,20.36-.96l-2-18.54c-7.92,1.39-16.1,0-21.67,2.44l-1.65.61c-1.04,0-1.13-1.04,0-2,3.48-2.79,10.09-2.44,13.84-3.13,2,0,7.14-.87,9.66-.87,2.26,0,3.05.7,3.13,3.05l.87,20.28c-.7,2.09-13.58,0-16.45,1.31-1.74.43-4.79.96-6.79,1.04-1.48.17-2.26-.78-2.18-2.52Z"/>
      </g>
      <g>
        <path d="M132.31,69.89c-6.97,0-6.97-7.6-13.94-7.6s-6.97,7.6-13.94,7.6-6.97-7.6-13.94-7.6-6.97,7.6-13.94,7.6-6.97-7.6-13.95-7.6-6.97,7.6-13.95,7.6c-2.79,0-4.51-7.84-7.08-8.53s-8.07,5.2-10.4,3.85.06-9.02-1.85-10.93-9.57.51-10.93-1.85,4.56-7.74,3.85-10.4-8.53-4.29-8.53-7.08c0,0,7.6,0,7.6,0,0,0-7.6,0-7.6,0,0,0,7.6,0,7.6,0,0,0-7.6,0-7.6,0,0,0,7.6,0,7.6,0,0,0-7.6,0-7.6,0,0-2.79,7.84-4.51,8.53-7.08s-5.2-8.07-3.85-10.4,9.02.06,10.93-1.85-.51-9.57,1.85-10.93,7.74,4.56,10.4,3.85S45.86,0,48.65,0c6.97,0,6.97,7.6,13.94,7.6S69.56,0,76.53,0c6.97,0,6.97,7.6,13.94,7.6C97.44,7.6,97.44,0,104.41,0s6.97,7.6,13.95,7.6S125.34,0,132.31,0c2.79,0,4.51,7.84,7.08,8.53s8.07-5.2,10.4-3.85-.06,9.02,1.85,10.93,9.57-.51,10.93,1.85-4.56,7.74-3.85,10.4,8.53,4.29,8.53,7.08c0,0-7.6,0-7.6,0,0,0,7.6,0,7.6,0,0,0-7.6,0-7.6,0,0,0,7.6,0,7.6,0,0,0-7.6,0-7.6,0s7.6,0,7.6,0c0,2.79-7.84,4.51-8.53,7.08s5.2,8.07,3.85,10.4-9.02-.06-10.93,1.85.51,9.57-1.85,10.93-7.74-4.56-10.4-3.85-4.29,8.53-7.08,8.53Z"/>
        <g>
          <path class="cls-2" d="M49.17,47.6c0-.68.37-1.37.37-2.05,0-4.47.53-10.69,1.21-14-2.21-.58-8.37.79-10.63,1-.26,0-.53-.05-.79-.1-.68-.37-1.05-.63-1.05-1,0-.53.63-.89,1.74-.89,3-.79,9.05-1.42,11.06-1.21,1.42.21,2.11,1.16,1.74,2.53-1,4.16-1.53,10.79-1.37,16.95,0,.63-.21,1-.63,1-.79,0-1.63-1.21-1.63-2.21ZM64.59,50.13c-.37-.63-.9-1.53-1.16-2.21-.95-3.47-1.32-6.95-1.26-11.05l-.84-4.47c-.26-1.53-.26-2.74.05-3.69.32-.32.53-.42.74-.47.21,0,.42.11.47.32.42.58.32,1.63.37,1.95l1.16,7.05c-.05,1.74.32,5.79.58,7.21.1.53.89,2.42,1.21,3.84.37,1.47.11,2-.68,2.11-.16,0-.42-.16-.63-.58Z"/>
          <path class="cls-2" d="M72.07,39.28c-1.37-1.26-2.37-4.37-2.37-7.42,0-4.11,1.68-7.11,4.32-7.48.47-.05.79.16.79.47s-.21.68-.53.84c-.84.53-1.37.89-1.47,1.16-.95,1.32-1.32,2.79-1.37,5.16-.16,3.69,1.53,6.16,4.63,7.05.53.16,1,.26,1.47.26,3.63,0,7.27-5.21,7.27-10.21-1.16-3.16-5.48-5.53-10.48-5.53-.84,0-1.84.16-2.42.16-.37,0-.58-.16-.58-.42,0-.74,1.42-1.42,3-1.42,3.05,0,7.58,1.26,9.63,2.9,1.63,1.21,2.47,3,2.47,5,0,5.32-4.53,11.32-8.84,11.84-1.32,0-4.53-1.37-5.53-2.37ZM97.6,57.81c-.11-1-.26-2.89-.58-4.42-.26-1.84-.47-3.11-.84-4.47-.37-.16-.79-.21-1.21-.21-1.47,0-2.9.42-5.32,1.58-1.79.84-2.79,1.21-3.58,1.21-1,0-1.95-.37-1.95-.95,0-.16.05-.26.16-.42,2.16-1.37,8.58-3.11,11.58-3.11,1.42,0,1.95.26,2.32,1.32.58,1.47.95,6.11.95,11-.79,0-1.42-.63-1.53-1.53ZM87.97,30.75c0-.95.37-1.37,1.21-1.37,1.32-.26,4.26-.47,5.53-1.11l.16-.05-.11-2.26c0-.74.47-5.37.47-6.16,0-.58.32-.95.84-.95.26,0,.53.05.79.26v6.11l.1,2.58c.37,0,.79.47.79,1.05,0,.32-.32.63-.63.63h-.11c.16,2.21.32,4.53.58,6.58,0,1.21-.47,1.9-1.37,1.9-.37.05-.68-.47-.68-1.11,0-1.84-.26-4.53-.47-6.84l-.37.11-5.95.79c-.37.11-.63.05-.79-.16Z"/>
          <path class="cls-2" d="M111.08,27.7c-2.21,0-6.16.16-8.32.58-.9.11-1.21-.68-1.21-1.11,0-.37.32-.63.9-.68l8.11-.74c-.1-1.47-.79-5-1-6.9-.11-1,.37-1.84,1-1.84.53,0,.79.26.95.95.37,1.9.74,6,1.11,7.37l7.58-.68c.37-.05.53.21.53.42,0,.89-.53,1.63-1.47,1.89-1.74.53-5.63-.26-6.05.53.05.26.11.9.05,1.26-.05.42-.42.53-.74.53-1.11,0-1.68-.32-1.42-1.58ZM107.71,45.39c-.21-.68-.37-1.42-.37-2.11,0-4.37,3.74-9,7.74-9.58,2.84-.42,6.32,3.84,6.32,7.69,0,.37-.05.68-.11,1-.79,2.95-5.53,6.21-9.05,6.21-2.21,0-3.69-1.11-4.53-3.21ZM113.87,46.65c2.16,0,5.69-3.58,5.69-5.9,0-2.74-3.74-6.16-5.69-5.16.37.21.58.42.58.74,0,.58-.47,1.05-1.11,1.05-2.42,0-4.42,2.58-4.42,5.53,0,2.32,1.37,3.84,3.84,3.84.32,0,.74-.05,1.11-.11ZM129.24,45.65c-.32-.53-.63-1.26-.74-1.84-.26-2.37,0-5.26.63-8.95.11-.79-.05-1.68-.05-2.58,0-1.05.11-1.9.79-2.74.37-.53,1-.53,1.26,0,.26.47,0,1.26,0,1.53l-.11,4.42,6.37.58c0-.68.05-1.32.1-1.95.11-1.21.68-2.95.79-3.74.16-1.26.21-1.63.32-1.95.32-.95,1.79-.74,1.79-.21s-.37,1.16-.32,2.37c.05,1.32-.42,3.47-.74,5.74.42.26.74.84.74,1.26,0,.68-.47.58-1,.58-.11.95-.16,1.9-.16,2.79,0,.68.11,1.37.11,2.11,0,.89-.21,3.26-.32,3.63-.11.32-.32.47-.68.47-.47,0-1.53-.53-1.47-1.05l.58-5.21c.1-.9.16-1.9.21-2.95-.68-.16-1.42-.42-2-.47-1.32,0-2.74.16-4.63,0-.32,1.05-.32,2.58-.32,3.95,0,.47.42,2,.47,3.11.05,1.16-.21,1.58-1.05,1.58-.21,0-.42-.16-.58-.47Z"/>
        </g>
      </g>
    </g>
  </g>
</svg>