<?xml version="1.0" encoding="UTF-8"?>
<svg id="_레이어_2" data-name="레이어 2" xmlns="http://www.w3.org/2000/svg" viewBox="0 0 198.35 55.85">
  <defs>
    <style>
      .cls-1 {
        stroke-width: .75px;
      }

      .cls-1, .cls-2 {
        stroke: #000;
        stroke-miterlimit: 10;
      }

      .cls-2 {
        fill: none;
        stroke-width: 2px;
      }
    </style>
  </defs>
  <g id="_레이어_1-2" data-name="레이어 1">
    <g>
      <g>
        <path class="cls-1" d="M8.38,9.83c.48-.09.95.19.86.57l-1.43,5.84c.05.29,1.62.81,3.99,1.85,1.9.9,3.99,1.9,5.13,3.14.33.43.62,1.09.62,1.57.05.62.24.85,0,1.42-.48-.05-.71-.67-1.14-1.57-1.28-1.09-3.14-2.23-4.56-2.85-1.9-.76-3.28-1-4.37-1-.38,0-.66.05-.81.14-.62.86-.48,2.09-.81,3.33-.47,1.76-.81,2.61-1.24,3.33-.62.67-.62,1.28-1.71,1.28l4.51-15.82c.19-.57.52-1.09.95-1.24ZM22.92,28.41c-.29-.62-.57-1.52-.67-2.19-.24-2.9-.09-6.27.57-11.31l-.05-3.09c0-1.24.19-2.19.71-3.04.38-.24.57-.33.76-.33.24,0,.33.1.38.33.29.52,0,1.38,0,1.66l-.1,5.7,5.7.52c.05-1.38.05-2.42.14-2.95.24-1.47.62-3.18.71-4.18.14-1.42.14-1.9.29-2.28,0-.33,1.62-.9,1.62-.24-.24.76-.29,1.33-.29,2.8-.05.95-.09,1.85-.29,2.8-.19,1.09-.43,2.61-.52,4.23.47.19.81.76.81,1.19,0,.62-.48.52-.95.52l-.1,3.61.1,2.52c0,1.04-.33,4.23-.48,4.66-.05.14-.19.24-.43.24-.43,0-1-.33-1.38-.71l.57-6.79c.1-1.09.1-2.38.14-3.71-.67-.19-1.24-.38-1.76-.43-1.19,0-2.47.14-4.18,0-.29,1.38-.29,3.75-.29,5.46,0,.52.38,2.33.43,3.66.05,1.38-.19,1.85-.95,1.85-.19,0-.38-.14-.52-.52Z"/>
        <path class="cls-1" d="M53.38,20.71c-1.38-.05-2.04.14-2.71.19-2.71.24-5.46-.05-7.6-.47-1.05-.19-1.47-2-1.47-3.18,0-2.9.29-4.13.29-5.56,0-.62.71-1,1.19-1.04l3.47-.24c1.71,0,3.09-.67,4.7-1.04.71-2.61-.14-5.08-.38-7.65-8.12,0-10.93,2.28-12.59,2.28-.67,0-1.33-.71-1.33-1.33,0-.33.43-.81,1.52-1l4.47-.95c2.04-.38,5.8-.33,7.79-.33.76,0,1.47.67,1.66,1.42.52,1.66.62,4.18.71,5.04.05.52.33,1.28.43,2.04.05.62,0,1.19-.52,1.66-1,1.05-7.93,1.28-9.74,1.47,0,1.8,0,5.08.43,7.08,1.71-.24,3.18.33,4.7.48,2.42.09,5.13-.71,6.13-.71,1.23,0,2.09,2.09,1.23,2.09-.66,0-1.33-.19-2.38-.24ZM47.87,37.53c-.19-1.19-1.33-1.43-2.57-1.43-1.95,0-3.52.19-4.56.19-1.33,0-2.04-.48-2.04-1.47,0-.57.29-.76.81-.76.67,0,1.43.76,2.61.76,1.62,0,3.47.09,5.7-.05l.14-8.7c0-.86,1.76-1.71,1.76,0,0,1.09-.43,2.23-.43,4.42,0,1.62.05,3.09.29,4.61,2.14.1,4.37,0,6.51-.67,1.42,0,2.56,1.76,1.14,1.85l-7.98.43-.33,1c-.14.43-.95.29-1.04-.19Z"/>
        <path class="cls-1" d="M82.61,15.01c-1.62-1.05-3.61-2-5.37-2.95-.95,1.66-1.43,3.8-2.14,6.04-.33,1.14-1.95,1.38-1.76.62,1.24-4.61,3.71-10.98,3.75-14.49-2.57-.19-4.85-.14-7.56.24-1.14,0-1.9-.67-1.95-1.19-.05-.29.19-.52.67-.43,4.18-.57,7.41-.57,9.74-.19.57,0,.85.29.95,1.14.19,2.14-1.38,4.42-1.66,7.13,0,0,.47-.52.95-.52.43.14.81.33,1.24.62,1.38.81,3.04,2.19,4.37,2.95.9.67,5.23,3.04,5.99,3.66.67.24,1.43,1.57.9,1.57-3.18-.81-5.23-2.23-8.12-4.18ZM82.37,37.91c0-2.47.33-5.32,1.14-10.17-3.61,0-7.37-.62-10.45-.81-.81,0-1.14-.14-1.14-.62.09-.47.57-.9,1.14-.9,1.43,0,3.94.33,9.17.81,6.08,0,8.46.14,9.12.47.52.52.62.76.62,1.47-2,.43-3.99.19-7.13-.43-.62.62-.62,9.55-.62,10.74,0,3.09-1.24,1.85-1.85-.57Z"/>
        <path class="cls-1" d="M95.06,27.84c1.09-1.33,4.28-4.61,4.51-5.42-.33-.24-.47-.47-.43-.81.14-.62,1.24-.19,1.85-.76.86-.81,2.8-3.37,2.8-3.37-3.85,0-7.41.24-10.74,0-.14,0-.47.14-.76.14-.33,0-.57-.24-.76-.76,0-.33.52-.62,1.24-.71,1.09-.19,4.56-.43,5.46-.43,1.43,0,2.71-.14,3.9-.38,1.04,0,2.47,0,3.09.05,1.24.09,1.57,1.24.67,2.33l-3.52,4.28c3.33,1.62,6.03,3.09,7.36,4.18.62.62.9,1.19.86,1.62-.05.19-.14.33-.29.48l-9.03-5.13c-1.38.71-3.18,4.04-4.37,5.13-.71.57-1.85,1.04-2.47.62-.09-.14.09-.48.62-1.05ZM104.42,10.69c-1.81-.47-4.94-2.23-5.75-2.47-.71-.24-2-1.33-2.76-1.85-.24-.19-.33-.43-.29-.67.09-.52.95-.86,1.38-.71l2.23,1.57c1.57.9,4.32,1.85,5.75,2.52.67.76.85,1.43.43,1.66-.14.14-.48.09-1-.05ZM114.4,30.22c-.24-.81-.57-1.95-.67-2.76-.29-4.09-.14-6.51.57-11.55l-.05-3.47c0-1.85.24-3.18.71-4.42.38-.33.62-.43.76-.43.24,0,.33.14.38.43.24.81.05,2.04,0,2.38l-.09,6.7,9.08.62c.62,0,1.57.76,1.57,1.33,0,.67-.47.47-1,.47-1.23,0-3.04-.47-4.8-.62-1.19,0-3.52.14-5.13.05-.28,1.33-.28,3.14-.28,4.85,0,.67.38,2.99.43,4.75s-.19,2.42-.95,2.42c-.19,0-.38-.24-.52-.76Z"/>
        <path class="cls-1" d="M128.71,11.64l-2.52-.24c0-1.24.57-1.24,1.14-1.81,2.19.09,4.66,1.28,6.84.81-.1-2.14-.67-5.04-.67-7.32,0-.57-.43-1.57,0-1.57.62,0,1.05.52,1.38,1.52.66,2.38.52,6.6,1,7.74,1.85.14,4.47-.05,7.98-.62.47-.05.9.24.95.71.14.52-.05.95-.38,1-3.66.85-8.17.81-15.73-.24ZM130.46,25.7c0-2.14.67-4.37,1.66-5.51.62-.81,6.7-3.47,8.17-3.56,1.66-.14,2.71.67,3.61,2.47.62,1.33.95,2.42.95,3.47,0,1.9-1.05,3.42-3.42,5.46-2.04,1.66-4.18,2.42-6.22,2.42-3.28,0-4.75-1.38-4.75-4.75ZM140.3,27.32c1.85-1.62,2.57-2.95,2.57-4.7,0-.86-.19-1.76-.52-2.95-.81-1.24-1.47-1.71-2.28-1.71-.48,0-1,.14-1.76.47-1.76.86-3.52,1.95-4.18,2.57-.14.19-.57.19-.86,0-.05-.1-.09-.14-.14-.33-.05.09-.05.14-.09.19-.71.81-1.24,2.85-1.24,4.61,0,2.33,1.28,3.42,3.94,3.42,1.76,0,3.42-.57,4.56-1.57ZM154.65,29.74c-.24-.81-.57-1.95-.66-2.76-.29-4.09-.14-6.51.57-11.55l-.05-3.47c0-1.85.24-3.18.71-4.42.38-.33.62-.43.76-.43.24,0,.33.14.38.43.24.81.05,2.04,0,2.38l-.09,6.7,9.08.62c.62,0,1.57.76,1.57,1.33,0,.67-.48.48-1,.48-1.24,0-3.04-.48-4.8-.62-1.19,0-3.52.14-5.13.05-.29,1.33-.29,3.14-.29,4.85,0,.67.38,2.99.43,4.75.05,1.76-.19,2.42-.95,2.42-.19,0-.38-.24-.52-.76Z"/>
        <path class="cls-1" d="M177.7,27.56c0-.62.33-1.24.33-1.85,0-4.04.47-9.65,1.09-12.64-2-.52-7.55.71-9.6.9-.24,0-.47-.05-.71-.09-.62-.33-.95-.57-.95-.9,0-.48.57-.81,1.57-.81,2.71-.71,8.17-1.28,9.98-1.09,1.28.19,1.9,1.05,1.57,2.28-.9,3.75-1.38,9.74-1.23,15.3,0,.57-.19.9-.57.9-.71,0-1.47-1.09-1.47-2ZM191.62,29.84c-.33-.57-.81-1.38-1.04-2-.86-3.14-1.19-6.27-1.14-9.98l-.76-4.04c-.24-1.38-.24-2.47.05-3.33.29-.29.47-.38.67-.43.19,0,.38.09.43.29.38.52.28,1.47.33,1.76l1.04,6.37c-.05,1.57.29,5.23.52,6.51.09.47.81,2.19,1.09,3.47.33,1.33.1,1.81-.62,1.9-.14,0-.38-.14-.57-.52Z"/>
      </g>
      <path class="cls-2" d="M0,52.85c49.59,0,49.59,2,99.17,2s49.59-2,99.17-2"/>
    </g>
  </g>
</svg>