<?xml version="1.0" encoding="UTF-8"?>
<svg id="_레이어_2" data-name="레이어 2" xmlns="http://www.w3.org/2000/svg" viewBox="0 0 563.08 130.81">
  <defs>
    <style>
      .cls-1 {
        fill: #fff;
        stroke: #fff;
        stroke-miterlimit: 10;
      }
    </style>
  </defs>
  <g id="_레이어_1-2" data-name="레이어 1">
    <g>
      <path d="M497.67,130.81c-36.02,0-36.02-4.73-72.04-4.73-36.02,0-36.02,4.73-72.04,4.73s-36.02-4.73-72.04-4.73c-36.02,0-36.02,4.73-72.05,4.73-36.02,0-36.02-4.73-72.05-4.73s-36.02,4.73-72.05,4.73c-5.64,0-10.5-5.39-15.71-6.78s-12.28.76-17-1.97c-4.78-2.77-6.31-9.86-10.2-13.75s-10.98-5.41-13.75-10.2c-2.73-4.72-.53-11.61-1.97-17S0,71.05,0,65.4c0,0,4.73,0,4.73,0,0,0-4.73,0-4.73,0,0,0,4.73,0,4.73,0,0,0-4.73,0-4.73,0,0,0,4.73,0,4.73,0s-4.73,0-4.73,0c0-5.64,5.39-10.5,6.78-15.71,1.44-5.39-.76-12.28,1.97-17s9.86-6.31,13.75-10.2,5.41-10.98,10.2-13.75,11.61-.53,17-1.97S59.76,0,65.4,0c36.02,0,36.02,4.73,72.04,4.73S173.47,0,209.49,0s36.02,4.73,72.04,4.73S317.55,0,353.57,0s36.02,4.73,72.05,4.73S461.65,0,497.67,0c5.64,0,10.5,5.39,15.71,6.78s12.28-.76,17,1.97,6.31,9.86,10.2,13.75,10.98,5.41,13.75,10.2.53,11.61,1.97,17,6.78,10.07,6.78,15.71c0,0-4.73,0-4.73,0,0,0,4.73,0,4.73,0,0,0-4.73,0-4.73,0,0,0,4.73,0,4.73,0,0,0-4.73,0-4.73,0s4.73,0,4.73,0c0,5.64-5.39,10.5-6.78,15.71-1.44,5.39.76,12.28-1.97,17-2.77,4.78-9.86,6.31-13.75,10.2s-5.41,10.98-10.2,13.75-11.61.53-17,1.97-10.07,6.78-15.71,6.78Z"/>
      <g>
        <path class="cls-1" d="M159.72,73.87c-.13-.52-.04-1.16.04-1.89.04-.52.09-.95,0-1.46-.09-.56-.13-.95-.39-1.16-.17-.09-.52-.13-.95-.13-1.76,0-5.2.6-6.19.6-.6,0-1.12-.21-1.42-.73,0-.39.77-.77,1.42-.82,5.16-.26,11.39-.77,16.21-1.46.69-.13,1.16.09,1.38.26.26.26.39.52.39.69s-.13.3-.39.3c-1.81.34-7.18.77-9.2,1.29.26.86.65,2.32.65,3.1,0,.82-.56,1.46-1.16,1.46-.13,0-.26,0-.39-.04ZM164.84,63.89c-1.12-.9-2.92-4.08-3.18-5.33-1.29-.47-5.29,4.69-6.45,4.69-.34,0-.56-.26-.56-.6,0-.3.13-.6.39-.77,1.81-1.08,4.39-3.74,4.9-4.21.99-.86,2.28-2.32,2.32-3.14,0-.43-.13-.56-.6-.56-2.24,0-7.96,2.19-9.16,2.19-1.89,0-1.89-1.33-1.25-1.33,1.89,0,7.96-2.32,11.65-2.32,1.29,0,1.72.3,1.72,1.08,0,1.12-.86,1.72-1.46,2.71-.13.21-.17.56-.17.9,0,2.11,1.63,4.6,2.58,5.98.3.39.26.69.13.77-.26.21-.56.21-.86-.04ZM160.88,50.09c-.43,0-4.73-.65-5.72-1.16-.47-.21-.69-.6-.69-.99,0-.17,0-.3.09-.43.13-.17.47-.13.95.04,1.2.43,3.44,1.08,5.63,1.29,1.07.56,2.32.82,2.32,1.33-1.07,0-1.5-.09-2.58-.09ZM162.04,90.34c-.26-.64-.56-1.46-.64-2.19-.43-.99-1.33-2.41-1.76-3.65-.17-.56-.26-.9-.26-1.08.09-.3.47-.6,1.2-.82,1.76-.64,5.46-.6,6.54-1.85.47-2.06.43-2.79-.09-5.76,0,0-4.56.6-6.15,1.08-.82.43-2.28,1.07-3.27,1.42-.99.34-1.76.43-1.76.17,0-1.12,1.03-1.12,1.55-1.68,4.13-1.51,5.98-2.02,9.07-2.49,1.63-.26,2.19,0,2.37,1.03.39,1.76.39,4.26,0,6.02-.21,1.2-.47,1.5-1.59,1.93-1.72.69-4.9.99-5.85,1.16-.3.95,1.89,5.2,2.84,5.68.99,0,5.16-2.24,6.62-2.75.6-.3,1.03-.39,1.29-.3.34.69-.09,1.29-1.03,1.81-1.63.34-4.47,2.06-6.49,3.01-1.29.47-2.02.3-2.58-.73Z"/>
        <path class="cls-1" d="M173.39,77.95c.99-1.2,3.87-4.17,4.08-4.9-.3-.21-.43-.43-.39-.73.13-.56,1.12-.17,1.68-.69.77-.73,2.54-3.05,2.54-3.05-3.48,0-6.71.21-9.72,0-.13,0-.43.13-.69.13-.3,0-.52-.21-.69-.69,0-.3.47-.56,1.12-.65.99-.17,4.13-.39,4.94-.39,1.29,0,2.45-.13,3.53-.34.95,0,2.24,0,2.79.04,1.12.09,1.42,1.12.6,2.11l-3.18,3.87c3.01,1.46,5.46,2.79,6.67,3.78.56.56.82,1.08.77,1.46-.04.17-.13.3-.26.43l-8.17-4.64c-1.25.64-2.88,3.66-3.96,4.64-.64.52-1.68.95-2.24.56-.09-.13.09-.43.56-.95ZM181.86,62.43c-1.63-.43-4.47-2.02-5.2-2.24-.65-.21-1.81-1.2-2.49-1.68-.21-.17-.3-.39-.26-.6.09-.47.86-.77,1.25-.64l2.02,1.42c1.42.82,3.91,1.68,5.2,2.28.6.69.77,1.29.39,1.5-.13.13-.43.09-.9-.04ZM190.89,80.1c-.21-.73-.52-1.76-.6-2.49-.26-3.7-.13-5.89.52-10.45l-.04-3.14c0-1.68.21-2.88.64-4,.34-.3.56-.39.69-.39.21,0,.3.13.34.39.21.73.04,1.85,0,2.15l-.09,6.06,8.21.56c.56,0,1.42.69,1.42,1.2,0,.6-.43.43-.9.43-1.12,0-2.75-.43-4.34-.56-1.08,0-3.18.13-4.64.04-.26,1.2-.26,2.84-.26,4.39,0,.6.34,2.71.39,4.3.04,1.59-.17,2.19-.86,2.19-.17,0-.34-.21-.47-.69Z"/>
        <path class="cls-1" d="M209.77,73.05c0-.39.77-.82,1.42-.82,1.89-.47,4.13-.82,6.02-.9-.34-.86-.56-1.55-.69-2.32-.13-.73-.17-1.33-.13-1.81,0-.39.34-.69.82-.73.13,0,.3.13.34.26.64,1.46.52,2.79.9,4.43,0,0,.04.13.04.17,1.5-.09,5.33-.43,7.18-.43.77,0,1.25.09,1.46.3.3.3.39.52.39.73,0,.17-.09.26-.39.3-5.38.34-11.05.9-15.95,1.55-.6,0-1.12-.21-1.42-.73ZM212.44,63.68c-1.38-1.03-2.02-2.71-2.02-4.82,0-2.97,1.42-5.98,3.53-7.18.34-.34,1.2-.6,2.19-.6.13-.17.17-.3.17-.56.04-.3.09-.39.21-.56.3-.13.56-.17.82-.17.86,0,1.93.43,2.45.99,1.29,1.25,2.36,2.11,2.67,2.45,1.12,1.08,2.06,3.48,2.06,5.25,0,.9-.21,1.63-.6,2.24-1.46,2.06-5.25,3.87-8.43,3.87-1.2,0-2.28-.3-3.05-.9ZM221.94,61.22c.86-.77,1.29-1.72,1.29-2.84,0-1.03-.43-2.37-1.29-3.74-1.2-1.85-2.28-2.45-4.51-2.45-3.1,0-5.46,2.67-5.46,6.28,0,2.58,1.2,4.43,2.97,4.69.17.04.43.04.73.04,2.06,0,4.99-.95,6.28-1.98ZM222.63,86.16c-.04-.3-.04-.65-.04-1.08,0-.82-.17-5.33-.17-7.27,0-.56.13-.77.52-.77.64,0,1.16.47,1.16,1.03-.04,2.28-.04,5.2,0,7.53.21.21.64.3,1.38.3,3.87,0,7.74-2.32,9.63-2.11.73,0,1.2.73.99,1.55-.39.39-8.51,2.15-12,1.94-.95-.04-1.38-.39-1.46-1.12ZM230.02,73.87l-.34-4c-.43-4.77-.86-10.75-.86-13.89,0-1.46.17-2.75.26-3.87,0-.9.82-2.32,1.38-2.32.26,0,.47.26.56.77.26,1.08-.09,2.28-.3,3.48-.34,2.45-.34,4.77.04,6.79.52.26,3.35-.09,4.69-.09s2.11.65,1.93,1.55c-.43.17-1.16.17-1.85.13-1.81-.04-4.39-.21-4.99.77,0,1.68.22,3.7.47,5.42.3,2.28.52,3.66.52,5.07-.21.9-.64,1.59-1.03,1.59-.3,0-.52-.6-.47-1.42Z"/>
        <path class="cls-1" d="M237.46,82.25c0-.21.34-.3.69-.64,1.98-.9,3.61-.9,4.94-1.46.09-1.03-.17-3.78-.52-6.06-.3-.6-.34-1.2.17-1.2,1.08,0,1.42.6,1.5,2.54,0,1.03.6,2.67.69,3.87.04.43.13.52.47.64,1.59-.21,3.22-.39,4.82-.47.17-1.81.22-4.13-.04-6.28-.09-.56.13-.86.56-.86.47,0,.99.56,1.16.95-.13,1.25-.39,4-.22,4.9l-.17,1.25c1.85-.04,3.48,0,4.6.21.73,0,1.25.3,1.25.77,0,.3-.34.64-.73.69-1.46.13-3.35-.04-5.38-.13l-.13.86c-.6.04-1.08-.43-1.08-.9-.82,0-1.63.04-2.45.17-.95,0-2.88.52-4.43.52-.86.47-3.44,1.07-4.6,1.12-.69.04-1.12-.13-1.12-.47ZM242.02,67.16c-.43-1.85-.73-3.78-.73-5.33,0-.64.52-1.2,1.16-1.25l8.34-.73c.09-1.25-.21-3.27-.56-4.56-2.71-.3-6.84.3-9.12.3-1.55,0-1.98-1.68-1.33-1.68.86,0,1.85.17,2.84.17,1.63,0,3.78-.65,6.19-.65,1.25,0,2.45.26,2.84,1.33.39,1.12.6,3.87.52,5.03-.04.6-.26,1.08-.69,1.16l-8.77,1.16c-.43.39.3,2.58.47,3.31.17.47.17.86.65,1.08,3.27.13,7.87-.73,11.14-1.2,1.55-.21-.34,2.06-1.16,2.06-.64,0-1.38-.13-2.11,0-1.16.17-5.37.86-6.36.95-.95.04-3.05-.09-3.31-1.16Z"/>
        <path class="cls-1" d="M269.84,81.09c-1.98-.86-4.04-3.74-4.04-5.63,0-2.58,7.18-7.27,9.59-9.2-4.26-2.41-7.05-5.55-7.05-7.91,0-3.14,4-6.62,7.57-6.62,3.78,0,7.14,1.93,7.14,4.13,0,2.58-2.32,7.18-4.99,9.98,3.18,1.85,4.73,2.75,5.93,3.74l.04-2.58c0-1.72.47-3.22,1.12-3.22.34,0,.56.73.56,1.85,0,.82-.21,1.93-.21,2.67,0,.34.04,1.38,0,2.67,1.59,1.63,3.7,4.21,4.82,5.98.69,1.08.9,2.02.65,2.02-.34,0-.82-.43-1.85-1.72-.9-1.12-2.06-2.45-3.27-3.7l-.43-.43c-.13,1.81-.43,3.61-1.12,4.3-1.46,1.42-4.21,3.35-5.29,3.7-1.98.65-3.53.9-4.9.9-1.46,0-2.88-.3-4.26-.9ZM269.67,79.28c.86.6,2.28.9,4.17.9,2.84,0,5.5-.77,7.01-2.02,1.16-.95,2.32-2.11,2.62-2.75.17-.34.34-1.85.43-3.74-2.24-1.98-4.3-3.14-7.14-4.69-2.62,2.02-9.25,6.36-9.25,8.6,0,1.16,1.25,3.05,2.15,3.7ZM276.77,65.05c2.71-2.67,4.51-5.81,4.51-8.21,0-2.06-2.19-3.4-5.5-3.4-3.66,0-5.93,1.85-5.93,4.82,0,1.89,2.19,4.04,6.92,6.79Z"/>
        <path class="cls-1" d="M308.8,77.69c0-.56.3-1.12.3-1.68,0-3.66.43-8.73.99-11.44-1.81-.47-6.84.65-8.69.82-.21,0-.43-.04-.65-.09-.56-.3-.86-.52-.86-.82,0-.43.52-.73,1.42-.73,2.45-.65,7.4-1.16,9.03-.99,1.16.17,1.72.95,1.42,2.06-.82,3.4-1.25,8.82-1.12,13.85,0,.52-.17.82-.52.82-.64,0-1.33-.99-1.33-1.81ZM321.4,79.76c-.3-.52-.73-1.25-.95-1.81-.77-2.84-1.08-5.68-1.03-9.03l-.69-3.65c-.21-1.25-.21-2.24.04-3.01.26-.26.43-.34.6-.39.17,0,.34.09.39.26.34.47.26,1.33.3,1.59l.95,5.76c-.04,1.42.26,4.73.47,5.89.09.43.73,1.98.99,3.14.3,1.2.09,1.63-.56,1.72-.13,0-.34-.13-.52-.47Z"/>
        <path class="cls-1" d="M327.46,70.68c0-.39.77-.73,1.42-.73,2.02-.52,4.9-.52,6.97-.99-.3-.86-.6-2.67-.6-3.35,0-.95.52-1.72,1.25-1.72.13,0,.26.04.34.09.09.6,0,1.29-.04,2.06-.04.56-.04,1.16-.04,1.76,0,.56.09.95.3,1.16.69.52,4.21-.34,6.32-.34.77,0,1.25.09,1.46.34.26.26.39.47.39.69,0,.17-.09.3-.39.3-5.38.26-11.05.82-15.95,1.46-.6,0-1.12-.21-1.42-.73ZM328.02,62.56l.52-5.85c0-.52.34-.82.9-.77,2.79.26,6.15.47,7.83-.6-.17-.39-.26-1.2-.43-2.02-.26-.73-.26-2.32-.6-3.01-1.81,0-4.3.82-6.75.82-1.38,0-1.68-.34-1.63-.9.04-.26.13-.43.39-.56l7.91-.6c.43,0,.86.17,1.2.99.77,1.55,1.2,4.13,1.38,5.29.09.73-.3,1.33-.99,1.59-1.08.39-3.57.39-7.87.21-.17,1.08-.09,2.45-.09,2.24,0,.86.09,1.76.21,2.02l8.21-.86c.86-.34,1.29-.56,1.81-.99.52-.22.47.52.47.86,0,.99-.77,1.33-3.48,1.55-1.33.09-3.01.3-4.3.65-.86.3-1.76.47-3.7.69-.52.09-.73-.09-.99-.73ZM341.39,86.34c0-.47.34-.95.34-1.42,0-2.54.17-5.16.47-6.84-1.81-.47-7.27.56-9.5.73-.17,0-.39,0-.56-.09-.77-.22-.99-.39-.99-.65,0-.39.52-.6,1.42-.6,3.27-.73,8.47-1.33,9.89-1.16,1.16.13,1.72.9,1.42,2.02-.6,2.28-.86,5.16-.86,8.77,0,.47-.17.77-.52.77-.6,0-1.12-.77-1.12-1.55Z"/>
        <path class="cls-1" d="M353.91,70.9c-.3-1.63.77-5.12,3.23-10.32l1.25-3.1c.34-.77.73-1.16,1.29-1.16.26,0,.47.09.77.21l-.43,1.16-1.98,4.82c1.68.73,8.3,5.89,9.46,7.44.39.47.43.86.17.99-.39-.09-.73-.21-1.2-.47-.99-.52-1.93-1.2-3.65-2.75-2.37-2.11-3.74-3.05-5.03-3.57-1.46,1.85-2.37,4.73-2.37,7.27,0,.17-.17.3-.43.34-.6.04-1.08-.3-1.08-.86ZM375.36,86.04c-.09-.82-.21-2.37-.47-3.61-.21-1.5-.39-2.54-.69-3.65-.3-.13-.65-.17-.99-.17-1.2,0-2.37.34-4.34,1.29-1.46.69-2.28.99-2.92.99-.82,0-1.59-.3-1.59-.77,0-.13.04-.22.13-.34,1.76-1.12,7.01-2.54,9.46-2.54,1.16,0,1.59.22,1.89,1.08.47,1.2.77,4.99.77,8.99-.65,0-1.16-.52-1.25-1.25ZM373.38,70.77c-.17-5.12-.6-10.11-1.25-14.53-.09-.69.04-1.03.47-1.03.47,0,.95.39,1.16,1.03.09,2.54.26,4.08.56,5.33.21.21.73.34,1.5.47,2.62.43,4.04.77,4.77,1.16.52.26.73.56.73.99,0,.17-.3.17-.6.09-1.81-.43-4.56-.86-5.68-.86-.47,0-.65.17-.65.69.17,2.11.17,5.33,0,7.61-.04.17-.17.34-.3.34-.34,0-.73-.6-.73-1.29Z"/>
        <path class="cls-1" d="M393.16,79.54c-1.12-1.42-2.02-3.57-2.88-5.5-.39-.86-.69-1.76-.77-2.24-.9,1.16-2.02,3.78-2.15,5.38-.17.6.09,1.59-.6,1.59-.82,0-1.2-.43-1.2-1.12,0-.82.52-1.85.86-2.62l2.62-5.29c1.2-2.41,2.06-4.82,1.63-7.22-2.32,0-6.11.6-8.69,1.2-.73.17-.22-1.85.99-1.98l7.61-.69c.6-.09.99.3,1.25.95.3.82.34,1.55.34,2.62,0,2.11-1.16,3.7-1.16,5.12v.82c.34,1.16,1.76,6.66,3.18,8.04.13.17,2.32,1.85.77,1.85-.77,0-1.33-.26-1.81-.9ZM395.36,69.95l1.76-.17c.77.09,1.55.13,2.58.04l2.49-.21c-.34-1.59-.73-3.87-.86-5.25-.04-.39-.09-.77-.04-1.08.64-.82,1.16-.04,1.5,1.08.43,1.33.69,3.4.95,5.03.47,0,.86.17.86.39,0,.52-.21,1.03-.6,1.25l.13.43c0,.6,1.85,5.03,1.76,5.68-.04.43-.6.77-.95.82-.39.04-.69-.17-.82-.86-.65-1.85-1.03-3.65-1.55-5.98-.86-.04-1.98-.17-3.4-.04-.69.09-1.72.17-2.15.13-1.2.09-1.76-.34-1.68-1.25ZM409.55,78.17c-.56-1.76-.99-3.4-1.46-5.2-.77-2.84-1.51-7.44-1.98-11.35,0-.86.73-1.38,1.12-1.42.34-.04.47.47.69,1.46.34,2.67.77,4.9,1.38,7.83.6,2.97,1.42,5.85,1.46,8.69,0,.34-.13.56-.3.56-.26.04-.6-.09-.9-.56Z"/>
      </g>
    </g>
  </g>
</svg>