<?xml version="1.0" encoding="UTF-8"?>
<svg id="_레이어_2" data-name="레이어 2" xmlns="http://www.w3.org/2000/svg" viewBox="0 0 563.08 130.81">
  <defs>
    <style>
      .cls-1 {
        fill: #fff;
      }

      .cls-2 {
        stroke: #000;
        stroke-miterlimit: 10;
      }
    </style>
  </defs>
  <g id="_레이어_1-2" data-name="레이어 1">
    <g>
      <g>
        <path class="cls-1" d="M497.67,129.62c-17.93,0-27.05-1.2-35.87-2.35-8.89-1.17-18.09-2.37-36.17-2.37s-27.28,1.21-36.17,2.37c-8.82,1.16-17.93,2.35-35.87,2.35s-27.05-1.2-35.87-2.35c-8.89-1.17-18.09-2.37-36.17-2.37s-27.28,1.21-36.18,2.37c-8.82,1.16-17.93,2.35-35.87,2.35s-27.05-1.2-35.87-2.35c-8.89-1.17-18.09-2.37-36.18-2.37s-27.29,1.21-36.18,2.37c-8.82,1.16-17.94,2.35-35.87,2.35-2.96,0-5.73-1.68-8.67-3.46-2.16-1.31-4.4-2.66-6.73-3.28-1.93-.52-3.98-.59-5.72-.59-.67,0-1.33.01-2,.02-.65.01-1.31.02-1.95.02-2.47,0-5.04-.16-7.03-1.31-2.48-1.43-4.03-4.25-5.67-7.22-1.24-2.25-2.52-4.58-4.28-6.34-1.76-1.76-4.08-3.04-6.33-4.28-2.98-1.64-5.79-3.19-7.22-5.67-1.41-2.43-1.35-5.61-1.29-8.99.05-2.59.09-5.28-.56-7.72-.62-2.34-1.98-4.57-3.28-6.73-1.54-2.54-3-4.97-3.37-7.49h2.72c.86,0,1.92,0,1.92-1.18v-1.18H1.27c.37-2.52,1.83-4.95,3.37-7.49,1.31-2.16,2.66-4.39,3.28-6.73.65-2.45.61-5.13.56-7.72-.06-3.37-.11-6.56,1.29-8.99,1.43-2.48,4.25-4.03,7.22-5.67,2.25-1.24,4.58-2.52,6.34-4.28,1.76-1.76,3.04-4.08,4.28-6.34,1.64-2.98,3.19-5.79,5.67-7.22,2-1.15,4.56-1.31,7.03-1.31.65,0,1.3.01,1.96.02.67.01,1.34.02,2,.02,1.74,0,3.79-.07,5.72-.59,2.34-.62,4.57-1.98,6.73-3.28,2.94-1.78,5.71-3.46,8.67-3.46,17.93,0,27.05,1.2,35.87,2.35,8.89,1.17,18.09,2.37,36.17,2.37s27.28-1.21,36.17-2.37c8.82-1.16,17.93-2.35,35.87-2.35s27.05,1.2,35.87,2.35c8.89,1.17,18.09,2.37,36.17,2.37s27.28-1.21,36.18-2.37c8.82-1.16,17.93-2.35,35.87-2.35s27.05,1.2,35.87,2.35c8.89,1.17,18.09,2.37,36.18,2.37s27.29-1.21,36.18-2.37c8.82-1.16,17.94-2.35,35.87-2.35,2.96,0,5.73,1.68,8.67,3.46,2.16,1.31,4.39,2.66,6.73,3.28,1.93.52,3.98.59,5.72.59.67,0,1.33-.01,2-.02.65-.01,1.31-.02,1.96-.02,2.47,0,5.04.16,7.03,1.31,2.48,1.43,4.03,4.25,5.67,7.22,1.24,2.25,2.52,4.58,4.28,6.34,1.76,1.76,4.08,3.04,6.33,4.28,2.98,1.64,5.79,3.19,7.22,5.67,1.41,2.43,1.35,5.61,1.29,8.99-.05,2.59-.09,5.28.56,7.72.62,2.34,1.98,4.57,3.28,6.73,1.54,2.54,3,4.97,3.37,7.49h-4.64v1.18c0,.85.55,1.09,1.18,1.16v.03h3.46c-.37,2.52-1.83,4.95-3.37,7.49-1.31,2.16-2.66,4.4-3.28,6.73-.65,2.45-.61,5.13-.56,7.72.06,3.37.11,6.56-1.29,8.99-1.43,2.48-4.25,4.03-7.22,5.67-2.25,1.24-4.58,2.52-6.34,4.28-1.76,1.76-3.04,4.08-4.28,6.34-1.64,2.98-3.19,5.79-5.67,7.22-2,1.15-4.56,1.31-7.03,1.31-.65,0-1.3-.01-1.96-.02-.67-.01-1.34-.02-2-.02-1.74,0-3.79.07-5.72.59-2.34.62-4.57,1.98-6.73,3.28-2.94,1.78-5.72,3.46-8.67,3.46Z"/>
        <path d="M497.67,2.36c2.63,0,5.27,1.6,8.06,3.29,2.23,1.35,4.54,2.75,7.04,3.41,2.06.55,4.2.63,6.03.63.67,0,1.35-.01,2.03-.02.65-.01,1.29-.02,1.94-.02,2.31,0,4.68.14,6.44,1.16,2.19,1.27,3.67,3.94,5.23,6.77,1.28,2.32,2.6,4.72,4.48,6.6,1.88,1.88,4.28,3.2,6.6,4.48,2.83,1.56,5.5,3.03,6.77,5.23,1.24,2.14,1.19,5.17,1.13,8.37-.05,2.68-.09,5.44.6,8.05.67,2.5,2.06,4.81,3.41,7.04,1.18,1.96,2.32,3.84,2.9,5.7h-4.34v2.36s.03,2.24,2.36,2.36h0s.2,0,.2,0h.54s1.24,0,1.24,0c-.58,1.86-1.71,3.74-2.9,5.7-1.35,2.23-2.75,4.54-3.41,7.04-.7,2.61-.65,5.37-.6,8.05.06,3.2.11,6.23-1.13,8.37-1.27,2.19-3.94,3.67-6.77,5.23-2.32,1.28-4.72,2.6-6.6,4.48s-3.2,4.28-4.48,6.6c-1.56,2.83-3.03,5.5-5.23,6.77-1.75,1.01-4.13,1.15-6.44,1.15-.64,0-1.29-.01-1.94-.02-.68-.01-1.35-.02-2.03-.02-1.82,0-3.96.07-6.02.63-2.5.67-4.81,2.06-7.04,3.41-2.79,1.69-5.43,3.29-8.06,3.29-17.86,0-26.93-1.19-35.71-2.34-8.93-1.17-18.16-2.38-36.33-2.38s-27.4,1.21-36.33,2.38c-8.78,1.15-17.86,2.34-35.71,2.34s-26.93-1.19-35.71-2.34c-8.93-1.17-18.16-2.38-36.33-2.38s-27.4,1.21-36.33,2.38c-8.78,1.15-17.86,2.34-35.72,2.34s-26.94-1.19-35.72-2.34c-8.93-1.17-18.17-2.38-36.33-2.38s-27.4,1.21-36.33,2.38c-8.78,1.15-17.86,2.34-35.72,2.34-2.63,0-5.27-1.6-8.06-3.29-2.23-1.35-4.54-2.75-7.04-3.41-2.06-.55-4.2-.63-6.03-.63-.67,0-1.35.01-2.03.02-.65.01-1.29.02-1.93.02-2.31,0-4.68-.14-6.44-1.16-2.19-1.27-3.67-3.94-5.23-6.77-1.28-2.32-2.6-4.72-4.48-6.6-1.88-1.88-4.28-3.2-6.6-4.48-2.83-1.56-5.5-3.03-6.77-5.23-1.24-2.14-1.19-5.17-1.13-8.37.05-2.68.09-5.44-.6-8.05-.67-2.5-2.06-4.81-3.41-7.04-1.18-1.96-2.32-3.84-2.9-5.7h1.98v-4.73h-1.98c.58-1.86,1.71-3.74,2.9-5.7,1.35-2.23,2.75-4.54,3.41-7.04.7-2.61.65-5.37.6-8.05-.06-3.2-.11-6.23,1.13-8.37,1.27-2.19,3.94-3.67,6.77-5.23,2.32-1.28,4.72-2.6,6.6-4.48,1.88-1.88,3.2-4.28,4.48-6.6,1.56-2.83,3.03-5.5,5.23-6.77,1.75-1.02,4.13-1.15,6.44-1.15.64,0,1.29.01,1.94.02.68.01,1.35.02,2.03.02,1.82,0,3.96-.07,6.02-.63,2.5-.67,4.81-2.06,7.04-3.41,2.79-1.69,5.43-3.29,8.06-3.29,17.86,0,26.93,1.19,35.71,2.34,8.93,1.17,18.16,2.38,36.33,2.38s27.4-1.21,36.33-2.38c8.78-1.15,17.86-2.34,35.71-2.34s26.93,1.19,35.71,2.34c8.93,1.17,18.16,2.38,36.33,2.38s27.4-1.21,36.33-2.38c8.78-1.15,17.86-2.34,35.72-2.34s26.94,1.19,35.72,2.34c8.93,1.17,18.17,2.38,36.33,2.38s27.4-1.21,36.33-2.38c8.78-1.15,17.86-2.34,35.72-2.34M497.67,0c-36.02,0-36.02,4.73-72.05,4.73S389.6,0,353.57,0s-36.02,4.73-72.05,4.73S245.51,0,209.49,0s-36.02,4.73-72.04,4.73S101.42,0,65.4,0c-5.64,0-10.5,5.39-15.71,6.78-1.69.45-3.54.55-5.41.55-1.32,0-2.65-.05-3.96-.05-2.76,0-5.43.2-7.62,1.47-4.78,2.77-6.31,9.86-10.2,13.75-3.88,3.88-10.98,5.41-13.75,10.2-2.73,4.72-.53,11.61-1.97,17-1.39,5.21-6.78,10.07-6.78,15.71h4.73H0h4.73s-4.73,0-4.73,0h4.73H0c0,5.64,5.39,10.5,6.78,15.71,1.44,5.39-.76,12.28,1.97,17,2.77,4.78,9.86,6.31,13.75,10.2,3.88,3.88,5.41,10.98,10.2,13.75,2.19,1.27,4.86,1.47,7.62,1.47,1.31,0,2.64-.05,3.96-.05,1.88,0,3.72.09,5.41.55,5.21,1.39,10.07,6.78,15.71,6.78,36.02,0,36.02-4.73,72.05-4.73s36.02,4.73,72.05,4.73,36.02-4.73,72.05-4.73,36.02,4.73,72.04,4.73,36.02-4.73,72.04-4.73,36.02,4.73,72.04,4.73c5.64,0,10.5-5.39,15.71-6.78,1.69-.45,3.54-.55,5.41-.55,1.32,0,2.65.05,3.96.05,2.76,0,5.43-.2,7.62-1.47,4.78-2.77,6.31-9.86,10.2-13.75,3.88-3.88,10.98-5.41,13.75-10.2,2.73-4.72.53-11.61,1.97-17,1.39-5.21,6.78-10.07,6.78-15.71,0,0-4.73,0-4.73,0h4.73c0-5.64-5.39-10.5-6.78-15.71-1.44-5.39.76-12.28-1.97-17-2.77-4.78-9.86-6.31-13.75-10.2s-5.41-10.98-10.2-13.75c-2.19-1.27-4.86-1.47-7.62-1.47-1.31,0-2.64.05-3.96.05-1.88,0-3.72-.09-5.41-.55-5.21-1.39-10.07-6.78-15.71-6.78h0ZM563.08,65.4h-4.73,4.73ZM563.08,65.4h-4.73,4.73Z"/>
      </g>
      <g>
        <path class="cls-2" d="M85.93,72.96c-.04-.39.73-.86,1.38-.9,1.98-.65,4.77-.77,6.79-1.42-.34-.86-.77-2.97-.82-3.74-.04-.95.47-1.72,1.2-1.76.13,0,.3.04.39.04.09.56.04,1.29.04,2.11l.09,2.11c.04.56.17.95.39,1.16.73.47,4.17-.6,6.28-.73.77-.04,1.25.04,1.5.26.3.22.39.52.43.69,0,.17-.09.3-.39.34-5.33.65-10.96,1.5-15.82,2.45-.6.09-1.12-.13-1.46-.6ZM88.21,62.42c-.47-1.94-1.03-6.45-1.03-8.51-.52-.52-.52-1.03,0-1.55l.52-.52c2.67-.77,7.09-.77,9.25-1.29.82-.21,1.16-.13,1.2,0,.09.56-.17.99-.82,1.38-2.49.47-7.7.77-8.99,1.08l1.29,8.3c2.71.47,6.49-1.08,9.63-1.98l.9-.3c.39.39.26.69-.52,1.46-.26.56-5.29,1.29-9.25,2.62-.65.22-1.08.34-1.16.34-.52,0-.52-.52-1.03-1.03ZM92.34,92.69c-.52-1.94-1.03-5.16-1.03-7.31-.52-.43-.52-.95,0-1.46l.52-.47c2.97-1.03,5.93-.52,9.42-2.06l-1.42-4.6c-1.42,0-2.45.17-3.48.43-1.38.17-2.49.69-3.78.69-.64,0-1.12-.21-1.25-.69,0-.04.39-.22,1.16-.47,2.41-.82,5.81-1.55,7.35-1.55.95,0,1.12.17,1.38,1.2.43,1.42,1.29,3.4,1.38,4.9.04.99-.13,1.38-.73,1.63-1.72.73-7.74,1.2-9.37,1.63l1.2,6.84c2.79.47,5.59-1.85,8.69-2.92l.95-.3c.39.39.26.69-.52,1.46-.3.6-4.39,2.41-8.38,3.65-.65.21-1.03.34-1.16.34-.52,0-.52-.52-.9-.95Z"/>
        <path class="cls-2" d="M107.99,79.02c-1.63-1.46-2.45-3.18-2.45-5.03,0-4.13,3.57-8.47,7.95-9.8.6-.13.77-.13.9-.04.13.21.09.6-.09.86.99.52,2.06.52,3.14,1.03,1.29.6,2.15,3.18,2.15,6.45,0,5.03-2.84,8.47-7.09,8.47-1.63,0-3.14-.64-4.52-1.93ZM116.38,77.99c1.33-1.25,2.02-3.1,2.02-5.16,0-1.33-.3-2.84-.95-4.34-.6-1.33-4.13-2.58-5.8-1.98-1.2.47-4.21,4.08-4.21,5.03-.26.73-.39,1.38-.39,2.15,0,3.18,2.62,6.06,5.59,6.06,1.38,0,2.62-.6,3.74-1.76ZM125.32,82.59c-.21-.73-.52-1.76-.6-2.49-.26-3.7-.13-5.89.52-10.45l-.04-3.14c0-1.68.21-2.88.64-4,.34-.3.56-.39.69-.39.21,0,.3.13.34.39.21.73.04,1.85,0,2.15l-.09,6.06,8.21.56c.56,0,1.42.69,1.42,1.2,0,.6-.43.43-.9.43-1.12,0-2.75-.43-4.34-.56-1.08,0-3.18.13-4.64.04-.26,1.2-.26,2.84-.26,4.39,0,.6.34,2.71.39,4.3.04,1.59-.17,2.19-.86,2.19-.17,0-.34-.21-.47-.69Z"/>
        <path class="cls-2" d="M137.06,72.96c-.04-.39.73-.86,1.38-.9,1.98-.65,4.77-.77,6.79-1.42-.34-.86-.77-2.97-.82-3.74-.04-.95.47-1.72,1.2-1.76.13,0,.3.04.39.04.09.56.04,1.29.04,2.11l.09,2.11c.04.56.17.95.39,1.16.73.47,4.17-.6,6.28-.73.77-.04,1.25.04,1.5.26.3.22.39.52.43.69,0,.17-.09.3-.39.34-5.33.65-10.96,1.5-15.82,2.45-.6.09-1.12-.13-1.46-.6ZM137.96,60.06c-.26-.52-.3-1.16-.3-1.89,0-3.83,3.53-8,7.18-8.51,2.62-.39,5.8,3.35,5.8,6.79,0,.34-.04.64-.13.9-.6,2.67-4.94,5.59-8.38,5.59-1.93,0-3.44-.99-4.17-2.88ZM143.68,61.35c2.11,0,5.46-3.35,5.46-5.46,0-2.49-3.53-5.55-5.46-4.69.34.13.52.34.52.64,0,.47-.43.9-.99.9-2.15,0-4.3,2.49-4.3,5.07,0,2.11,1.55,3.57,3.74,3.57.3,0,.69,0,1.03-.04ZM143.47,92.69c-.52-1.94-1.03-5.16-1.03-7.31-.52-.43-.52-.95,0-1.46l.52-.47c2.97-1.03,5.93-.52,9.42-2.06l-1.42-4.6c-1.42,0-2.45.17-3.48.43-1.38.17-2.49.69-3.78.69-.64,0-1.12-.21-1.25-.69,0-.04.39-.22,1.16-.47,2.41-.82,5.81-1.55,7.35-1.55.95,0,1.12.17,1.38,1.2.43,1.42,1.29,3.4,1.38,4.9.04.99-.13,1.38-.73,1.63-1.72.73-7.74,1.2-9.37,1.63l1.2,6.84c2.79.47,5.59-1.85,8.69-2.92l.95-.3c.39.39.26.69-.52,1.46-.3.6-4.39,2.41-8.38,3.65-.65.21-1.03.34-1.16.34-.52,0-.52-.52-.9-.95Z"/>
        <path class="cls-2" d="M157.23,77.34c-.17-.04-.39-.26-.64-.77-.82-1.59-1.25-6.75-1.25-8.43,0-1.5.56-2.37,1.68-2.45.39-.04,1.38-.17,1.93-.13.56.04,1.42.3,2.19.13.13-.04.26.21.26.43,0,.82-.56,1.2-1.25,1.07-.39,0-1.08-.21-1.59-.17-.82.09-1.42.13-1.55.39-.13.26-.13.6-.13,1.03,0,1.55.3,5.25.82,7.18.26.43.65.65,1.38.65,1.03,0,2.84-.6,3.78-.43.26.04.69.56.69.9,0,.17-.09.3-.22.39-.43,0-.95-.04-1.38,0-.82.13-1.93.6-2.58.6-.26,0-1.68-.3-2.15-.39ZM165.4,76.87c-.9-2.32-1.46-8.04-1.46-10.06,0-.9.52-1.46,1.42-1.46.43,0,.9.17,1.76.09,1.29-.13,2.49-.04,3.05-.17.52-.13.17,1.42-.69,1.42-1.76,0-2.67-.13-4.17.17.04,2.84.86,6.75,1.55,9.42l.34.26,4-.6c.69-.04.43.9-.13,1.2l-4.43.95c-.43,0-1.08-.64-1.25-1.2ZM174.77,80.96c-.26-.56-.52-1.38-.6-1.98-.21-2.62-.09-5.68.52-10.23l-.04-2.79c0-1.12.17-1.98.64-2.75.34-.21.52-.3.69-.3.21,0,.3.09.34.3.26.47,0,1.25,0,1.51l-.09,5.16,5.16.47c.04-1.25.04-2.19.13-2.67.21-1.33.56-2.88.64-3.78.13-1.29.13-1.72.26-2.06,0-.3,1.46-.82,1.46-.21-.21.69-.26,1.2-.26,2.54-.04.86-.09,1.68-.26,2.54-.17.99-.39,2.37-.47,3.83.43.17.73.69.73,1.08,0,.56-.43.47-.86.47l-.09,3.27.09,2.28c0,.95-.3,3.83-.43,4.21-.04.13-.17.21-.39.21-.39,0-.9-.3-1.25-.64l.52-6.15c.09-.99.09-2.15.13-3.35-.6-.17-1.12-.34-1.59-.39-1.07,0-2.24.13-3.78,0-.26,1.25-.26,3.4-.26,4.95,0,.47.34,2.11.39,3.31.04,1.25-.17,1.68-.86,1.68-.17,0-.34-.13-.47-.47Z"/>
        <path class="cls-2" d="M191.15,77.6c.43-1.76.6-4.51.73-6.75.09-1.2-.04-2.24,0-3.35-1.63,0-3.65.52-4.73.52-.69,0-1.46-.73-1.46-1.08,0-.17.17-.34.6-.34.6-.09,1.38,0,1.94,0,.9,0,3.22-.17,4.64-.17,1.25,0,.64,2.06.47,3.27-.26,2.71-.47,5.25-.95,7.87-.13.86-.6,1.81-1.08,1.81-.52,0-.21-1.16-.17-1.76ZM197.99,80.78c.43-1.16,1.08-2.49,1.46-4,.52-1.76,1.25-3.7,1.46-5.55.13-1.25.47-2.58.34-3.74-.56,0-1.03.13-1.63.13s-1.76.43-2.45.43c-.43,0-1.29-.69-1.29-1.03,0-.13.09-.21.3-.3,1.94-.21,4.17-.47,6.15-.3.99.73.77,2.32.47,3.53-.73,2.62-1.59,6.06-2.54,8.56-.26.73-.52,1.42-.9,2.28-.26.43-.73.69-1.08.69s-.56-.26-.3-.69ZM209.77,62.17c.21.86-.04,2.11,0,3.1.04.52.13,1.03.17,1.81l.3,4.34c1.72-1.03,4.56-.95,6.49-.99.39,0,.73-.13,1.03-.13.43,0,1.12.6,1.12.99,0,.13-.04.21-.17.34-2.15.09-6.15.47-7.91,1.16-.39.17-.56.34-.47.73.34,1.5.26,3.18.34,4.82.04.86.56,2.19.56,3.14,0,.86-.9,2.15-1.46,1.59l-1.72-20.47c.04-1.25,1.42-1.55,1.72-.43Z"/>
        <path class="cls-2" d="M227.23,67.71c-.56-.13-1.12-.17-1.72-.17-1.81,0-3.74.47-5.55.69-.65,0-1.25-.43-1.25-.95,0-.17.09-.34.26-.52,4.3-.73,7.14-.9,9.25-.56.52.17.69.47.69,1.38,0,1.68-1.03,4.21-1.5,6.66.21-.21.52-.56.99-.52l.99.52c1.2.73,2.49,1.89,3.48,2.58.56.52,2.19,1.98,3.18,2.41.47.26.6.47.6,1.5-1.85-.86-2.92-1.5-4.82-2.97-1.03-.73-2.37-1.42-4.43-2.49-1.03,1.46-1.03,3.96-1.98,5.55-.47.69-.95.9-1.59.6,1.46-4.21,3.05-10.45,3.4-13.72ZM241.68,78.12c-.3-.43-.73-1.08-.95-1.55-.77-2.45-1.08-4.94-1.03-7.83l-.69-3.18c-.21-1.08-.21-1.93.04-2.58.26-.26.43-.3.6-.34.17,0,.34.09.39.21.34.43.26,1.16.3,1.38l.95,4.99c-.04,1.25.26,4.08.47,5.12.09.34.73,1.72.99,2.71.3,1.03.09,1.42-.56,1.51-.13,0-.34-.13-.52-.43Z"/>
        <path class="cls-2" d="M255.91,79.02c-1.63-1.46-2.45-3.18-2.45-5.03,0-4.13,3.57-8.47,7.95-9.8.6-.13.77-.13.9-.04.13.21.09.6-.09.86.99.52,2.06.52,3.14,1.03,1.29.6,2.15,3.18,2.15,6.45,0,5.03-2.84,8.47-7.09,8.47-1.63,0-3.14-.64-4.52-1.93ZM264.3,77.99c1.33-1.25,2.02-3.1,2.02-5.16,0-1.33-.3-2.84-.95-4.34-.6-1.33-4.13-2.58-5.8-1.98-1.2.47-4.21,4.08-4.21,5.03-.26.73-.39,1.38-.39,2.15,0,3.18,2.62,6.06,5.59,6.06,1.38,0,2.62-.6,3.74-1.76ZM275.05,82.25c-.3-.52-.73-1.25-.95-1.81-.77-2.84-1.08-5.68-1.03-9.03l-.69-3.65c-.21-1.25-.21-2.24.04-3.01.26-.26.43-.34.6-.39.17,0,.34.09.39.26.34.47.26,1.33.3,1.59l.95,5.76c-.04,1.42.26,4.73.47,5.89.09.43.73,1.98.99,3.14.3,1.2.09,1.63-.56,1.72-.13,0-.34-.13-.52-.47Z"/>
        <path class="cls-2" d="M296.59,87.71c-.77-2.54-1.63-5.98-2.15-9.85-2.58,0-4.73,1.08-6.32,1.55-.3.09-.56.09-.9.09-.39-.43-.34-.86.21-1.33.56-.56,2.71-1.29,4.34-1.59,4.39-.82,6.67-1.25,8.64-1.16.6,0,1.2.13,1.72.21.73.22,1.38,1.03.82,1.42-5.2-.39-5.68-.13-6.58.34-.13.09-.21.3-.17.82.21,2.62.86,5.89,1.55,8.08.3,1.12.9.82.82,1.85-.43.09-.77.13-1.03.09-.39-.04-.69-.17-.95-.52ZM289.71,69.3c-1.63-1.46-2.45-3.18-2.45-5.03,0-4.13,3.61-8.47,8.08-9.8.56-.17.77-.17.82-.04.13.21.13.6,0,.86.99.47,2.06.47,3.14.99,1.29.65,1.55,3.23,1.55,6.41,0,5.12-2.24,8.47-6.58,8.47-1.63,0-3.14-.6-4.56-1.85ZM298.22,68.27c1.12-1.33,1.33-3.1,1.33-5.16,0-1.38.3-2.88-.34-4.34-.6-1.33-4.08-2.62-5.76-1.98-1.2.47-4.13,4.08-4.13,5.03-.3.65-.43,1.38-.43,2.15,0,3.18,2.58,6.06,5.55,6.06,1.38,0,2.75-.52,3.78-1.76ZM311.25,82.89l-.77-3.96c-1.29-6.32-1.89-9.8-2.24-12.9-.13-1.33-.13-2.67-.17-3.87-.13-.9.6-2.32,1.03-2.37.26-.04.47.21.6.6.39,1.08.13,2.28.09,3.61-.13,2.67.26,5.68.77,7.83.17,1.59.52,3.27.95,4.94.73,2.67.99,4.43,1.12,5.76-.09.99-.43,1.72-.82,1.76-.26.04-.52-.56-.56-1.42Z"/>
        <path class="cls-2" d="M315.38,80.44c.99-1.2,3.87-4.17,4.08-4.9-.3-.21-.43-.43-.39-.73.13-.56,1.12-.17,1.68-.69.77-.73,2.54-3.05,2.54-3.05-3.48,0-6.71.21-9.72,0-.13,0-.43.13-.69.13-.3,0-.52-.21-.69-.69,0-.3.47-.56,1.12-.65.99-.17,4.13-.39,4.94-.39,1.29,0,2.45-.13,3.53-.34.95,0,2.24,0,2.79.04,1.12.09,1.42,1.12.6,2.11l-3.18,3.87c3.01,1.46,5.46,2.79,6.67,3.78.56.56.82,1.08.77,1.46-.04.17-.13.3-.26.43l-8.17-4.64c-1.25.64-2.88,3.66-3.96,4.64-.65.52-1.68.95-2.24.56-.09-.13.09-.43.56-.95ZM323.85,64.92c-1.63-.43-4.47-2.02-5.2-2.24-.65-.21-1.81-1.2-2.49-1.68-.21-.17-.3-.39-.26-.6.09-.47.86-.77,1.25-.64l2.02,1.42c1.42.82,3.91,1.68,5.2,2.28.6.69.77,1.29.39,1.5-.13.13-.43.09-.9-.04ZM335.55,81.39c-.3-.52-.73-1.25-.95-1.81-.77-2.84-1.07-5.68-1.03-9.03l-.69-3.66c-.21-1.25-.21-2.24.04-3.01.26-.26.43-.34.6-.39.17,0,.34.09.39.26.34.47.26,1.33.3,1.59l.95,5.76c-.04,1.42.26,4.73.47,5.89.09.43.73,1.98.99,3.14.3,1.2.09,1.63-.56,1.72-.13,0-.34-.13-.52-.47Z"/>
        <path class="cls-2" d="M355.88,80.18c0-.56.3-1.12.3-1.68,0-3.66.43-8.73.99-11.44-1.81-.47-6.84.65-8.69.82-.21,0-.43-.04-.65-.09-.56-.3-.86-.52-.86-.82,0-.43.52-.73,1.42-.73,2.45-.65,7.4-1.16,9.03-.99,1.16.17,1.72.95,1.42,2.06-.82,3.4-1.25,8.82-1.12,13.85,0,.52-.17.82-.52.82-.64,0-1.33-.99-1.33-1.81ZM368.48,82.25c-.3-.52-.73-1.25-.95-1.81-.77-2.84-1.08-5.68-1.03-9.03l-.69-3.65c-.21-1.25-.21-2.24.04-3.01.26-.26.43-.34.6-.39.17,0,.34.09.39.26.34.47.26,1.33.3,1.59l.95,5.76c-.04,1.42.26,4.73.47,5.89.09.43.73,1.98.99,3.14.3,1.2.09,1.63-.56,1.72-.13,0-.34-.13-.52-.47Z"/>
        <path class="cls-2" d="M374.59,73.39c-1.12-1.03-1.94-3.57-1.94-6.06,0-3.35,1.38-5.8,3.53-6.11.39-.04.64.13.64.39s-.17.56-.43.69c-.69.43-1.12.73-1.2.95-.77,1.08-1.08,2.28-1.12,4.21-.13,3.01,1.25,5.03,3.78,5.76.43.13.82.21,1.2.21,2.97,0,5.93-4.26,5.93-8.34-.95-2.58-4.47-4.51-8.56-4.51-.69,0-1.5.13-1.98.13-.3,0-.47-.13-.47-.34,0-.6,1.16-1.16,2.45-1.16,2.49,0,6.19,1.03,7.87,2.36,1.33.99,2.02,2.45,2.02,4.08,0,4.34-3.7,9.25-7.22,9.67-1.08,0-3.7-1.12-4.51-1.93ZM395.44,88.52c-.09-.82-.21-2.37-.47-3.61-.21-1.5-.39-2.54-.69-3.65-.3-.13-.64-.17-.99-.17-1.2,0-2.36.34-4.34,1.29-1.46.69-2.28.99-2.92.99-.82,0-1.59-.3-1.59-.77,0-.13.04-.22.13-.34,1.76-1.12,7.01-2.54,9.46-2.54,1.16,0,1.59.22,1.89,1.08.47,1.2.77,4.99.77,8.99-.65,0-1.16-.52-1.25-1.25ZM387.57,66.42c0-.77.3-1.12.99-1.12,1.08-.21,3.48-.39,4.51-.9l.13-.04-.09-1.85c0-.6.39-4.39.39-5.03,0-.47.26-.77.69-.77.21,0,.43.04.64.21v4.99l.09,2.11c.3,0,.65.39.65.86,0,.26-.26.52-.52.52h-.09c.13,1.81.26,3.7.47,5.38,0,.99-.39,1.55-1.12,1.55-.3.04-.56-.39-.56-.9,0-1.5-.22-3.7-.39-5.59l-.3.09-4.86.65c-.3.09-.52.04-.65-.13Z"/>
        <path class="cls-2" d="M406.45,63.93c-1.81,0-5.03.13-6.79.47-.73.09-.99-.56-.99-.9,0-.3.26-.52.73-.56l6.62-.6c-.09-1.2-.64-4.08-.82-5.63-.09-.82.3-1.5.82-1.5.43,0,.65.21.77.77.3,1.55.6,4.9.9,6.02l6.19-.56c.3-.04.43.17.43.34,0,.73-.43,1.33-1.2,1.55-1.42.43-4.6-.22-4.94.43.04.21.09.73.04,1.03-.04.34-.34.43-.6.43-.9,0-1.38-.26-1.16-1.29ZM403.7,78.38c-.17-.56-.3-1.16-.3-1.72,0-3.57,3.05-7.35,6.32-7.83,2.32-.34,5.16,3.14,5.16,6.28,0,.3-.04.56-.09.82-.65,2.41-4.52,5.07-7.4,5.07-1.81,0-3.01-.9-3.7-2.62ZM408.73,79.41c1.76,0,4.64-2.92,4.64-4.82,0-2.24-3.05-5.03-4.64-4.21.3.17.47.34.47.6,0,.47-.39.86-.9.86-1.98,0-3.61,2.11-3.61,4.51,0,1.89,1.12,3.14,3.14,3.14.26,0,.6-.04.9-.09ZM421.29,78.59c-.26-.43-.52-1.03-.6-1.5-.21-1.94,0-4.3.52-7.31.09-.64-.04-1.38-.04-2.11,0-.86.09-1.55.65-2.24.3-.43.82-.43,1.03,0,.22.39,0,1.03,0,1.25l-.09,3.61,5.2.47c0-.56.04-1.08.09-1.59.09-.99.56-2.41.65-3.05.13-1.03.17-1.33.26-1.59.26-.77,1.46-.6,1.46-.17s-.3.95-.26,1.94c.04,1.07-.34,2.84-.6,4.69.34.21.6.69.6,1.03,0,.56-.39.47-.82.47-.09.77-.13,1.55-.13,2.28,0,.56.09,1.12.09,1.72,0,.73-.17,2.67-.26,2.97-.09.26-.26.39-.56.39-.39,0-1.25-.43-1.2-.86l.47-4.26c.09-.73.13-1.55.17-2.41-.56-.13-1.16-.34-1.63-.39-1.08,0-2.24.13-3.78,0-.26.86-.26,2.11-.26,3.22,0,.39.34,1.63.39,2.54.04.95-.17,1.29-.86,1.29-.17,0-.34-.13-.47-.39Z"/>
        <path class="cls-2" d="M436.55,71.54c-.86-.26-1.46-.95-1.55-2.36-.21-3.18-.82-6.75-.82-10.62,0-1.08,1.89-1.33,2.84-1.46,4.04-.43,6.92-.39,9.63.3.69.17,1.2.6,1.2,1.59,0,.17-.04.52-.3.52-1.46,0-3.01-1.42-4.64-1.42-2.41,0-4.94.69-7.05.82-.47,3.96.65,7.87.9,10.54.13.13,2.75.82,3.22.86,2.32.26,7.01-.09,8.9.47.52.17.77.6.77.9,0,.21-.13.39-.43.39-3.27-.3-6.19.39-9.25,0-.09-.04-2.75-.34-3.44-.52ZM443.9,89.56c0-2.24.3-4.82,1.03-9.2-3.27,0-6.67-.56-9.46-.73-.73,0-1.03-.13-1.03-.56.09-.43.52-.82,1.03-.82,1.29,0,3.57.3,8.3.73,5.5,0,7.65.13,8.26.43.47.47.56.69.56,1.33-1.81.39-3.61.17-6.45-.39-.56.56-.56,8.64-.56,9.72,0,2.79-1.12,1.68-1.68-.52Z"/>
        <path class="cls-2" d="M461.06,80.18c0-.56.3-1.12.3-1.68,0-3.66.43-8.73.99-11.44-1.81-.47-6.84.65-8.69.82-.21,0-.43-.04-.65-.09-.56-.3-.86-.52-.86-.82,0-.43.52-.73,1.42-.73,2.45-.65,7.4-1.16,9.03-.99,1.16.17,1.72.95,1.42,2.06-.82,3.4-1.25,8.82-1.12,13.85,0,.52-.17.82-.52.82-.64,0-1.33-.99-1.33-1.81ZM473.66,82.25c-.3-.52-.73-1.25-.95-1.81-.77-2.84-1.08-5.68-1.03-9.03l-.69-3.65c-.21-1.25-.21-2.24.04-3.01.26-.26.43-.34.6-.39.17,0,.34.09.39.26.34.47.26,1.33.3,1.59l.95,5.76c-.04,1.42.26,4.73.47,5.89.09.43.73,1.98.99,3.14.3,1.2.09,1.63-.56,1.72-.13,0-.34-.13-.52-.47Z"/>
      </g>
    </g>
  </g>
</svg>