<?xml version="1.0" encoding="UTF-8"?>
<svg id="_레이어_2" data-name="레이어 2" xmlns="http://www.w3.org/2000/svg" viewBox="0 0 869.41 1068.37">
  <defs>
    <style>
      .cls-1 {
        fill: #fff;
      }
    </style>
  </defs>
  <g id="_레이어_1-2" data-name="레이어 1">
    <g>
      <path class="cls-1" d="M823.75,1066.65c-97.22,0-146.64-2.34-194.44-4.61-47.84-2.27-97.3-4.61-194.6-4.61-97.3,0-146.76,2.34-194.6,4.61-47.8,2.27-97.22,4.61-194.44,4.61-7.82,0-13.56-6.77-19.12-13.32-1.85-2.18-3.6-4.24-5.43-6.07-1.83-1.83-3.89-3.58-6.07-5.43-6.55-5.56-13.32-11.3-13.32-19.12,0-120.85,2.34-182.29,4.61-241.7,2.27-59.45,4.61-120.92,4.61-241.84s-2.34-182.39-4.61-241.84C4.07,237.92,1.73,176.48,1.73,55.63c0-10.8,8.62-18.79,16.96-26.52,1.88-1.75,3.66-3.39,5.34-5.08s3.33-3.46,5.08-5.35C36.84,10.35,44.83,1.73,55.63,1.73c95.97,0,144.76,2.34,191.95,4.61,47.22,2.27,96.06,4.61,192.11,4.61s144.89-2.34,192.11-4.61c47.18-2.27,95.97-4.61,191.95-4.61,7.82,0,13.56,6.77,19.12,13.31,1.85,2.18,3.6,4.24,5.43,6.07,1.83,1.83,3.89,3.58,6.07,5.43,6.55,5.55,13.32,11.3,13.32,19.12,0,122.1-2.34,184.17-4.61,244.2-2.27,60.06-4.61,122.16-4.61,244.33s2.34,184.27,4.61,244.33c2.27,60.03,4.61,122.1,4.61,244.2,0,7.82-6.77,13.56-13.32,19.12-2.18,1.85-4.24,3.6-6.07,5.43-1.83,1.83-3.58,3.89-5.43,6.07-5.55,6.55-11.3,13.31-19.12,13.31Z"/>
      <path d="M823.75,3.46c7.02,0,12.5,6.46,17.8,12.71,1.79,2.11,3.64,4.29,5.52,6.17,1.88,1.88,4.06,3.73,6.17,5.52,6.25,5.3,12.71,10.78,12.71,17.8,0,122.07-2.34,184.12-4.61,244.13-2.27,60.08-4.61,122.2-4.61,244.39s2.34,184.32,4.61,244.39c2.26,60.01,4.61,122.07,4.61,244.13,0,7.02-6.46,12.5-12.71,17.8-2.11,1.79-4.29,3.64-6.17,5.52-1.88,1.88-3.73,4.06-5.52,6.17-5.3,6.25-10.78,12.71-17.8,12.71h0c-97.16,0-146.56-2.34-194.34-4.61-47.86-2.27-97.36-4.61-194.7-4.61s-146.83,2.35-194.69,4.61c-47.78,2.26-97.18,4.61-194.36,4.61-7.02,0-12.5-6.46-17.8-12.71-1.79-2.11-3.64-4.29-5.52-6.17-1.88-1.88-4.06-3.73-6.17-5.52-6.25-5.3-12.71-10.78-12.71-17.8,0-120.82,2.34-182.24,4.61-241.64,2.27-59.46,4.61-120.95,4.61-241.9,0-120.95-2.34-182.44-4.61-241.9-2.26-59.4-4.61-120.82-4.61-241.64,0-10.05,8.34-17.78,16.41-25.25,1.9-1.76,3.69-3.41,5.39-5.12,1.71-1.71,3.37-3.5,5.12-5.39,7.48-8.07,15.21-16.41,25.25-16.41,95.93,0,144.7,2.34,191.86,4.61,47.24,2.27,96.1,4.61,192.2,4.61s144.95-2.35,192.2-4.61c47.16-2.26,95.93-4.61,191.86-4.61M823.75,0c-192.03,0-192.03,9.22-384.06,9.22S247.66,0,55.63,0c-14.09,0-23.58,13.58-32.82,22.81C13.58,32.05,0,41.54,0,55.63c0,241.77,9.22,241.77,9.22,483.54,0,241.77-9.22,241.77-9.22,483.54,0,11.34,12.46,18.34,19.89,25.77,7.43,7.43,14.43,19.89,25.77,19.89,194.52,0,194.52-9.22,389.04-9.22s194.52,9.22,389.04,9.22c11.34,0,18.34-12.46,25.77-19.89,7.43-7.43,19.89-14.43,19.89-25.77,0-244.26-9.22-244.26-9.22-488.53,0-244.26,9.22-244.26,9.22-488.53,0-11.34-12.46-18.34-19.89-25.77-7.43-7.43-14.43-19.89-25.77-19.89h0Z"/>
    </g>
  </g>
</svg>