<?xml version="1.0" encoding="UTF-8"?>
<svg id="_레이어_2" data-name="레이어 2" xmlns="http://www.w3.org/2000/svg" viewBox="0 0 870.44 1319.16">
  <defs>
    <style>
      .cls-1 {
        fill: #fff;
      }
    </style>
  </defs>
  <g id="_레이어_1-2" data-name="레이어 1">
    <g>
      <path class="cls-1" d="M824.26,1317.24c-97.21,0-146.63-2.6-194.42-5.12-47.84-2.52-97.31-5.13-194.62-5.13s-146.78,2.61-194.62,5.13c-47.79,2.52-97.21,5.12-194.42,5.12-7.42,0-12.84-6.75-18.08-13.28-2.02-2.52-3.93-4.89-5.97-6.93-2.04-2.04-4.41-3.95-6.93-5.97-6.53-5.24-13.28-10.66-13.28-18.08,0-152.07,2.6-229.38,5.12-304.15,2.52-74.79,5.12-152.14,5.12-304.27s-2.61-229.48-5.12-304.27C4.53,285.53,1.92,208.22,1.92,56.15c0-10.26,8.49-17.83,16.7-25.15,2.28-2.04,4.44-3.96,6.42-5.94,1.98-1.98,3.91-4.14,5.94-6.42C38.31,10.41,45.88,1.92,56.14,1.92c95.96,0,144.75,2.6,191.93,5.12,47.23,2.52,96.07,5.13,192.13,5.13s144.9-2.61,192.13-5.13c47.18-2.52,95.96-5.12,191.93-5.12,7.42,0,12.84,6.75,18.08,13.28,2.02,2.52,3.93,4.89,5.97,6.93,2.04,2.04,4.42,3.95,6.93,5.97,6.53,5.24,13.28,10.66,13.28,18.08,0,153.32-2.6,231.26-5.12,306.64-2.52,75.41-5.13,153.38-5.13,306.77s2.61,231.36,5.13,306.77c2.52,75.38,5.12,153.32,5.12,306.64,0,7.42-6.75,12.84-13.28,18.08-2.52,2.02-4.89,3.93-6.93,5.97-2.04,2.04-3.95,4.41-5.97,6.93-5.24,6.53-10.66,13.28-18.08,13.28Z"/>
      <path d="M824.26,3.84c6.5,0,11.39,6.1,16.58,12.56,1.96,2.45,3.99,4.97,6.11,7.09,2.11,2.11,4.64,4.14,7.09,6.11,6.46,5.19,12.56,10.08,12.56,16.58,0,153.29-2.6,231.21-5.12,306.57-2.52,75.42-5.13,153.42-5.13,306.83s2.61,231.41,5.13,306.83c2.52,75.36,5.12,153.29,5.12,306.57,0,6.5-6.1,11.39-12.56,16.58-2.45,1.96-4.97,3.99-7.09,6.11-2.11,2.11-4.14,4.64-6.11,7.09-5.19,6.46-10.08,12.56-16.58,12.56-97.16,0-146.55-2.6-194.32-5.12-47.87-2.52-97.36-5.13-194.72-5.13s-146.86,2.61-194.72,5.13c-47.77,2.52-97.16,5.12-194.32,5.12-6.5,0-11.39-6.1-16.58-12.56-1.96-2.45-3.99-4.97-6.11-7.09-2.11-2.11-4.64-4.14-7.09-6.11-6.46-5.19-12.56-10.08-12.56-16.58,0-152.04,2.6-229.33,5.12-304.08,2.52-74.81,5.13-152.17,5.13-304.34s-2.61-229.53-5.13-304.34C6.45,285.48,3.84,208.19,3.84,56.14c0-9.4,8.17-16.68,16.06-23.72,2.2-1.96,4.48-3.99,6.5-6.02,2.02-2.02,4.05-4.3,6.02-6.5,7.04-7.9,14.32-16.06,23.72-16.06,95.91,0,144.67,2.6,191.82,5.12,47.25,2.52,96.12,5.13,192.23,5.13s144.98-2.61,192.23-5.13c47.15-2.52,95.91-5.12,191.82-5.12M824.26,0c-192.03,0-192.03,10.25-384.06,10.25S248.17,0,56.15,0c-14.09,0-23.22,14.46-32.45,23.69C14.46,32.92,0,42.06,0,56.14c0,304.21,10.25,304.21,10.25,608.42S0,968.77,0,1272.98c0,11.34,13.34,17.98,20.77,25.4,7.43,7.43,14.07,20.77,25.4,20.77,194.52,0,194.52-10.25,389.04-10.25s194.52,10.25,389.04,10.25c11.34,0,17.98-13.34,25.4-20.77,7.43-7.43,20.77-14.07,20.77-25.4,0-306.7-10.25-306.7-10.25-613.4s10.25-306.7,10.25-613.4c0-11.34-13.34-17.98-20.77-25.4-7.43-7.43-14.07-20.77-25.4-20.77h0Z"/>
    </g>
  </g>
</svg>