<?xml version="1.0" encoding="UTF-8"?>
<svg id="_레이어_2" data-name="레이어 2" xmlns="http://www.w3.org/2000/svg" viewBox="0 0 45.96 41.68">
  <defs>
    <style>
      .cls-1 {
        fill: #fff;
        stroke: #000;
        stroke-miterlimit: 10;
      }
    </style>
  </defs>
  <g id="_레이어_1-2" data-name="레이어 1">
    <g>
      <rect class="cls-1" x=".5" y="5.73" width="35.44" height="35.44" rx="6.63" ry="6.63"/>
      <path d="M11.49,15.38c.65,2.46-.17,5.09.81,7.51s3.11,3.59,4.59,5.55c.58.77,1.6,1.04,2.36.3,4.47-4.37,10.13-7.28,14.54-11.72s7.35-10.04,11.75-14.47c1.36-1.37-.76-3.49-2.12-2.12-4.4,4.43-7.35,10.05-11.75,14.47s-10.07,7.34-14.54,11.72l2.36.3c-1.32-1.76-3.62-3.11-4.42-5.2-.85-2.22-.06-4.84-.67-7.15-.49-1.86-3.39-1.07-2.89.8h0Z"/>
    </g>
  </g>
</svg>