<?xml version="1.0" encoding="UTF-8"?>
<svg id="_레이어_2" data-name="레이어 2" xmlns="http://www.w3.org/2000/svg" viewBox="0 0 21.72 44.76">
  <g id="_레이어_1-2" data-name="레이어 1">
    <path d="M4.52,17.77c.9-1.09,3.28-3.8,3.42-4.51-.33-.19-.43-.38-.43-.67.05-.52,1.09-.14,1.62-.62.67-.67,2.19-2.9,2.19-2.9-3.61,0-6.7.24-9.74.05-.24,0-.52.1-.76.1-.33,0-.57-.19-.81-.67-.05-.33.38-.57,1.05-.67,1-.19,4.18-.43,5.04-.43,1.33,0,2.52-.14,3.56-.33,1.05,0,2.28,0,2.9.05,1.14.1,1.57,1.14.9,2.19l-2.76,3.42c3.23,1.33,5.89,2.71,7.27,3.85.57.43.81.86.86,1.19,0,.14-.09.38-.43.24l-8.84-3.99c-1.14.71-2.14,3.23-3.18,4.09-.67.57-1.71.95-2.33.57-.09-.09.05-.43.48-.95ZM4.14,2.43c-.67-.19-1.95-.86-2.66-1.33-.14-.14-.19-.28-.14-.43C1.33.24,2.14-.14,2.52.05c.76.43,1.62.76,2.14,1,1.38.76,4.04,1.66,5.37,2.09.38.38.62.71.62.95,0,.29-.29.43-.86.33-1.71-.43-4.89-1.81-5.65-2ZM3.28,26.94c.14-.47.62-.9,1.85-1.57,3.04-.24,9.88-2.99,12.92-3.18l.95-.19c.86-.05,1.33.24,1.38.81-.29.38-1.57,1.09-2.42,1.19-4.42.57-11.59,2.95-12.97,3.09-.62.05-1.28.48-1.71-.14ZM11.69,43.15c-1-1-1.71-3.23-1.71-5.42,0-2.99,1.14-4.94,2.85-5.18.38-.05.57.09.57.33,0,.29-.14.57-.33.76-.43.24-.67.43-.81.71-.43,1.19-.67,2.28-.67,3.42,0,2.42,1.05,4.23,2.85,4.85.33.09.71.14,1.04.14,2.52,0,5.04-3.47,5.04-6.84-.67-2.04-4.23-3.94-7.27-3.94-.62,0-1.28.09-1.71.09-.29,0-.43-.09-.43-.33,0-.62,1.09-1.28,2.14-1.28,2.14,0,5.27,1.04,6.7,2.19,1.14.86,1.76,2.14,1.76,3.61,0,3.8-3.18,8.12-6.13,8.51-.95,0-3.18-1-3.9-1.62Z"/>
  </g>
</svg>