<?xml version="1.0" encoding="UTF-8"?>
<svg id="_레이어_2" data-name="레이어 2" xmlns="http://www.w3.org/2000/svg" viewBox="0 0 69.47 28.98">
  <g id="_레이어_1-2" data-name="레이어 1">
    <g>
      <path d="M9.41,12.26c-.62-.14-1.24-.19-1.9-.19-2,0-4.13.52-6.13.76-.71,0-1.38-.47-1.38-1.04,0-.19.09-.38.29-.57,4.75-.81,7.89-1,10.22-.62.57.19.76.52.76,1.52,0,1.85-1.14,4.66-1.66,7.37.24-.24.57-.62,1.09-.57l1.09.57c1.33.81,2.76,2.09,3.85,2.85.62.57,2.42,2.19,3.52,2.66.52.29.67.52.67,1.66-2.04-.95-3.23-1.66-5.32-3.28-1.14-.81-2.61-1.57-4.89-2.76-1.14,1.62-1.14,4.37-2.19,6.13-.52.76-1.04,1-1.76.67,1.62-4.66,3.37-11.55,3.75-15.16ZM25.37,23.76c-.33-.47-.81-1.19-1.05-1.71-.86-2.71-1.19-5.46-1.14-8.65l-.76-3.52c-.24-1.19-.24-2.14.05-2.85.28-.29.48-.33.67-.38.19,0,.38.09.43.24.38.48.29,1.28.33,1.52l1.05,5.51c-.05,1.38.29,4.51.52,5.65.1.38.81,1.9,1.09,2.99.33,1.14.1,1.57-.62,1.66-.14,0-.38-.14-.57-.48Z"/>
      <path d="M31.27,10.12l-2.52-.24c0-1.24.57-1.24,1.14-1.81,2.19.09,4.66,1.28,6.84.81-.09-2.14-.67-5.04-.67-7.32,0-.57-.43-1.57,0-1.57.62,0,1.05.52,1.38,1.52.67,2.38.52,6.6,1,7.75,1.85.14,4.47-.05,7.98-.62.48-.05.9.24.95.71.14.52-.05.95-.38,1-3.66.86-8.17.81-15.73-.24ZM33.03,24.19c0-2.14.67-4.37,1.66-5.51.62-.81,6.7-3.47,8.17-3.56,1.66-.14,2.71.67,3.61,2.47.62,1.33.95,2.42.95,3.47,0,1.9-1.05,3.42-3.42,5.46-2.04,1.66-4.18,2.42-6.22,2.42-3.28,0-4.75-1.38-4.75-4.75ZM42.86,25.8c1.85-1.62,2.57-2.95,2.57-4.7,0-.85-.19-1.76-.52-2.95-.81-1.24-1.47-1.71-2.28-1.71-.48,0-1,.14-1.76.48-1.76.85-3.52,1.95-4.18,2.57-.14.19-.57.19-.86,0-.05-.09-.09-.14-.14-.33-.05.09-.05.14-.09.19-.71.81-1.24,2.85-1.24,4.61,0,2.33,1.28,3.42,3.94,3.42,1.76,0,3.42-.57,4.56-1.57ZM57.21,28.22c-.24-.81-.57-1.95-.67-2.76-.29-4.09-.14-6.51.57-11.55l-.05-3.47c0-1.85.24-3.18.71-4.42.38-.33.62-.43.76-.43.24,0,.33.14.38.43.24.81.05,2.04,0,2.38l-.09,6.7,9.08.62c.62,0,1.57.76,1.57,1.33,0,.67-.48.47-1,.47-1.24,0-3.04-.47-4.8-.62-1.19,0-3.52.14-5.13.05-.29,1.33-.29,3.14-.29,4.85,0,.67.38,2.99.43,4.75.05,1.76-.19,2.42-.95,2.42-.19,0-.38-.24-.52-.76Z"/>
    </g>
  </g>
</svg>