<?xml version="1.0" encoding="UTF-8"?>
<svg id="_레이어_2" data-name="레이어 2" xmlns="http://www.w3.org/2000/svg" viewBox="0 0 57.21 32.57">
  <g id="_레이어_1-2" data-name="레이어 1">
    <g>
      <path d="M9.41,10.52c-.62-.14-1.24-.19-1.9-.19-2,0-4.13.52-6.13.76-.71,0-1.38-.48-1.38-1.05,0-.19.09-.38.29-.57,4.75-.81,7.89-1,10.22-.62.57.19.76.52.76,1.52,0,1.85-1.14,4.66-1.66,7.37.24-.24.57-.62,1.09-.57l1.09.57c1.33.81,2.76,2.09,3.85,2.85.62.57,2.42,2.19,3.52,2.66.52.29.67.52.67,1.66-2.04-.95-3.23-1.66-5.32-3.28-1.14-.81-2.61-1.57-4.89-2.76-1.14,1.62-1.14,4.37-2.19,6.13-.52.76-1.04,1-1.76.67,1.62-4.66,3.37-11.55,3.75-15.16ZM25.37,22.02c-.33-.48-.81-1.19-1.05-1.71-.86-2.71-1.19-5.46-1.14-8.65l-.76-3.52c-.24-1.19-.24-2.14.05-2.85.28-.29.48-.33.67-.38.19,0,.38.1.43.24.38.47.29,1.28.33,1.52l1.05,5.51c-.05,1.38.29,4.51.52,5.65.1.38.81,1.9,1.09,2.99.33,1.14.1,1.57-.62,1.66-.14,0-.38-.14-.57-.47Z"/>
      <path d="M34.93,6.15c.62-1.28,2.33-4.32,3.14-5.23.9-1,2.61-1.28,2.09-.38l-3.61,6.42c.38-.1,1.24-.19,1.57.14,1.47,1.28,2.19,3.94,3.42,5.99.86,1.43,2.71,2.66,4.28,3.18.57.86-1.71,1.28-3.04.52-.52-.28-1.76-1.28-2.38-2.23-1.47-2.19-2.66-6.32-4.32-6.32-.33,0-.76.1-.81.1-.95,1.66-1.9,5.61-2.38,8.36-.14.62-1.71,1.28-1.71.43,0-3.66,1.85-7.7,3.75-10.98ZM44.33,31.72c-1.95-1.24-3.47-3.09-3.47-4.61,0-2.04,3.33-6.56,4.75-6.56.19-.19.67-.29,1.43-.29,1.76,0,4.18.38,4.66.86.9.76,1.38,2,1.38,3.56,0,3.94-3.18,7.89-6.22,7.89-.9,0-1.76-.29-2.52-.85ZM51.51,24.54c0-.81-.14-1.57-.43-2.28-.71,0-3.42-.71-4.13-.71-1.66,0-4.32,3.85-4.32,6.51,0,1.62,1.9,3.04,3.61,3.04,2.76,0,5.27-3.18,5.27-6.56ZM50.75,14.42v-3.42c-.43-3.18-2.09-7.79-2.09-9.08,0-.43.38-1.04.85-1.04.24,0,.43.24.43.85.29,2.04.81,3.47,1.19,4.32.24.57.71.81,1.24.9.95.19,2.47.43,4.32.67.14,0,.38-.1.48.09.19.52-.19,1.05-1.43,1.05-1.09,0-2.57-.38-3.66-.38,0,1.95.38,4.42.38,6.37,0,.57-.52,2.23-1.09,1.66-.57-.24-.62-1.09-.62-2Z"/>
    </g>
  </g>
</svg>