<?xml version="1.0" encoding="UTF-8"?>
<svg id="_레이어_2" data-name="레이어 2" xmlns="http://www.w3.org/2000/svg" viewBox="0 0 225.81 143.99">
  <defs>
    <style>
      .cls-1 {
        stroke-width: 2.13px;
      }

      .cls-1, .cls-2 {
        stroke: #000;
        stroke-miterlimit: 10;
      }

      .cls-2 {
        stroke-width: 2.48px;
      }
    </style>
  </defs>
  <g id="_레이어_1-2" data-name="레이어 1">
    <g>
      <g>
        <path class="cls-2" d="M182.7,142.44c-6.72-1.34-11.82-6.79-11.97-13.95l-10.28.2c-5.12.1-9.95.34-15.06,0l-8.96-.04-6.86.37-5.05.16c-.22,2.92-1.28,5.72-3.05,8.11-2.93,3.94-8.84,4.92-13.6,4.27-7.02-.96-10.89-5.3-11.88-12.44l-10.45.1c-3.14.03-6.18-.13-9.22-.71s-7.35-2.52-7.87-5.07l-.58-2.82.02-5.14-.04-3.99c-.03-2.87.27-5.67,1.46-8.26l1.98-4.3c.98-2.13,2.43-3.79,4.61-4.75,1.87-.82,3.75-1.52,5.77-2.04l12.11-3.12c2.71-.7,5.29-1.39,7.84-2.44,1.87-.76,3.16-2.05,3.96-3.89l2.62-5.96c1.38-3.14,3.38-5.76,5.34-8.56,2.93-4.19,6.53-7.65,11.13-10.04,6.39-3.32,13.27-5.42,20.42-6.42,3.01-.42,5.88-.29,8.9-.15l11.55.53c4.19.19,12.18,1.31,15.53,3.36,5.46,3.33,11.27,9,13.95,14.83,1.95,4.27,3.42,8.56,4.33,13.18.08.42.3,1.25.57,1.52,2.04,2.07,6.98,3.13,10.21,3.92,3.42.84,6.62,2.1,9.58,3.93,1.07.66,1.78,1.58,2.06,2.77l1.41,5.98.9,5.71.16,2.46.2,3.63.15,2.49-.14,1.89c-.2,2.72-1.08,5.33-2.28,7.72-1.79,3.6-5.23,3.85-9.09,3.97l-4.01.13-6.66.22-2.52.13c-.6,5.66-3.12,9.34-8.25,11.59-2.88,1.26-5.85,1.55-8.92.94ZM155.77,127.54l3.91-.24,10.99-.28.98-3.96c.94-2.76,2.78-5.04,5.34-6.5,3.27-1.86,6.9-2.97,10.72-3.01,3.48-.03,6.67,1.68,8.89,4.26s3.04,7.14,3.31,10.63l4.08-.12,7.37-.22,5.53-.39c2-.32,3.51-1.56,4.27-3.4,1.02-2.5,1.77-5.09,2.04-7.84l-6.92-.39c-1.09-.06-1.68-.96-1.88-1.99l.04-5.44c0-.48.39-1.63.86-1.77,1.42-.4,2.86-.61,4.3-.67l2.86-.11-1.9-9.57c-.28-1.43-1.12-2.32-2.38-2.99-2.63-1.39-5.31-2.44-8.2-3.22l-5.87-1.58c-1.69-.45-3.24-1.2-4.65-2.2-.69-.49-1.25-1.38-1.4-2.23-.81-4.51-2.23-8.67-4.08-12.86-2.22-5.02-6.11-9.12-10.4-12.5-1.57-1.24-3.14-2.47-5.06-3.13-6.83-2.35-15.8-2.56-23.14-2.8-2.99-.1-5.87-.26-8.86-.02-6.01.48-11.64,2.2-17.19,4.47-4.63,1.89-8.83,4.49-12.11,8.3-3.08,3.57-5.67,7.43-7.79,11.63l-2.62,5.97c-.92,2.09-2.43,3.56-4.56,4.44-2.79,1.15-5.6,1.92-8.57,2.65-4.64,1.14-9.14,2.25-13.7,3.64-2.55.77-5.77,2-6.83,4.24l-1.89,4c3.3-.02,9.09-.83,9.57,1.6s.28,4.63-.27,6.96c-.16.66-.93,1.37-1.62,1.42l-3.25.23-6.38-.02-.09,2.51c-.12,3.26-.59,7.72,1.78,9.63,3.11,2.5,7.32,2.95,11.35,3.12,4.51.2,8.91,0,13.49-.14,0-5.39,1.69-10.21,6.39-13.04,2.06-1.1,4.07-2.07,6.45-2.53,5.67-1.11,11.72,1.71,14.24,6.95,1.32,2.74,1.4,5.63,1.75,8.66.98.27,2.12.12,3.18.05l3-.18c6.39-.38,12.69-.47,19.12-.04h5.82ZM78.53,111.06c1.22-.06,1.52-4.71.99-6.91-.32-.17-.96-.45-1.27-.46-2.6-.11-5.01-.1-7.65.09-1.04,2.34-1.63,4.66-1.43,7.23,1.62.23,3.14.34,4.73.27l4.64-.22ZM223.13,115.01l-.2-2.8-.14-2.46-.19-2.15c-2.33-.08-4.36-.04-6.63.52-.3,2.12-.37,4.07-.14,6.28,1.03.48,2.02.56,3.17.57l4.13.03ZM116.78,139.2c1.65-.63,2.77-1.73,3.74-3.04,1.85-2.5,2.75-5.34,2.71-8.5-.03-2.28-.37-4.55-1.04-6.71-1.56-5.01-7.23-8.31-12.52-7.63-3.21.41-7.88,2.56-9.81,5.22-3.38,4.66-3.41,11.5-.45,16.42,1.59,2.66,4.26,4.3,7.27,4.93,3.39.7,6.81.57,10.11-.7ZM196.11,136.39c1.39-1.82,2.27-4.07,2.28-6.23v-1.91c.02-2.62-.62-5.15-1.64-7.5-1.77-4.07-6.57-6.42-10.99-5.72-7.56,1.19-13.57,4.82-13.59,13.02,0,3.22.84,5.98,2.95,8.43,2.42,2.81,5.65,4.48,9.52,4.82,4.25.37,8.78-1.38,11.48-4.91Z"/>
        <path class="cls-2" d="M147.12,89.77l-3.07.16-9.19.08-7.44-.2c-3.14-.08-6.17-.34-9.26-.84-.96-.15-1.53-.91-1.34-1.9.9-4.82,2.85-9.23,5.44-13.39,1.1-1.76,2.02-3.61,3.68-4.93,5.44-4.3,11.98-5.27,18.79-4.65l5.23.47c.85.08,1.44.77,1.45,1.64.04,2.36.26,4.72-.04,7.07l-.86,6.73-1.34,8.12c-.17,1.03-1.09,1.58-2.06,1.63ZM147.11,88.37c.32-.02.71-.52.75-.76l.54-2.89,1.69-11.78c.25-1.72.13-6.6-.26-6.83-.16-.1-.54-.15-.83-.19-7.3-.83-13.13-1.36-19.79,2.28-1.74.95-3.24,2.05-4.26,3.79l-3.79,6.47c-1.45,2.86-2.36,5.89-3.04,9.03,2.66.51,5,.78,7.52.84l6.23.14c5.12.11,10.05.18,15.24-.09Z"/>
        <path class="cls-2" d="M183.38,90.78h-6.13s-2.88-.17-2.88-.17c-3.09-.2-6.02-.95-9.11-1.12-3.25-.18-6.41-.33-9.6-.86-.95-.16-1.29-.89-1.37-1.75-.12-1.22-.16-2.41.04-3.63l.98-5.87c.62-3.73,1.11-7.43,2.08-11.05.32-1.19,1.16-1.65,2.3-1.6l4.57.19,5.75.36c2.59.16,4.94.64,7.31,1.69l5.7,2.52c.66.29,1.05.94,1.17,1.65l1.23,7.56,1.61,10.47c.04.24-.09.86-.23,1.04-.16.21-.66.43-.95.45l-2.46.14ZM185.61,89.25l-1.18-8.09-1.69-10.23-7.2-3.15c-1.56-.68-3.21-.88-4.9-1.04l-6.95-.47-4.83-.08c-.79,2.73-1.27,5.27-1.7,8.02l-1.28,8.08c-.26,1.66-.43,3.21-.13,4.93,3.27.57,6.4.49,9.62.88l8.44,1.02c3.95.48,7.83.26,11.8.13Z"/>
        <path class="cls-2" d="M112.51,131.1c-2.28.79-4.62-.08-6.16-1.78-1.25-2.74-.17-6.11,2.66-7.33l1.74-.56c1.3-.42,2.89.24,3.79,1.12,1,.98,1.45,2.32,1.32,3.8-.17,2.04-1.27,4.03-3.35,4.75ZM111.69,129.91c1.87-.43,2.68-2.07,2.82-3.76s-1.05-3.38-2.81-3.34l-1.6.33c-2.18.45-3.64,3.18-2.55,5.23.72,1.35,2.65,1.89,4.14,1.54Z"/>
        <path class="cls-2" d="M181.48,131.36c-1.53-1.48-1.35-3.61-.57-5.32s2.09-2.96,3.98-3.07c.9-.59,1.97-.52,2.93-.21,1.9.62,3.04,2.14,3.05,4.17.01,2.32-1.11,4.75-3.41,5.63-1.94.74-4.43.29-5.98-1.2ZM182.24,130.02c.99,1.4,3.21,1.85,4.67,1.24,1.81-.75,2.68-2.7,2.57-4.53-.1-1.61-1.43-2.86-2.91-2.74-.75.93-1.9-.23-3.35,1.13-1.22,1.15-2.12,3.27-.98,4.89Z"/>
      </g>
      <g>
        <path class="cls-1" d="M44.77,135.56l.06,4.79c0,.19-.12.61-.26.7s-.52.11-.77.12l-4.5.14c-3.33.1-6.51.22-9.83-.1-.3-.03-.86-.1-.99-.29s-.12-.65-.12-.98l.04-9.27-.07-7.66c-.03-3.3-.02-6.47.2-9.78l-.04-7.57.02-8.59.08-15.71-.02-4.98c-2.69-.21-5.33-.28-8.06-.17-3.7.15-7.2-.27-10.86-.68-2.05-.23-4.07-.27-5.79-1.53-.91-.66-1.37-1.78-1.84-2.8-.64-1.4-.89-2.78-.9-4.35l-.04-8.8-.02-15.68c0-2.35.33-4.55.56-6.86.31-3.15.32-6.18.04-9.34-.26-2.97-.25-5.82-.33-8.81l-.15-5.34c-.05-1.85.22-3.52.79-5.26.4-1.19.7-2.46,1.71-3.33,1.42-1.23,3.3-2.4,5.28-2.39h16.38s8.47.59,8.47.59c3.3.22,6.49.1,9.81-.11,3.6-.23,6.98-.09,10.53.48,2.66.43,5.23.5,7.92.49l6.96-.02c2.02,0,3.92.6,5.8,1.29,1.77.65,2.7,2.16,3.45,3.8.86,1.86,1.55,3.62,1.53,5.7l-.08,8.6-.03,11.2-.33,6.91-.07,12.06-.63,7.24v7.92c0,2.91-1.26,5.21-3.15,7.26-.96,1.04-1.81,1.56-3.25,1.83-4.93.93-9.8,1.54-14.86,1.28l-13.08-.69-.13,6.04v14.48c-.09,3.76.07,7.31.49,11.04.46,4.03.5,7.86.44,11.9-.05,3.44.25,6.75,0,10.17l-.37,5.06ZM72.83,74.67c.73-.17,1.17-.7,1.56-1.15.92-1.09,1.9-2.12,2.36-3.51.52-1.61.53-3.31.53-5.02l-.02-6.04.66-7.24.07-12.41.32-6.9.03-11.72c0-2.7.22-5.25-.02-7.93-.15-1.7-.75-3.11-1.44-4.62-.57-1.24-1.08-2.41-2.49-2.9l-2.26-.79c-5.53-1.23-10.36-.03-14.79-.56l-7.52-.89c-2.78-.33-5.48,0-8.28.11-3.56.15-6.97.07-10.52-.17l-6.09-.42-15.61-.03c-1.19,0-2.22.54-3.22,1.03-1.48.73-2.22,1.86-2.67,3.41-.51,1.76-.86,3.45-.81,5.33l.15,5.52c.08,2.86.05,5.59.32,8.45.31,3.31.25,6.48-.07,9.76-.23,2.29-.55,4.48-.55,6.8v14.82c.01,3.22.24,6.27.08,9.48-.07,1.31.29,2.49.86,3.64.3.6.52,1.45,1.02,1.91.82.77,2.06,1.16,3.17,1.28l4.1.46c3.01.33,5.93.43,8.97.49l8.46.17c3.43.07,6.74.42,10.17.44l5.35.04,11,.64c5.79.33,11.46-.14,17.18-1.44ZM43.32,139.66v-4.81c.55-4.34.58-8.59.37-12.96l.06-5.7-.6-8.63-.38-9.65-.03-14.12.15-6.99h-7.16s-5.79-.3-5.79-.3l.13,9.52-.22,13.61.03,5.01.04,8.96c-.18,3.04-.38,5.92-.2,8.96l-.03,12.42.12,4.82c2.77.35,5.4.32,8.14.17l5.38-.3Z"/>
        <path class="cls-1" d="M32.68,63.86c-.16.44-.57.93-1.04,1.01-2.5.43-5.98.62-8.03-.57-.59-2.45-.8-4.78-.61-7.27l.42-5.68.25-9.56c.1-3.92-.12-7.71-.4-11.64-.23-3.3-.26-6.42.11-9.68l.47-4.09c.05-.44.72-.83,1.14-.91,2.57-.49,4.97-.87,7.6-.97,5.53-.21,10.91.79,15.86,3.21,1.61.79,3.07,1.74,4.02,3.25l2.6,4.12c2.39,4.4,2.76,10.18.71,14.77-1.04,2.32-2.73,3.96-5.02,5.03-5.14,2.38-11.99,3.67-17.64,3.45l.05,6.81c.02,2.97-.11,5.77-.47,8.71ZM31.69,47.44c0-.26.66-.64.87-.56,2.66.18,5.1.03,7.69-.41,4.03-.72,10.9-2.21,13.12-5.36,3.1-4.41,2.99-10.49.51-15.16l-2.59-4.14c-.89-1.42-2.29-2.23-3.81-2.95-7.01-3.31-14.69-3.58-22.29-1.98l-.37,3.63c-.23,2.25-.44,4.46-.3,6.72l.53,8.28c.24,3.78.03,7.42-.19,11.2-.12,2.16.14,4.23-.11,6.37-.4,3.47-.66,6.87.12,10.33,2.1.57,4.22.45,6.43.08.38-2.89.46-5.71.48-8.66l.02-4.38-.1-3Z"/>
        <path class="cls-1" d="M43.94,39.04c-3.64,1.22-7.4,1.47-11.18,1.17-.5-.04-1.02-.21-1.05-.74l-.3-5.53.42-8.78c.03-.72.36-1.19,1.1-1.25,4.45-.38,8.88-.28,12.71,2.13,2.19,1.38,3.21,3.65,3.16,6.18-.05,3.15-1.74,5.78-4.87,6.83ZM44.72,37.1c3.16-1.99,3.62-6.45,1.13-9.16-3.35-2.76-8.51-3.21-12.63-2.57l-.4,8.4c-.08,1.68.2,3.3.24,4.99,3.36.41,9.15-.08,11.67-1.66Z"/>
      </g>
    </g>
  </g>
</svg>