<?xml version="1.0" encoding="UTF-8"?>
<svg id="_레이어_2" data-name="레이어 2" xmlns="http://www.w3.org/2000/svg" viewBox="0 0 189.68 90.1">
  <defs>
    <style>
      .cls-1, .cls-2 {
        fill: gray;
      }

      .cls-2 {
        stroke: gray;
        stroke-miterlimit: 10;
        stroke-width: .81px;
      }
    </style>
  </defs>
  <g id="_레이어_1-2" data-name="레이어 1">
    <g>
      <g>
        <path class="cls-2" d="M111.57,37.01l-3.67.38-4.57.41-6.83.66-4.57.04h-2.81s-5.37-.52-5.37-.52h-3.74c-1.79,0-3.45.11-5.24-.15-.52-.08-1.09-.06-1.57-.35-.23-.13-.3-.73-.3-1l-.04-2.8c-.32-2.35-.24-4.64-.44-7-.22-2.63-.32-5.12-.19-7.78l.09-2.01.43-6.56.17-4.97c0-.18.16-.59.26-.73.12-.16.57-.1.79-.13l4.65-.72.02-2.6c0-.33.28-.69.64-.7l2.21-.07,4.44.08c.46,0,.86.42.88.84l.09,2.21,4.32-.25c2.01-.12,3.92-.08,5.95.07l4.92.36c1.8.13,3.48.04,5.28-.18h3.61s4.83-.34,4.83-.34c1.59-.11,3.6.21,3.76,1.65l.54,4.83c.27,2.41.32,4.72.19,7.14v6.88s0,6.05,0,6.05l-.45,6.48c-.02.24-.15.61-.3.73s-.57.24-.77.23l-2.97-.13h-4.23ZM86.09,3.58l-.08-2.24-1.45-.17-2.55-.02-2.66.12v2.48s4.28.03,4.28.03l2.46-.19ZM103.53,37.02l4.5-.41,2.99-.34h5.28s2.75.05,2.75.05l.46-6.3-.02-7.1v-5.73c.15-2.5.06-4.9-.14-7.39-.14-1.8-.24-3.5-.68-5.28-.83-.44-1.76-.62-2.71-.56l-4.98.34c-1.29.09-2.61-.17-3.88.01-1.87.26-3.61.27-5.5.13l-4.56-.34c-2.29-.17-4.41-.17-6.69,0l-5.17.38-4.9.05c-1.97.02-3.83.34-5.76.69l-.62.11c-.11.02-.16.34-.16.46,0,2.89-.39,5.66-.51,8.55l-.16,3.62-.12,2.16v3.72c.21,2.05.43,3.99.36,6.06l.18,2,.24,4.93c2.02.49,4.01.52,6.06.36,2.92-.22,5.75.15,8.66.48,1.18.13,2.25.08,3.41.07l4.92-.07,6.76-.65Z"/>
        <path class="cls-2" d="M96.97,30.84c-2.88.46-5.48-.29-7.66-2.08-1.36-1.12-2.68-2.29-3.43-3.91-.95-2.06-1.04-4.28-.28-6.4,1.34-3.75,3.86-5.84,7.77-6.57,5.25-.99,10.39,3.49,11.15,8.76v2.42c0,1.68-.82,3.27-1.82,4.57-1.42,1.83-3.41,2.85-5.72,3.22ZM101.88,27.36c1.38-1.72,2.14-3.95,1.96-6.17-.09-1.13-.51-2.18-.95-3.22s-1.23-1.92-2.05-2.77c-1.47-1.53-3.53-2.52-5.68-2.69-1.41-.11-2.75.39-4.03.88-2.15.81-3.58,2.56-4.5,4.6-1.49,3.31-.68,6.92,2.09,9.25,1.12.94,2.24,1.83,3.62,2.39,3.03,1.23,7.41.38,9.55-2.27Z"/>
        <path class="cls-2" d="M114.82,13.54l-3.35-.09-2.93-.18c-.45-.03-1.14-.22-1.23-.75-.24-1.49-.06-2.96.31-4.42.63-.26,1.18-.13,1.79-.12l5.25.12c.57.01,1.04.45,1.06,1.04.05,1.5-.09,4.44-.91,4.41ZM114.69,12.77c.24-1.37.32-2.44.28-3.73l-1.17-.19-5.56-.08c-.24,1.25-.32,2.35-.16,3.62l3.03.25,3.58.12Z"/>
        <path class="cls-2" d="M99.34,25.58c-1.54,1.81-4.13,2.14-6.23,1.41s-3.74-2.56-4-4.87c-.37-3.26,1.9-6.32,5.24-6.56,2.31-.16,4.54,1.2,5.58,3.22,1.12,2.16,1.03,4.87-.6,6.79ZM98.5,25.33c2.12-2.17,1.82-5.63-.41-7.62-1.43-1.28-3.33-1.78-5.18-1-2.63,1.11-3.85,4.38-2.53,6.96,1.6,3.11,6,3.82,8.11,1.65Z"/>
      </g>
      <g>
        <path class="cls-1" d="M2.26,76.11c-.84-.08-1.15-.46-1.15-1.23v-2.95c-.73-.15-1.11-.46-1.11-.88,0-.12.04-.23.11-.31l1-.23v-4.06c0-.65.15-1.04.65-1.23,1.15-.42,2.72-.73,3.83-1.04,1.53-.38,3.07-.96,4.41-.92.34,0,.69.04,1.04.08.04.08.04.19.04.27,0,.54-.54.96-1.23.96h-1.38c-2.49.81-3.41,1.19-6.06,1.73v4.14c1.84.08,5.6-.46,7.59-1.3.54-.23.77-.08.77.31,0,.46-.23.81-.92,1.04-.69.31-2.95.61-5.06.77-1.04.08-1.76.31-2.38.54v3.03c1.07-.15,2.3-.11,4.68-.38,1.69-.19,3.37-.35,4.48-.61.81-.19,1.5.27,1.5.88,0,.19-.08.38-.19.61-2.15,0-4.41.23-8.66.88-.23.04-1.15,0-1.95-.08ZM13.38,88.64l-.77-7.47c.38-.58.65-.81,1-.81s.73.73.65,1.34c0,2.07.19,4.64.38,6.25.54.34,3.56.77,5.63.77,1.11,0,1.88-.15,1.92-.38l-.23-3.41c-.42-.5-2.15-.15-2.57-.15-1.38,0-2.64.46-3.64.77-.54.19-.81.08-.77-.38.04-.35.35-.65.88-.84.58-.23,1.92-.42,3.79-.54,1.23-.08,1.88-.27,1.92-.58l-.88-4.45c-.04-.27.15-.61.38-.61.35,0,.61.08,1,.34.5.69,0,2.53.88,4.64.84.08,1.34.46,1.34.88,0,.15-.04.31-.08.38l-.96.15.65,3.83c.11.69-.46,1.26-1.42,1.3-2.41.19-5.44.12-7.86.12-.77,0-1.23-.38-1.26-1.15ZM16.67,75.76c-.15-4.68-.46-8.7-1.03-12.61-.08-.61.08-.92.42-.92.38,0,.77.38.96.92.11,2.57.31,4.6.54,5.67.35.35.65.35,1.15.23,1.26-.38,2.22-.61,2.99-.77-.23-2.26-.38-4.56-.38-6.4,0-.58-.54-1.11,0-1.11,1.15-.38,1.65.31,1.65,2.34v2.95l.19,2.15c.38.12.65.38.65.61,0,.31-.15.5-.31.5h-.27c.19,2.03.35,3.95.65,5.71,0,.23-.08.38-.23.38s-.46-.15-.8-.38c-.38-1.57-.73-3.53-1-5.6-.61.12-1.38.35-2.3.61-.57.15-1.03.38-1.34.5-.38.11-.54.31-.54.73.12,1.73.08,3.26-.08,5.6-.57.11-.88-.27-.92-1.11Z"/>
        <path class="cls-1" d="M32.89,67.06c-1.61,0-4.48.11-6.06.42-.65.08-.88-.5-.88-.81,0-.27.23-.46.65-.5l5.9-.54c-.08-1.07-.58-3.64-.73-5.02-.08-.73.27-1.34.73-1.34.38,0,.58.19.69.69.27,1.38.54,4.37.81,5.37l5.52-.5c.27-.04.38.15.38.31,0,.65-.38,1.19-1.07,1.38-1.26.38-4.1-.19-4.41.38.04.19.08.65.04.92-.04.31-.31.38-.54.38-.8,0-1.23-.23-1.03-1.15ZM30.44,79.94c-.15-.5-.27-1.04-.27-1.53,0-3.18,2.72-6.55,5.63-6.98,2.07-.31,4.6,2.8,4.6,5.6,0,.27-.04.5-.08.73-.58,2.15-4.02,4.52-6.59,4.52-1.61,0-2.68-.8-3.3-2.34ZM34.92,80.86c1.57,0,4.14-2.61,4.14-4.29,0-1.99-2.72-4.48-4.14-3.76.27.15.42.31.42.54,0,.42-.35.77-.81.77-1.76,0-3.22,1.88-3.22,4.02,0,1.69,1,2.8,2.8,2.8.23,0,.54-.04.81-.08ZM46.11,80.13c-.23-.38-.46-.92-.54-1.34-.19-1.72,0-3.83.46-6.52.08-.58-.04-1.23-.04-1.88,0-.77.08-1.38.58-1.99.27-.38.73-.38.92,0,.19.35,0,.92,0,1.11l-.08,3.22,4.64.42c0-.5.04-.96.08-1.42.08-.88.5-2.15.58-2.72.11-.92.15-1.19.23-1.42.23-.69,1.3-.54,1.3-.15s-.27.84-.23,1.73c.04.96-.31,2.53-.54,4.18.31.19.54.61.54.92,0,.5-.34.42-.73.42-.08.69-.11,1.38-.11,2.03,0,.5.08,1,.08,1.53,0,.65-.15,2.38-.23,2.64-.08.23-.23.34-.5.34-.35,0-1.11-.38-1.07-.77l.42-3.79c.08-.65.12-1.38.15-2.15-.5-.11-1.03-.31-1.46-.35-.96,0-1.99.12-3.37,0-.23.77-.23,1.88-.23,2.88,0,.34.31,1.46.35,2.26.04.84-.15,1.15-.77,1.15-.15,0-.31-.11-.42-.34Z"/>
        <path class="cls-1" d="M66.74,81.44c-2.15-1.92-3.6-3.79-4.91-6.13-.23-.42-1.07-1.8-1.38-2.76-.04-.23-.12-.46-.08-.65-.92,2.34-2.22,3.79-2.34,6.63-.04.81.69,2.11-.69,1.88-.81-.61-1.03-1.38-1.03-2.15,0-1.07.34-2.19.8-3.1,1.92-3.79,3.99-8.59,4.94-11.35.08-.27.31-.38.58-.38.54,0,1.42.84,1.07,1.92-.73,1.19-2.53,3.41-3.26,5.33-.12.35,0,.84-.04,1.07.69-.5,1.03.08,1.27.42.08.12.15.31.31.5,1.38,1.57,1.92,3.26,2.99,4.75,1.23,1.46,3.79,2.57,3.79,4.75,0,.12-.15.23-.34.23-.77,0-1.04-.46-1.69-.96ZM68.69,73.54c0-.8.31-1.15,1-1.15,1.07-.23,3.87-.19,5.25-.69l.31-.12.12-1.46c.08-.92.08-1.46.08-2.26,0-1.11.15-1.84.5-2.53.27-.15.46-.23.61-.23s.27.08.31.23c.23.42,0,1.15,0,1.34l-.08,4.1c0,.12,0,.27-.04.5.38.04.65.42.65.88,0,.23-.23.5-.5.5l-.27.08c-.15,1.46-.34,3.07-.34,3.68,0,.38.34,1.72.38,2.68.08,1.04-.19,1.38-.77,1.38-.11,0-.27-.11-.38-.42-.19-.46-.31-1.07-.38-1.57-.15-1.49-.11-3.49,0-5.37l-.19.04-5.6.5c-.31.04-.54,0-.65-.12Z"/>
        <path class="cls-1" d="M91.16,67.25c.38-.08.77.15.69.46l-1.15,4.71c.04.23,1.3.65,3.22,1.49,1.53.73,3.22,1.53,4.14,2.53.27.34.5.88.5,1.26.04.5.19.69,0,1.15-.38-.04-.58-.54-.92-1.27-1.03-.88-2.53-1.8-3.68-2.3-1.53-.61-2.64-.81-3.53-.81-.31,0-.54.04-.65.12-.5.69-.38,1.69-.65,2.68-.38,1.42-.65,2.11-1,2.68-.5.54-.5,1.04-1.38,1.04l3.64-12.76c.15-.46.42-.88.77-1ZM104.15,83.7c-.19-.65-.46-1.57-.54-2.22-.23-3.3-.12-5.25.46-9.31l-.04-2.8c0-1.5.19-2.57.58-3.56.31-.27.5-.35.61-.35.19,0,.27.12.31.35.19.65.04,1.65,0,1.92l-.08,5.4,7.32.5c.5,0,1.26.61,1.26,1.07,0,.54-.38.38-.8.38-1,0-2.45-.38-3.87-.5-.96,0-2.84.11-4.14.04-.23,1.07-.23,2.53-.23,3.91,0,.54.31,2.41.34,3.83.04,1.42-.15,1.95-.77,1.95-.15,0-.31-.19-.42-.61Z"/>
        <path class="cls-1" d="M117.8,76.3c0-1.8.61-3.49,2.26-6.98,1.53-3.03,2.11-4.56,2.3-6.09-1.46,0-2.95.23-5.98.84l-1.15.23c-.8-.23-1.15-.54-1.23-1.07,0-.31.46-.54,1.11-.54l2.3-.19c2.64-.31,4.02-.46,4.87-.46,1,0,1.3.23,1.3,1,0,1.23-.65,3.18-.38,3.99.15.54.61,1.03,1.11,1.69.84,1.15,1.76,3.91,2.91,6.02.19.34.08.54-.34.54-.5,0-.92-.42-1.38-1.38-.73-1.65-2.57-4.64-3.37-5.63-1.38,2.84-2.87,5.48-3.22,7.47-.23.54-.57.88-.88.88-.19,0-.23-.08-.23-.31ZM126.39,87.49c-.42-1.57-.92-5.02-.92-6.25,0-.73.12-1.03.38-1.03.38,0,.73.5.88,1.03.54,1.73,0,3.56.46,5.79,1.3-.34,2.76-.46,4.94-.46.61,0,3.07-.73,4.48-.84.69-.08,1.07.04.88.42-.12.23-.35.5-.58.69-.77.57-2.22.96-3.87,1.07-1.61.08-3.76.34-5.56.57-.81.11-1.11-.23-1.11-1ZM132.79,78.29c-.08-1.42-.15-2.49-.31-3.64-.5-4.14-.73-6.71-.73-8.66,0-1.27.12-2.42.19-3.45,0-.77.77-2.03,1.27-2.03.23,0,.38.23.5.69.19.92-.12,1.99-.27,3.1-.27,1.72-.15,5.67.23,9.28.23,2.03.46,3.3.46,4.56-.19.8-.58,1.42-.92,1.42-.23,0-.42-.57-.42-1.26Z"/>
        <path class="cls-1" d="M147.51,75.03c0-2.84,2.57-7.24,2.72-9.39.04-.46-.04-.81-.15-.96-.61-.27-2.03.23-3.03.5-.73.27-1.26,1.11-1.99,1.11-.58,0-1.38-1.04-.46-1.34,1.57-.5,3.33-1.69,4.98-1.69.92,0,1.53.46,2.15.8,1.04,0,2.95-.42,4.06-.42,1.49,0,1.84.81,1.84,2.26,0,1.3-.84,3.3-1.88,4.94,1.38.5,2.72,1.88,3.6,2.68.27.23.54.34.8.46.54.08,1.15,1.07.54,1.07-1.73,0-3.03-1.53-4.52-2.61l-.92-.34c-.19.46-1.38,2.87-2.38,3.83-.65.65-1.42.54-1.07-.08l2.07-3.79c-.77-.23-3.14-.73-3.76-1.23-1,.84-1.53,2.84-1.53,4.18,0,.34-.23.92-.65.92-.27,0-.42-.23-.42-.92ZM156.14,66.37c0-.61-.19-1.03-.69-1.46l-3.45.38c-.23,1.38-.8,2.76-1.42,4.1,1.11.69,2.8,1.34,3.83,1.53,1.19-1.8,1.73-3.6,1.73-4.56ZM165.79,88.99c-.08-.73-.19-2.11-.42-3.22-.19-1.34-.34-2.26-.61-3.26-.27-.11-.58-.15-.88-.15-1.07,0-2.11.31-3.87,1.15-1.3.61-2.03.88-2.61.88-.73,0-1.42-.27-1.42-.69,0-.11.04-.19.12-.31,1.57-1,6.25-2.26,8.43-2.26,1.04,0,1.42.19,1.69.96.42,1.07.69,4.45.69,8.01-.58,0-1.04-.46-1.11-1.11ZM163.19,73.27v-3.14c-.34-3.1-.46-5.94-1-8.62,0-.23.08-.38.27-.38s.5.15.84.38c.92,3.68,1.5,9.16,1.5,12.92,0,.57.5,1.15,0,1.15-1.11.38-1.61-.31-1.61-2.3Z"/>
        <path class="cls-1" d="M177.37,81.55c0-.5.27-1,.27-1.49,0-3.26.38-7.78.88-10.2-1.61-.42-6.09.58-7.74.73-.19,0-.38-.04-.57-.08-.5-.27-.77-.46-.77-.73,0-.38.46-.65,1.26-.65,2.18-.57,6.59-1.03,8.05-.88,1.04.15,1.53.84,1.27,1.84-.73,3.03-1.11,7.86-1,12.34,0,.46-.15.73-.46.73-.57,0-1.19-.88-1.19-1.61ZM188.6,83.39c-.27-.46-.65-1.11-.84-1.61-.69-2.53-.96-5.06-.92-8.05l-.61-3.26c-.19-1.11-.19-1.99.04-2.68.23-.23.38-.31.54-.35.15,0,.31.08.34.23.31.42.23,1.19.27,1.42l.84,5.14c-.04,1.27.23,4.22.42,5.25.08.38.65,1.76.88,2.8.27,1.07.08,1.46-.5,1.53-.12,0-.31-.12-.46-.42Z"/>
      </g>
    </g>
  </g>
</svg>