<?xml version="1.0" encoding="UTF-8"?>
<svg id="_레이어_2" data-name="레이어 2" xmlns="http://www.w3.org/2000/svg" viewBox="0 0 283.81 76.92">
  <defs>
    <style>
      .cls-1 {
        stroke-width: .5px;
      }

      .cls-1, .cls-2 {
        stroke: #000;
        stroke-miterlimit: 10;
      }

      .cls-2 {
        stroke-width: .75px;
      }
    </style>
  </defs>
  <g id="_레이어_1-2" data-name="레이어 1">
    <g>
      <g>
        <path class="cls-2" d="M75.71,32.87c-.62-.14-1.24-.19-1.9-.19-2,0-4.13.52-6.13.76-.71,0-1.38-.48-1.38-1.05,0-.19.09-.38.29-.57,4.75-.81,7.89-1,10.22-.62.57.19.76.52.76,1.52,0,1.85-1.14,4.66-1.66,7.37.24-.24.57-.62,1.09-.57l1.09.57c1.33.81,2.76,2.09,3.85,2.85.62.57,2.42,2.19,3.52,2.66.52.29.67.52.67,1.66-2.04-.95-3.23-1.66-5.32-3.28-1.14-.81-2.61-1.57-4.89-2.76-1.14,1.62-1.14,4.37-2.19,6.13-.52.76-1.04,1-1.76.67,1.62-4.66,3.37-11.55,3.75-15.16ZM83.65,38.1c0-.95.38-1.38,1.24-1.38,1.33-.29,3.85-.24,5.08-.86l.33-.14.33-2.52-.05-5.37c0-1.9.19-3.28.62-4.42.33-.29.57-.43.76-.43s.33.14.38.43c.29.71,0,1.95,0,2.33l-.09,8.55-.14,1.04h.05c.47,0,.85.52.85,1.09,0,.29-.29.62-.62.62l-.43.09c-.19,2.19-.33,4.61-.33,5.75,0,.67.38,2.99.48,4.75.05,1.76-.24,2.38-.95,2.38-.14,0-.33-.24-.48-.71-.24-.81-.52-1.95-.67-2.8-.19-2.85-.19-5.75.09-8.89l-.14.05-5.51.52c-.38.05-.67,0-.81-.09Z"/>
        <path class="cls-2" d="M106.36,33.54c-.47-.86-.86-1.85-.95-2.38-1.19,1.71-2.28,3.8-3.33,6.94-.05.38-.38,1.33-1.19,1.33-.24,0-.33-.29-.29-.71.05-.62.76-2.52,1-3.37.43-1.33,1.47-3.75,2.33-5.37,1.38-2.47,2.71-5.04,2.09-6.98-2.8,0-6.75.67-9.22,1.47-1.42.52-.76-1.62.67-1.95,2.66-.57,6.41-.81,8.65-.81.9,0,1.95.52,1.95,2.28,0,2.47-1.05,3.47-1.28,4.89,0,.38.09.9.14,1.14.52,2.38,2.28,6.98,4.42,8.22.24.19.57.57.57,1.19,0,.95-.57,1.09-1.47.14-1.71-1.62-3.23-4.09-4.09-6.03ZM111.12,54.07c-1.95-1.24-3.47-3.09-3.47-4.61,0-2.04,3.33-6.56,4.75-6.56.19-.19.67-.29,1.42-.29,1.76,0,4.18.38,4.66.86.9.76,1.38,2,1.38,3.56,0,3.94-3.18,7.89-6.22,7.89-.9,0-1.76-.29-2.52-.85ZM118.29,46.89c0-.81-.14-1.57-.43-2.28-.71,0-3.42-.71-4.13-.71-1.66,0-4.32,3.85-4.32,6.51,0,1.62,1.9,3.04,3.61,3.04,2.76,0,5.27-3.18,5.27-6.56ZM118.48,36.77v-3.42c-.43-3.18-2.09-7.79-2.09-9.08,0-.43.38-1.05.86-1.05.24,0,.43.24.43.85.29,2.04.81,3.47,1.19,4.32.24.57.71.81,1.24.9.95.19,2.47.43,4.32.67.14,0,.38-.1.47.1.19.52-.19,1.05-1.42,1.05-1.09,0-2.57-.38-3.66-.38,0,1.95.38,4.42.38,6.37,0,.57-.52,2.23-1.09,1.66-.57-.24-.62-1.09-.62-2Z"/>
        <path class="cls-2" d="M125.33,41.52c0-.43.86-.9,1.57-.9,2.09-.52,4.56-.9,6.65-1-.38-.95-.62-1.71-.76-2.57-.14-.81-.19-1.47-.14-2,0-.43.38-.76.9-.81.14,0,.33.14.38.29.71,1.62.57,3.09,1,4.89,0,0,.05.14.05.19,1.66-.1,5.89-.48,7.93-.48.86,0,1.38.1,1.62.33.33.33.43.57.43.81,0,.19-.09.29-.43.33-5.94.38-12.21,1-17.63,1.71-.67,0-1.24-.24-1.57-.81ZM127.56,31.59c-1.04-.1-1.42-.57-1.42-1.52v-8.93c0-.81.19-1.14.81-1.38,1.42-.52,3.37-.95,4.75-1.33,1.9-.48,3.33-1.24,4.99-1.19.48,0,.9.05,1.33.14,0,.14.05.24.05.33,0,.67-.67,1.19-1.52,1.19h-1.76c-3.04,1-3.75,1.38-7.03,2.04v9.03c1.33-.19,2.85-.14,5.8-.48,2.09-.24,3.75-.43,5.13-.76.95-.24,1.81.33,1.81,1.09,0,.24-.05.48-.19.76-2.38,0-4.28.19-10.31,1.09-.29.05-1.43,0-2.42-.09ZM139.06,56.01c-.05-.33-.05-.71-.05-1.19,0-.9-.19-5.89-.19-8.03,0-.62.14-.86.57-.86.71,0,1.28.52,1.28,1.14-.05,2.52-.05,5.75,0,8.31.24.24.71.33,1.52.33,4.28,0,8.55-2.57,10.64-2.33.81,0,1.33.81,1.09,1.71-.43.43-9.41,2.38-13.26,2.14-1.04-.05-1.52-.43-1.62-1.24ZM148.18,42.47c-.09-1.76-.19-3.09-.38-4.47-.62-5.18-.9-12.92-.9-15.35,0-1.57.14-2.99.24-4.28,0-.95.95-2.52,1.57-2.52.29,0,.48.29.62.86.24,1.14-.14,2.47-.33,3.85-.33,2.14-.19,11.59.29,16.06.29,2.52.57,4.09.57,5.65-.24,1-.71,1.76-1.14,1.76-.29,0-.52-.71-.52-1.57Z"/>
        <path class="cls-2" d="M175.51,34.11c-1.62-1.05-3.61-2-5.37-2.95-.95,1.66-1.43,3.8-2.14,6.03-.33,1.14-1.95,1.38-1.76.62,1.24-4.61,3.71-10.98,3.75-14.49-2.57-.19-4.85-.14-7.56.24-1.14,0-1.9-.67-1.95-1.19-.05-.29.19-.52.67-.43,4.18-.57,7.41-.57,9.74-.19.57,0,.86.29.95,1.14.19,2.14-1.38,4.42-1.66,7.13,0,0,.48-.52.95-.52.43.14.81.33,1.24.62,1.38.81,3.04,2.19,4.37,2.95.9.67,5.23,3.04,5.99,3.66.67.24,1.43,1.57.9,1.57-3.18-.81-5.23-2.23-8.12-4.18ZM175.27,57.01c0-2.47.33-5.32,1.14-10.17-3.61,0-7.37-.62-10.45-.81-.81,0-1.14-.14-1.14-.62.09-.48.57-.9,1.14-.9,1.42,0,3.94.33,9.17.81,6.08,0,8.46.14,9.12.48.52.52.62.76.62,1.47-2,.43-3.99.19-7.13-.43-.62.62-.62,9.55-.62,10.74,0,3.09-1.24,1.85-1.85-.57Z"/>
        <path class="cls-2" d="M187.96,46.94c1.09-1.33,4.28-4.61,4.51-5.42-.33-.24-.48-.48-.43-.81.14-.62,1.24-.19,1.85-.76.85-.81,2.8-3.37,2.8-3.37-3.85,0-7.41.24-10.74,0-.14,0-.48.14-.76.14-.33,0-.57-.24-.76-.76,0-.33.52-.62,1.24-.71,1.09-.19,4.56-.43,5.46-.43,1.43,0,2.71-.14,3.9-.38,1.05,0,2.47,0,3.09.05,1.24.09,1.57,1.24.67,2.33l-3.52,4.28c3.33,1.62,6.03,3.09,7.36,4.18.62.62.9,1.19.86,1.62-.05.19-.14.33-.29.48l-9.03-5.13c-1.38.71-3.18,4.04-4.37,5.13-.71.57-1.85,1.04-2.47.62-.09-.14.09-.48.62-1.05ZM197.32,29.79c-1.81-.48-4.94-2.23-5.75-2.47-.71-.24-2-1.33-2.76-1.85-.24-.19-.33-.43-.29-.67.1-.52.95-.86,1.38-.71l2.23,1.57c1.57.9,4.32,1.85,5.75,2.52.67.76.85,1.43.43,1.66-.14.14-.48.1-1-.05ZM207.3,49.31c-.24-.81-.57-1.95-.67-2.76-.29-4.09-.14-6.51.57-11.55l-.05-3.47c0-1.85.24-3.18.71-4.42.38-.33.62-.43.76-.43.24,0,.33.14.38.43.24.81.05,2.04,0,2.38l-.09,6.7,9.08.62c.62,0,1.57.76,1.57,1.33,0,.67-.48.48-1,.48-1.24,0-3.04-.48-4.8-.62-1.19,0-3.52.14-5.13.05-.29,1.33-.29,3.14-.29,4.85,0,.67.38,2.99.43,4.75.05,1.76-.19,2.42-.95,2.42-.19,0-.38-.24-.52-.76Z"/>
        <path class="cls-2" d="M239.04,54.97c-.86-2.8-1.81-6.6-2.38-10.88-2.85,0-5.23,1.19-6.98,1.71-.33.1-.62.1-1,.1-.43-.48-.38-.95.24-1.47.62-.62,2.99-1.43,4.8-1.76,4.85-.9,7.37-1.38,9.55-1.28.67,0,1.33.14,1.9.24.81.24,1.52,1.14.9,1.57-5.75-.43-6.27-.14-7.27.38-.14.1-.24.33-.19.9.24,2.9.95,6.51,1.71,8.93.33,1.24,1,.9.9,2.04-.47.09-.86.14-1.14.09-.43-.05-.76-.19-1.04-.57ZM231.44,34.63c-1.81-1.62-2.71-3.52-2.71-5.56,0-4.56,3.99-9.36,8.93-10.83.62-.19.86-.19.9-.05.14.24.14.67,0,.95,1.09.52,2.28.52,3.47,1.09,1.43.71,1.71,3.56,1.71,7.08,0,5.65-2.47,9.36-7.27,9.36-1.8,0-3.47-.67-5.04-2.04ZM240.85,33.49c1.24-1.47,1.47-3.42,1.47-5.7,0-1.52.33-3.18-.38-4.8-.67-1.47-4.51-2.9-6.37-2.19-1.33.52-4.56,4.51-4.56,5.56-.33.71-.48,1.52-.48,2.38,0,3.52,2.85,6.7,6.13,6.7,1.52,0,3.04-.57,4.18-1.95ZM255.25,49.65l-.86-4.37c-1.43-6.98-2.09-10.83-2.47-14.25-.14-1.47-.14-2.95-.19-4.28-.14-1,.67-2.57,1.14-2.61.29-.05.52.24.67.67.43,1.19.14,2.52.09,3.99-.14,2.95.29,6.27.86,8.65.19,1.76.57,3.61,1.05,5.46.81,2.95,1.09,4.89,1.24,6.37-.1,1.09-.48,1.9-.9,1.95-.29.05-.57-.62-.62-1.57Z"/>
        <path class="cls-2" d="M259.81,46.94c1.09-1.33,4.28-4.61,4.51-5.42-.33-.24-.47-.48-.43-.81.14-.62,1.24-.19,1.85-.76.86-.81,2.8-3.37,2.8-3.37-3.85,0-7.41.24-10.74,0-.14,0-.47.14-.76.14-.33,0-.57-.24-.76-.76,0-.33.52-.62,1.24-.71,1.09-.19,4.56-.43,5.46-.43,1.42,0,2.71-.14,3.9-.38,1.04,0,2.47,0,3.09.05,1.24.09,1.57,1.24.67,2.33l-3.52,4.28c3.33,1.62,6.03,3.09,7.37,4.18.62.62.9,1.19.85,1.62-.05.19-.14.33-.29.48l-9.03-5.13c-1.38.71-3.18,4.04-4.37,5.13-.71.57-1.85,1.04-2.47.62-.09-.14.1-.48.62-1.05ZM269.17,29.79c-1.81-.48-4.94-2.23-5.75-2.47-.71-.24-2-1.33-2.76-1.85-.24-.19-.33-.43-.29-.67.09-.52.95-.86,1.38-.71l2.23,1.57c1.57.9,4.32,1.85,5.75,2.52.67.76.86,1.43.43,1.66-.14.14-.48.1-1-.05ZM282.1,47.98c-.33-.57-.81-1.38-1.05-2-.86-3.14-1.19-6.27-1.14-9.98l-.76-4.04c-.24-1.38-.24-2.47.05-3.33.28-.29.47-.38.67-.43.19,0,.38.09.43.28.38.52.29,1.47.33,1.76l1.05,6.37c-.05,1.57.29,5.23.52,6.51.09.48.81,2.19,1.09,3.47.33,1.33.09,1.81-.62,1.9-.14,0-.38-.14-.57-.52Z"/>
      </g>
      <g>
        <path class="cls-1" d="M24.06,76.38l-10.36-.93-5.44-1.23c-2.32-.53-4.18-1.57-5.85-3.32-1.2-1.26-1.92-2.94-2.03-4.8s-.23-3.71-.02-5.56l1.33-11.69c-.17-4.31.11-8.43.5-12.7l.19-4.49c.11-2.5.66-4.89,1.01-7.37.19-1.34.09-2.63.24-3.96l.91-8.46c.25-2.29.82-4.45,1.68-6.54.63-1.51,1.66-2.57,3.1-3.3.65-.33,1.36-.79,2.07-.98,3.32-.91,6.59-.92,10.02-.67l12.19.91c2.64.2,5.1.25,7.68.88s5.06,2.22,6.22,4.75c1.27,2.75,1.23,5.76,1.05,8.74l-.25,4.09c-.18,2.93-.58,5.7-.99,8.61l-1.53,11-.21,6.39-1.42,15.88-.78,6.61c-.17,1.43-.33,2.94-.89,4.25-1.07,2.52-3.68,3.6-6.3,3.78l-4.04.29c-2.7.19-5.29.05-8.1-.2ZM17.63,74.85l6.71.49c2.6.19,5.1.46,7.7.24l4.65-.39c2.84-.24,4.99-1.99,5.4-4.86.69-4.86,1.16-9.63,1.56-14.55l.91-11.06c.24-2.92.11-5.7.54-8.59l.9-6.01c.6-4.02,1.09-7.94,1.36-12.01l.26-3.85c.16-2.38-.14-4.91-1.2-7.11-.71-1.47-2.21-2.67-3.68-3.29-2.95-1.24-5.99-1.24-9.13-1.47l-13.38-.99c-3.96-.29-9.35-.02-12.07,2.77-1.99,2.04-2.63,8.22-3.06,11.55-.28,2.15-.42,4.18-.48,6.35-.05,1.92-.43,3.77-.74,5.66-.38,2.32-.4,4.54-.56,6.88l-.48,6.69-.15,4.63c.1,2.48-.18,4.78-.46,7.23l-.86,7.55c-.18,1.59-.07,3.19,0,4.78.07,1.29.36,2.65,1.05,3.71,1.34,2.05,3.41,3.27,5.73,3.91,3.13.86,6.16,1.5,9.48,1.74Z"/>
        <path class="cls-1" d="M35.63,65.7c-1.33.22-2.52.02-3.81-.15l-18.1-2.48-5.38-.96c-.97-.17-1.49-.96-1.55-1.94-.23-3.92-.16-7.73.2-11.66l.84-9.12.44-6.16.1-7.57c.04-3.13.12-12.31,1.42-13.29,2.19-1.64,11.97-1.32,15.79-1.21l4.41.12,3.77.08c3.04.07,7.46.8,7.95,3.77.7,4.3.49,8.55.11,12.93l-.94,11.09-.51,5.31c-.6,6.23-1.1,12.37-2.21,18.51-.25,1.39-1.12,2.5-2.54,2.73ZM37.27,62.5c.92-5.83,1.49-11.46,2.04-17.26l.69-7.23.16-3.09.84-9.44c.27-3,.22-5.85-.11-8.83-.08-.72-.18-1.72-.64-2.26-.96-1.16-2.44-1.52-3.85-1.69l-2.8-.34c-1.39-.17-2.71-.06-4.12.01s-2.89-.15-4.34-.23c-4.39-.23-9.83-.1-14.13.71-.35.07-.72.6-.79.97-.45,2.51-.71,4.92-.74,7.48l-.16,10.71-.13,4.13-1.38,14.92c-.27,2.92-.11,5.68,0,8.6.03.76.15,1.34,1.01,1.49l5.83,1.01,19.78,2.66c1.54.21,2.61-.85,2.85-2.33Z"/>
        <path class="cls-1" d="M24.74,70.3c-.35,1.61-1.85,2.66-3.39,2.32-1.33-.29-2.38-1.21-2.51-2.42-.14-1.34.51-2.57,1.74-3.12.67-.3,1.26-.13,1.94,0,1.52.3,2.58,1.52,2.22,3.22ZM23.43,68.72c-.68-.55-2.15-.85-2.57-.63-.34.18-.7.64-.83.99-.41,1.08.04,2.06,1.11,2.4.52.17,1.14.21,1.65-.03.97-.48,1.26-2.23.65-2.72Z"/>
        <path class="cls-1" d="M29.23,6.47c.21.01.57.41.58.59,0,.22-.38.53-.65.54l-7.26-.45c-.16-.12-.38-.47-.38-.65,0-.22.48-.48.73-.47l6.98.43Z"/>
      </g>
    </g>
  </g>
</svg>