<?xml version="1.0" encoding="UTF-8"?>
<svg id="_레이어_2" data-name="레이어 2" xmlns="http://www.w3.org/2000/svg" viewBox="0 0 259 65.21">
  <defs>
    <style>
      .cls-1 {
        stroke-width: .5px;
      }

      .cls-1, .cls-2 {
        stroke: #000;
        stroke-miterlimit: 10;
      }

      .cls-2 {
        stroke-width: .75px;
      }
    </style>
  </defs>
  <g id="_레이어_1-2" data-name="레이어 1">
    <g>
      <g>
        <path class="cls-2" d="M89.12,52.17c-.85-2.8-1.81-6.6-2.38-10.88-2.85,0-5.23,1.19-6.98,1.71-.33.1-.62.1-1,.1-.43-.48-.38-.95.24-1.47.62-.62,2.99-1.42,4.8-1.76,4.85-.9,7.37-1.38,9.55-1.28.67,0,1.33.14,1.9.24.81.24,1.52,1.14.9,1.57-5.75-.43-6.27-.14-7.27.38-.14.1-.24.33-.19.9.24,2.9.95,6.51,1.71,8.93.33,1.24,1,.9.9,2.04-.48.09-.86.14-1.14.09-.43-.05-.76-.19-1.05-.57ZM81.52,31.83c-1.81-1.62-2.71-3.52-2.71-5.56,0-4.56,3.99-9.36,8.93-10.83.62-.19.86-.19.9-.05.14.24.14.67,0,.95,1.09.52,2.28.52,3.47,1.09,1.43.71,1.71,3.56,1.71,7.08,0,5.65-2.47,9.36-7.27,9.36-1.81,0-3.47-.67-5.04-2.04ZM90.93,30.69c1.24-1.47,1.47-3.42,1.47-5.7,0-1.52.33-3.18-.38-4.8-.67-1.47-4.51-2.9-6.37-2.19-1.33.52-4.56,4.51-4.56,5.56-.33.71-.48,1.52-.48,2.38,0,3.52,2.85,6.7,6.13,6.7,1.52,0,3.04-.57,4.18-1.95ZM105.33,46.85l-.86-4.37c-1.43-6.98-2.09-10.83-2.47-14.25-.14-1.47-.14-2.95-.19-4.28-.14-1,.67-2.57,1.14-2.61.29-.05.52.24.67.67.43,1.19.14,2.52.09,3.99-.14,2.95.29,6.27.86,8.65.19,1.76.57,3.61,1.05,5.46.81,2.95,1.09,4.89,1.24,6.37-.1,1.09-.48,1.9-.9,1.95-.29.05-.57-.62-.62-1.57Z"/>
        <path class="cls-2" d="M109.89,44.14c1.09-1.33,4.28-4.61,4.51-5.42-.33-.24-.48-.47-.43-.81.14-.62,1.24-.19,1.85-.76.86-.81,2.8-3.37,2.8-3.37-3.85,0-7.41.24-10.74,0-.14,0-.48.14-.76.14-.33,0-.57-.24-.76-.76,0-.33.52-.62,1.24-.71,1.09-.19,4.56-.43,5.46-.43,1.43,0,2.71-.14,3.9-.38,1.05,0,2.47,0,3.09.05,1.24.09,1.57,1.24.67,2.33l-3.52,4.28c3.33,1.62,6.03,3.09,7.37,4.18.62.62.9,1.19.85,1.62-.05.19-.14.33-.29.48l-9.03-5.13c-1.38.71-3.18,4.04-4.37,5.13-.71.57-1.85,1.04-2.47.62-.1-.14.1-.48.62-1.05ZM119.25,26.99c-1.81-.47-4.94-2.23-5.75-2.47-.71-.24-2-1.33-2.76-1.85-.24-.19-.33-.43-.29-.67.09-.52.95-.86,1.38-.71l2.23,1.57c1.57.9,4.32,1.85,5.75,2.52.67.76.86,1.43.43,1.66-.14.14-.48.09-1-.05ZM132.18,45.19c-.33-.57-.81-1.38-1.05-2-.86-3.14-1.19-6.27-1.14-9.98l-.76-4.04c-.24-1.38-.24-2.47.05-3.33.29-.29.48-.38.67-.43.19,0,.38.09.43.28.38.52.29,1.47.33,1.76l1.05,6.37c-.05,1.57.29,5.23.52,6.51.1.47.81,2.19,1.09,3.47.33,1.33.1,1.81-.62,1.9-.14,0-.38-.14-.57-.52Z"/>
        <path class="cls-2" d="M145.48,42.76c-.95-4.09-.33-10.12-.24-14.25.29-.38.57-.62.81-.62.57,0,.9.95.95,1.14,3.09-1.19,6.08-1.62,10.55-1.62,1,0,1.24.19,1.24,1.09,0,2.52.05,4.8.14,6.75l1.43-.14c.86.1,1.71.14,2.85.05l2.76-.24c-.38-1.76-.81-4.28-.95-5.8-.05-.43-.1-.86-.05-1.19.71-.9,1.28-.05,1.66,1.19.48,1.47.76,3.75,1.04,5.56.52,0,.95.19.95.43,0,.57-.24,1.14-.67,1.38l.14.48c0,.67,2.04,5.56,1.95,6.27-.05.47-.67.85-1.05.9-.43.05-.76-.19-.9-.95-.71-2.04-1.14-4.04-1.71-6.6-.95-.05-2.19-.19-3.75-.05-.76.09-1.9.19-2.38.14-.57.05-.9,0-1.24-.14.14,2.42.43,4.51.76,6.08,0,.43-.29.81-.76,1.05-2.33,1-8.08.62-11.4.43-1.43-.05-1.9-.38-2.14-1.33ZM151.95,42.48c3.14.38,4.61.33,6.08-.14l-1.19-13.26c-4.56,0-8.6.52-9.98,1.19-.43,3.71-.38,8.7.14,12.07,1.19-.19,2.47-.14,4.94.14ZM174.09,44.38c-.62-1.95-1.09-3.75-1.62-5.75-.86-3.14-1.66-8.22-2.19-12.54,0-.95.81-1.52,1.24-1.57.38-.05.52.52.76,1.62.38,2.95.85,5.42,1.52,8.65.67,3.28,1.57,6.46,1.62,9.6,0,.38-.14.62-.33.62-.29.05-.67-.09-1-.62Z"/>
        <path class="cls-2" d="M177.89,28.98c.1-2.52.52-5.89.52-8.12,0-1.57.48-3.75,1.09-4.99.52,0,.71.19.71.62,0,.38-.14.81-.14,1,0,3.37-.57,7.79-.57,11.07,4.42-1.14,9.41-.57,14.4-.57l-1.14-13.26c-4.66,1.09-10.36-.38-15.11,1.38-.29.09-.57.19-.85.33-.57,0-.57-.57,0-1.14,1.62-1.85,7.7-1.14,9.98-1.66,1,0,4.13-.52,6.03-.52,1.24,0,1.66.38,1.71,1.66l.52,14.35c-.57,1.14-9.41,0-11.12.57-1.62,0-3.28.67-4.85.71-.86.05-1.24-.47-1.19-1.42ZM177.37,53.69c-.09-.19-.14-.38-.14-.52,0-.43.43-.62,1.76-.62,1.09,0,7.79,1.71,8.84.57,0-2.9-.38-5.13-.38-7.51,0-2.04.09-3.52.29-4.51.14-.86.43-1.24.95-1.24.24,0,.38.24.38.67,0,.57-.14,1.24-.14,1.57,0,4.51,0,6.6.57,11.02l10.55-1.66c.14-.09.29-.14.48-.14.33,0,.62.29.62.71-.71,1.04-3.37,1.66-7.22,1.66-2.42.86-3.85,1.14-5.56,1.14-3.85.57-7.13-.57-10.98-1.14Z"/>
        <path class="cls-2" d="M202.98,42.76c-.95-4.09-.33-10.12-.24-14.25.29-.38.57-.62.81-.62.57,0,.9.95.95,1.14,3.09-1.19,6.08-1.62,10.55-1.62,1,0,1.24.19,1.24,1.09,0,2.52.05,4.8.14,6.75l1.43-.14c.86.1,1.71.14,2.85.05l2.76-.24c-.38-1.76-.81-4.28-.95-5.8-.05-.43-.1-.86-.05-1.19.71-.9,1.28-.05,1.66,1.19.48,1.47.76,3.75,1.05,5.56.52,0,.95.19.95.43,0,.57-.24,1.14-.67,1.38l.14.48c0,.67,2.04,5.56,1.95,6.27-.05.47-.67.85-1.05.9-.43.05-.76-.19-.9-.95-.71-2.04-1.14-4.04-1.71-6.6-.95-.05-2.19-.19-3.75-.05-.76.09-1.9.19-2.38.14-.57.05-.9,0-1.24-.14.14,2.42.43,4.51.76,6.08,0,.43-.29.81-.76,1.05-2.33,1-8.08.62-11.4.43-1.43-.05-1.9-.38-2.14-1.33ZM209.45,42.48c3.14.38,4.61.33,6.08-.14l-1.19-13.26c-4.56,0-8.6.52-9.98,1.19-.43,3.71-.38,8.7.14,12.07,1.19-.19,2.47-.14,4.94.14ZM231.59,44.38c-.62-1.95-1.09-3.75-1.62-5.75-.86-3.14-1.66-8.22-2.19-12.54,0-.95.81-1.52,1.24-1.57.38-.05.52.52.76,1.62.38,2.95.85,5.42,1.52,8.65.67,3.28,1.57,6.46,1.62,9.6,0,.38-.14.62-.33.62-.29.05-.67-.09-1-.62Z"/>
        <path class="cls-2" d="M235.39,28.98c.1-2.52.52-5.89.52-8.12,0-1.57.48-3.75,1.09-4.99.52,0,.71.19.71.62,0,.38-.14.81-.14,1,0,3.37-.57,7.79-.57,11.07,4.42-1.14,9.41-.57,14.4-.57l-1.14-13.26c-4.66,1.09-10.36-.38-15.11,1.38-.29.09-.57.19-.85.33-.57,0-.57-.57,0-1.14,1.62-1.85,7.7-1.14,9.98-1.66,1,0,4.13-.52,6.03-.52,1.24,0,1.66.38,1.71,1.66l.52,14.35c-.57,1.14-9.41,0-11.12.57-1.62,0-3.28.67-4.85.71-.86.05-1.24-.47-1.19-1.42ZM234.87,53.69c-.09-.19-.14-.38-.14-.52,0-.43.43-.62,1.76-.62,1.09,0,7.79,1.71,8.84.57,0-2.9-.38-5.13-.38-7.51,0-2.04.09-3.52.29-4.51.14-.86.43-1.24.95-1.24.24,0,.38.24.38.67,0,.57-.14,1.24-.14,1.57,0,4.51,0,6.6.57,11.02l10.55-1.66c.14-.09.29-.14.48-.14.33,0,.62.29.62.71-.71,1.04-3.37,1.66-7.22,1.66-2.42.86-3.85,1.14-5.56,1.14-3.85.57-7.13-.57-10.98-1.14Z"/>
      </g>
      <g>
        <path class="cls-1" d="M.29,59.19c-.19-1.25.35-2.5,1.09-3.48l2.31-3.05,3.93-5.03.71-.97,8.15-10.4c1.85-2.36,3.82-4.36,5.56-6.82l4.01-5.69,4.81-5.64,6.81-7.7c.44-.5.61-.88,1.22-1.28l4.44-2.93,5.71-2.79,6.83-3.17.8.15c.22.04.31.69.2.91l-7.9,16.39c-.31.65-.53,1.23-.97,1.79l-8.32,10.78c-3.03,3.93-6.07,7.61-9.38,11.3l-4.48,5.6-6.51,7.26-.82.96-.78.86-4.54,5.14c-.91,1.03-1.94,2.08-3.05,2.76-2.36,1.45-4.89.83-6.87-.8-1.36-1.13-2.68-2.21-2.98-4.15ZM46.19,15.48l1.64-.69c.43-.18.83-.18,1.3.13l3.22-6.76-1.68-1.33-1.21-.94-1.37-.96-2.04.96c-1.56.73-2.99,1.56-4.34,2.65.6.16.88.55.82,1.06l-.37,3.07,2.5-1.09c.33-.14,1.21-.1,1.24.29l.3,3.61ZM26.62,44.64l3.87-4.84c3.11-3.4,5.87-6.88,8.71-10.53l8.2-10.54.37-2.86-1.6.71c-.35.16-.96-.09-.98-.48l-.25-3.59-2.66,1.22c-.28.13-.79.12-1.05-.1-.21-.18-.17-.7-.13-1.05l.3-2.63-2.47.69-4.26,4.56-6.16,7.2-3.01,3.76c-2,3-4.07,5.85-6.33,8.65-1.01.92-1.84,1.83-2.68,2.91l-7.4,9.64,8.59,7.34,4.63-5.16,4.32-4.91ZM14.71,58.12l2.29-2.6-8.52-7.34-2.17,2.78,4.73,4.1,3.67,3.06ZM5.31,63.43c1.84,1,3.84.55,5.2-.83l1.81-1.82-8.33-6.84-2.11,2.85c-1.83,2.48.66,5.15,3.43,6.65Z"/>
        <path class="cls-1" d="M16.15,48.87c-.18.22-.63.31-.78.21s-.3-.54-.17-.68l3.48-4.14,6.32-7.7,6.32-7.65,9.72-12.18c.17-.21.75-.11.83.09.11.26,0,.62-.28.85l-13.65,16.91-4.29,5.2-7.49,9.09Z"/>
      </g>
    </g>
  </g>
</svg>