<?xml version="1.0" encoding="UTF-8"?>
<svg id="_레이어_2" data-name="레이어 2" xmlns="http://www.w3.org/2000/svg" viewBox="0 0 168.5 64.41">
  <defs>
    <style>
      .cls-1 {
        stroke: #000;
        stroke-miterlimit: 10;
        stroke-width: .75px;
      }

      .cls-2 {
        fill: #fff;
      }

      .cls-3 {
        fill: #ff1d25;
      }
    </style>
  </defs>
  <g id="_레이어_1-2" data-name="레이어 1">
    <g>
      <g>
        <path class="cls-1" d="M101.64,23.5c-1.62-1.05-3.61-2-5.37-2.95-.95,1.66-1.43,3.8-2.14,6.03-.33,1.14-1.95,1.38-1.76.62,1.24-4.61,3.71-10.98,3.75-14.49-2.57-.19-4.85-.14-7.56.24-1.14,0-1.9-.67-1.95-1.19-.05-.29.19-.52.67-.43,4.18-.57,7.41-.57,9.74-.19.57,0,.86.29.95,1.14.19,2.14-1.38,4.42-1.66,7.13,0,0,.48-.52.95-.52.43.14.81.33,1.24.62,1.38.81,3.04,2.19,4.37,2.95.9.67,5.23,3.04,5.99,3.66.67.24,1.43,1.57.9,1.57-3.18-.81-5.23-2.23-8.12-4.18ZM101.4,46.4c0-2.47.33-5.32,1.14-10.17-3.61,0-7.37-.62-10.45-.81-.81,0-1.14-.14-1.14-.62.09-.48.57-.9,1.14-.9,1.43,0,3.94.33,9.17.81,6.08,0,8.46.14,9.12.48.52.52.62.76.62,1.47-2,.43-3.99.19-7.13-.43-.62.62-.62,9.55-.62,10.74,0,3.09-1.24,1.85-1.85-.57Z"/>
        <path class="cls-1" d="M114.09,36.33c1.09-1.33,4.28-4.61,4.51-5.42-.33-.24-.48-.48-.43-.81.14-.62,1.24-.19,1.85-.76.85-.81,2.8-3.37,2.8-3.37-3.85,0-7.41.24-10.74,0-.14,0-.48.14-.76.14-.33,0-.57-.24-.76-.76,0-.33.52-.62,1.24-.71,1.09-.19,4.56-.43,5.46-.43,1.43,0,2.71-.14,3.9-.38,1.05,0,2.47,0,3.09.05,1.24.09,1.57,1.24.67,2.33l-3.52,4.28c3.33,1.62,6.03,3.09,7.36,4.18.62.62.9,1.19.86,1.62-.05.19-.14.33-.29.48l-9.03-5.13c-1.38.71-3.18,4.04-4.37,5.13-.71.57-1.85,1.04-2.47.62-.09-.14.09-.48.62-1.05ZM123.45,19.17c-1.81-.48-4.94-2.23-5.75-2.47-.71-.24-2-1.33-2.76-1.85-.24-.19-.33-.43-.29-.67.1-.52.95-.86,1.38-.71l2.23,1.57c1.57.9,4.32,1.85,5.75,2.52.67.76.85,1.43.43,1.66-.14.14-.48.1-1-.05ZM133.43,38.7c-.24-.81-.57-1.95-.67-2.76-.29-4.09-.14-6.51.57-11.55l-.05-3.47c0-1.85.24-3.18.71-4.42.38-.33.62-.43.76-.43.24,0,.33.14.38.43.24.81.05,2.04,0,2.38l-.09,6.7,9.08.62c.62,0,1.57.76,1.57,1.33,0,.67-.48.48-1,.48-1.24,0-3.04-.48-4.8-.62-1.19,0-3.52.14-5.13.05-.29,1.33-.29,3.14-.29,4.85,0,.67.38,2.99.43,4.75.05,1.76-.19,2.42-.95,2.42-.19,0-.38-.24-.52-.76Z"/>
        <path class="cls-1" d="M148.26,19.6c0-1.66,1.52-3.18,3.94-6.6,2.14-2.95,2.95-4.37,3.23-5.84-2.33.05-4.61.29-6.84.81-.48.14-.95.19-1.43.29-1-.24-1.43-.62-1.52-1.28,0-.38.52-.71,1.28-.71.33,0,1-.1,2.33-.24,2.61-.24,5.27-.43,6.46-.43s1.62.86,1.62,1.81c0,1.09-1.19,2.28-.95,3.28.1.43,1,.86,1.47,1.47,1.42,1.76,2.57,3.04,5.23,5.37.29.24.14.52-.24.52-.71,0-1.19-.19-2.23-.95-1.52-1.28-3.71-3.71-5.56-4.94-2.04,2.8-4.66,4.99-5.23,6.94-.33.52-.67.76-1,.76-.19,0-.33-.05-.57-.24ZM153.16,42.36c0-3.66,1.47-6.37,4.23-7.6.71-.33,1.43-1.04,2.14-1.19-.29-.19-.48-.62-.48-1.09,0-1.71.05-3.28-.19-4.94-1.52.24-3.14.48-5.13.48-2.71,0-2.47-1.62-.33-1.62h3.42c3.9-.57,6.46-1.71,10.17,0-.24,1.62-1.76.57-2.33.57-1.81,0-3.28.19-4.61.38l.19.43c.28.71.47,3.66.33,5.56.95-.19,1.95-.33,2.8-.33,2.61,0,4.75,2.42,4.75,5.37,0,5.61-4.42,10.26-9.6,10.26-3.37,0-5.37-2.33-5.37-6.27ZM166.03,41.12c.14-.67.19-1.38.19-2.19,0-2.42-1.66-4.47-3.66-4.47-4.23,0-7.75,3.18-7.75,7.27,0,.48.05,1,.14,1.47.43,2.61,1.71,3.71,4.04,3.71,3.14,0,6.46-2.76,7.03-5.8Z"/>
      </g>
      <g>
        <path class="cls-2" d="M64.95,5.48c-.63-1.38-1.41-2.65-2.9-3.19-1.58-.58-3.18-1.09-4.88-1.08l-5.85.02c-2.26,0-4.43-.05-6.67-.41-2.99-.48-5.83-.6-8.86-.4-2.79.18-5.48.28-8.25.09L20.42.01H6.64C4.97,0,3.39.98,2.2,2.01c-.85.74-1.1,1.8-1.44,2.8C.28,6.28.05,7.69.1,9.24l.13,4.5c.07,2.51.06,4.91.28,7.41.23,2.66.22,5.21-.03,7.85C.28,30.94,0,32.8,0,34.77l.02,13.19.04,7.4c0,1.32.22,2.48.75,3.66.39.86.78,1.8,1.54,2.36,1.45,1.06,3.15,1.1,4.87,1.29,3.08.34,6.02.7,9.13.57,2.3-.09,4.39-.3,6.66-.12l.39-.02c3.21-.29,6.14.19,9.38.48,1.2.11,2.44-.26,3.64-.14h0l10.97.92c4.26.23,8.36-.3,12.5-1.07,1.21-.23,1.92-.67,2.73-1.54,1.6-1.72,2.65-3.66,2.65-6.1v-6.66s.53-6.09.53-6.09l.06-10.15.28-5.81.02-9.42.06-7.23c.02-1.75-.56-3.23-1.28-4.79Z"/>
        <path d="M64.95,5.48c-.63-1.38-1.41-2.65-2.9-3.19-1.58-.58-3.18-1.09-4.88-1.08l-5.85.02c-2.26,0-4.43-.05-6.67-.41-2.99-.48-5.83-.6-8.86-.4-2.79.18-5.48.28-8.25.09L20.42.01H6.64C4.97,0,3.39.98,2.2,2.01c-.85.74-1.1,1.8-1.44,2.8C.28,6.28.05,7.69.1,9.24l.13,4.5c.07,2.51.06,4.91.28,7.41.23,2.66.22,5.21-.03,7.85C.28,30.94,0,32.8,0,34.77l.02,13.19.04,7.4c0,1.32.22,2.48.75,3.66.39.86.78,1.8,1.54,2.36,1.45,1.06,3.15,1.1,4.87,1.29,3.08.34,6.02.7,9.13.57,2-.08,3.93-.05,5.9.08,4.31,0,8.61.15,12.91.4h.02s0,0,0,0c.4.02.81.05,1.21.07h0s11,.57,11,.57c4.26.23,8.36-.3,12.5-1.07,1.21-.23,1.92-.67,2.73-1.54,1.6-1.72,2.65-3.66,2.65-6.1v-6.66s.53-6.09.53-6.09l.06-10.15.28-5.81.02-9.42.06-7.23c.02-1.75-.56-3.23-1.28-4.79ZM65.01,16.49l-.03,9.86-.27,5.81-.06,10.44-.56,6.09.02,5.08c0,1.43,0,2.87-.44,4.22-.38,1.17-1.21,2.03-1.98,2.95-.32.38-.69.83-1.31.97-4.81,1.1-9.58,1.5-14.45,1.21l-9.25-.53-4.5-.03c-2.88-.02-5.67-.31-8.55-.37l-7.11-.14c-2.56-.05-5.01-.13-7.54-.41l-3.45-.38c-.94-.1-1.98-.43-2.67-1.08-.42-.39-.61-1.1-.86-1.61-.48-.97-.78-1.96-.73-3.06.14-2.7-.05-5.27-.06-7.98v-12.47c0-1.95.27-3.8.46-5.72.27-2.76.32-5.42.06-8.21-.23-2.41-.21-4.7-.27-7.11l-.13-4.64c-.04-1.58.25-3,.68-4.48.38-1.3,1-2.26,2.25-2.87.84-.41,1.71-.87,2.71-.87l13.13.03,5.12.35c2.98.2,5.85.27,8.85.14,2.35-.1,4.63-.37,6.96-.09l6.32.75c3.72.44,7.79-.56,12.44.47l1.9.67c1.19.42,1.62,1.4,2.1,2.44.59,1.27,1.08,2.46,1.21,3.89.2,2.25.02,4.4.02,6.67Z"/>
        <path class="cls-2" d="M60.37,61.91c-4.81,1.1-9.58,1.5-14.45,1.21l-9.25-.53-4.5-.03c-2.88-.02-5.67-.31-8.55-.37l-7.11-.14c-2.56-.05-5.01-.13-7.54-.41l-3.45-.38c-.94-.1-1.98-.43-2.67-1.08-.42-.39-.61-1.1-.86-1.61-.48-.97-.78-1.96-.73-3.06.14-2.7-.05-5.27-.06-7.98v-12.47c0-1.95.27-3.8.46-5.72.27-2.76.32-5.42.06-8.21-.23-2.41-.21-4.7-.27-7.11l-.13-4.64c-.04-1.58.25-3,.68-4.48.38-1.3,1-2.26,2.25-2.87.84-.41,1.71-.87,2.71-.87l13.13.03,5.12.35c2.98.2,5.85.27,8.85.14,2.35-.1,4.63-.37,6.96-.09l6.32.75c3.72.44,7.79-.56,12.44.47l1.9.67c1.19.42,1.62,1.4,2.1,2.44.59,1.27,1.08,2.46,1.21,3.89.2,2.25.02,4.4.02,6.67l-.03,9.86-.27,5.81-.06,10.44-.56,6.09.02,5.08c0,1.43,0,2.87-.44,4.22-.38,1.17-1.21,2.03-1.98,2.95-.32.38-.69.83-1.31.97ZM26.59,52.83c.3-2.47.41-4.83.4-7.33l-.04-5.73c4.76.18,10.52-.9,14.84-2.9,1.93-.9,3.36-2.28,4.23-4.23,1.72-3.86,1.41-8.72-.6-12.42l-2.18-3.47c-.8-1.27-2.02-2.07-3.38-2.74-4.16-2.04-8.69-2.88-13.34-2.7-2.21.08-4.23.4-6.39.81-.36.07-.92.4-.96.77l-.39,3.44c-.31,2.74-.29,5.37-.09,8.14.23,3.3.42,6.5.34,9.79l-.21,8.04-.36,4.77c-.16,2.09.02,4.05.51,6.12,1.72,1,4.65.84,6.75.48.4-.07.75-.48.88-.85Z"/>
        <path d="M26.59,52.83c-.13.37-.48.78-.88.85-2.1.36-5.03.52-6.75-.48-.49-2.06-.67-4.02-.51-6.12l.36-4.77.21-8.04c.09-3.3-.1-6.49-.34-9.79-.2-2.78-.22-5.4.09-8.14l.39-3.44c.04-.37.6-.7.96-.77,2.17-.41,4.18-.73,6.39-.81,4.65-.18,9.18.66,13.34,2.7,1.36.66,2.58,1.46,3.38,2.74l2.18,3.47c2.01,3.7,2.32,8.56.6,12.42-.87,1.95-2.29,3.34-4.23,4.23-4.32,2-10.08,3.09-14.84,2.9l.04,5.73c.02,2.5-.09,4.86-.4,7.33ZM25.76,39.01c0-.22.55-.54.73-.48,2.24.15,4.29.02,6.47-.35,3.39-.6,9.17-1.86,11.03-4.51,2.61-3.71,2.52-8.82.43-12.75l-2.18-3.49c-.75-1.19-1.92-1.88-3.21-2.48-5.9-2.78-12.36-3.01-18.75-1.66l-.31,3.05c-.19,1.89-.37,3.75-.25,5.65l.44,6.96c.2,3.18.02,6.24-.16,9.42-.1,1.82.12,3.56-.09,5.36-.34,2.92-.56,5.78.1,8.69,1.77.48,3.55.38,5.41.07.32-2.43.39-4.8.4-7.29l.02-3.68-.09-2.52Z"/>
        <path class="cls-3" d="M25.76,39.01l.09,2.52-.02,3.68c-.01,2.48-.08,4.86-.4,7.29-1.85.31-3.64.42-5.41-.07-.66-2.91-.44-5.77-.1-8.69.21-1.79-.01-3.54.09-5.36.18-3.18.36-6.24.16-9.42l-.44-6.96c-.12-1.9.06-3.76.25-5.65l.31-3.05c6.39-1.35,12.85-1.12,18.75,1.66,1.28.61,2.46,1.29,3.21,2.48l2.18,3.49c2.09,3.93,2.18,9.04-.43,12.75-1.86,2.65-7.64,3.91-11.03,4.51-2.18.37-4.24.5-6.47.35-.18-.06-.74.25-.73.48ZM36.06,31.95c2.63-.88,4.05-3.09,4.1-5.74.04-2.13-.82-4.04-2.66-5.2-3.22-2.03-6.95-2.11-10.69-1.79-.63.05-.9.44-.93,1.05l-.35,7.39.25,4.65c.02.45.46.59.88.63,3.18.25,6.34.04,9.4-.98Z"/>
        <path d="M36.06,31.95c-3.06,1.02-6.22,1.23-9.4.98-.42-.03-.86-.18-.88-.63l-.25-4.65.35-7.39c.03-.61.3-1,.93-1.05,3.74-.32,7.47-.24,10.69,1.79,1.84,1.16,2.7,3.07,2.66,5.2-.05,2.65-1.46,4.86-4.1,5.74ZM36.72,30.31c2.66-1.67,3.04-5.42.95-7.71-2.82-2.32-7.16-2.7-10.63-2.16l-.34,7.07c-.07,1.41.17,2.77.2,4.2,2.82.35,7.7-.07,9.82-1.4Z"/>
        <path class="cls-2" d="M36.72,30.31c-2.12,1.33-6.99,1.75-9.82,1.4-.03-1.42-.27-2.79-.2-4.2l.34-7.07c3.47-.54,7.81-.16,10.63,2.16,2.09,2.28,1.71,6.03-.95,7.71Z"/>
      </g>
    </g>
  </g>
</svg>