<?xml version="1.0" encoding="UTF-8"?>
<svg id="_레이어_2" data-name="레이어 2" xmlns="http://www.w3.org/2000/svg" viewBox="0 0 271.78 64.41">
  <defs>
    <style>
      .cls-1 {
        stroke: #000;
        stroke-miterlimit: 10;
        stroke-width: .75px;
      }

      .cls-2 {
        fill: #fff;
      }

      .cls-3 {
        fill: #56d862;
      }
    </style>
  </defs>
  <g id="_레이어_1-2" data-name="레이어 1">
    <g>
      <g>
        <path class="cls-1" d="M94.57,36.04c0-.62.33-1.24.33-1.85,0-4.04.48-9.65,1.09-12.64-2-.52-7.55.71-9.6.9-.24,0-.48-.05-.71-.09-.62-.33-.95-.57-.95-.9,0-.48.57-.81,1.57-.81,2.71-.71,8.17-1.28,9.98-1.09,1.28.19,1.9,1.05,1.57,2.28-.9,3.75-1.38,9.74-1.24,15.3,0,.57-.19.9-.57.9-.71,0-1.47-1.09-1.47-2ZM108.5,38.32c-.33-.57-.81-1.38-1.04-2-.86-3.14-1.19-6.27-1.14-9.98l-.76-4.04c-.24-1.38-.24-2.47.05-3.33.29-.29.48-.38.67-.43.19,0,.38.09.43.29.38.52.28,1.47.33,1.76l1.05,6.37c-.05,1.57.28,5.23.52,6.51.1.48.81,2.19,1.09,3.47.33,1.33.1,1.81-.62,1.9-.14,0-.38-.14-.57-.52Z"/>
        <path class="cls-1" d="M115.44,18.65c-.19-.62-1-4.99-1-8.7,0-1.85.38-2.66,1.43-2.9,1.66-.38,3.75-.81,6.03-1.19.81-.62,2.66-1.43,3.71-1.43.95,0,1.28.33,1.09,1.28,0,.29-.43.57-1.05.81-2.33.81-7.65.95-9.03,2.19v8.6c4.8-.71,8.65-1.43,11.4-1.43.33,0,.86-.19,1.28-.19.48,0,.86.76.38,1.19-1.85,1.43-5.27.57-7.56,1.09-1.66,0-3.33,1.33-4.99,1.33-.52,0-1.57-.05-1.71-.67ZM120.28,42.36c0-3.66,1.47-6.37,4.23-7.6.71-.33,1.43-1.04,2.14-1.19-.29-.19-.48-.62-.48-1.09,0-1.71.05-3.28-.19-4.94-1.52.24-3.14.48-5.13.48-2.71,0-2.47-1.62-.33-1.62h3.42c3.9-.57,6.46-1.71,10.17,0-.24,1.62-1.76.57-2.33.57-1.81,0-3.28.19-4.61.38l.19.43c.28.71.48,3.66.33,5.56.95-.19,1.95-.33,2.8-.33,2.61,0,4.75,2.42,4.75,5.37,0,5.61-4.42,10.26-9.6,10.26-3.37,0-5.37-2.33-5.37-6.27ZM133.16,41.12c.14-.67.19-1.38.19-2.19,0-2.42-1.66-4.47-3.66-4.47-4.23,0-7.75,3.18-7.75,7.27,0,.48.05,1,.14,1.47.43,2.61,1.71,3.71,4.04,3.71,3.14,0,6.46-2.76,7.03-5.8Z"/>
        <path class="cls-1" d="M149.27,18.32c.48-.09.95.19.85.57l-1.43,5.84c.05.29,1.62.81,3.99,1.85,1.9.9,3.99,1.9,5.13,3.14.33.43.62,1.09.62,1.57.05.62.24.85,0,1.43-.48-.05-.71-.67-1.14-1.57-1.28-1.09-3.14-2.23-4.56-2.85-1.9-.76-3.28-1-4.37-1-.38,0-.67.05-.81.14-.62.86-.48,2.09-.81,3.33-.48,1.76-.81,2.61-1.24,3.33-.62.67-.62,1.28-1.71,1.28l4.51-15.82c.19-.57.52-1.09.95-1.24ZM165.38,38.7c-.24-.81-.57-1.95-.67-2.76-.29-4.09-.14-6.51.57-11.55l-.05-3.47c0-1.85.24-3.18.71-4.42.38-.33.62-.43.76-.43.24,0,.33.14.38.43.24.81.05,2.04,0,2.38l-.1,6.7,9.08.62c.62,0,1.57.76,1.57,1.33,0,.67-.48.48-1,.48-1.24,0-3.04-.48-4.8-.62-1.19,0-3.52.14-5.13.05-.28,1.33-.28,3.14-.28,4.85,0,.67.38,2.99.43,4.75.05,1.76-.19,2.42-.95,2.42-.19,0-.38-.24-.52-.76Z"/>
        <path class="cls-1" d="M182.3,29.53c0-2.23.76-4.32,2.8-8.65,1.9-3.75,2.61-5.65,2.85-7.56-1.81,0-3.66.29-7.41,1.05l-1.43.29c-1-.29-1.43-.67-1.52-1.33,0-.38.57-.67,1.38-.67l2.85-.24c3.28-.38,4.99-.57,6.03-.57,1.24,0,1.62.29,1.62,1.24,0,1.52-.81,3.94-.48,4.94.19.67.76,1.28,1.38,2.09,1.05,1.43,2.19,4.85,3.61,7.46.24.43.1.67-.43.67-.62,0-1.14-.52-1.71-1.71-.9-2.04-3.18-5.75-4.18-6.98-1.71,3.52-3.56,6.79-3.99,9.27-.29.67-.71,1.09-1.09,1.09-.24,0-.28-.09-.28-.38ZM192.94,43.4c-.52-1.95-1.14-6.22-1.14-7.75,0-.9.14-1.28.48-1.28.48,0,.9.62,1.09,1.28.67,2.14,0,4.42.57,7.18,1.62-.43,3.42-.57,6.13-.57.76,0,3.8-.9,5.56-1.05.86-.1,1.33.05,1.09.52-.14.29-.43.62-.71.86-.95.71-2.76,1.19-4.8,1.33-2,.09-4.66.43-6.89.71-1,.14-1.38-.28-1.38-1.24ZM200.88,32c-.1-1.76-.19-3.09-.38-4.51-.62-5.13-.9-8.32-.9-10.74,0-1.57.14-2.99.24-4.28,0-.95.95-2.52,1.57-2.52.29,0,.48.29.62.86.24,1.14-.14,2.47-.33,3.85-.33,2.14-.19,7.03.29,11.5.29,2.52.57,4.09.57,5.65-.24,1-.71,1.76-1.14,1.76-.29,0-.52-.71-.52-1.57Z"/>
        <path class="cls-1" d="M219.13,27.96c0-3.52,3.18-8.98,3.37-11.64.05-.57-.05-1-.19-1.19-.76-.33-2.52.29-3.75.62-.9.33-1.57,1.38-2.47,1.38-.71,0-1.71-1.28-.57-1.66,1.95-.62,4.13-2.09,6.18-2.09,1.14,0,1.9.57,2.66,1,1.28,0,3.66-.52,5.04-.52,1.85,0,2.28,1,2.28,2.8,0,1.62-1.05,4.09-2.33,6.13,1.71.62,3.37,2.33,4.47,3.33.33.28.67.43,1,.57.67.1,1.43,1.33.67,1.33-2.14,0-3.75-1.9-5.61-3.23l-1.14-.43c-.24.57-1.71,3.56-2.95,4.75-.81.81-1.76.67-1.33-.09l2.57-4.7c-.95-.29-3.9-.9-4.66-1.52-1.24,1.04-1.9,3.52-1.9,5.18,0,.43-.29,1.14-.81,1.14-.33,0-.52-.29-.52-1.14ZM229.82,17.22c0-.76-.24-1.28-.85-1.81l-4.28.48c-.29,1.71-1,3.42-1.76,5.08,1.38.85,3.47,1.66,4.75,1.9,1.47-2.23,2.14-4.47,2.14-5.65ZM241.79,45.26c-.09-.9-.24-2.61-.52-3.99-.24-1.66-.43-2.8-.76-4.04-.33-.14-.71-.19-1.09-.19-1.33,0-2.61.38-4.8,1.43-1.62.76-2.52,1.09-3.23,1.09-.9,0-1.76-.33-1.76-.86,0-.14.05-.24.14-.38,1.95-1.24,7.75-2.8,10.45-2.8,1.28,0,1.76.24,2.09,1.19.52,1.33.85,5.51.85,9.93-.71,0-1.28-.57-1.38-1.38ZM238.56,25.78v-3.9c-.43-3.85-.57-7.37-1.24-10.69,0-.28.09-.48.33-.48s.62.19,1.05.48c1.14,4.56,1.85,11.36,1.85,16.01,0,.71.62,1.43,0,1.43-1.38.48-2-.38-2-2.85Z"/>
        <path class="cls-1" d="M256.15,36.04c0-.62.33-1.24.33-1.85,0-4.04.48-9.65,1.09-12.64-2-.52-7.55.71-9.6.9-.24,0-.48-.05-.71-.09-.62-.33-.95-.57-.95-.9,0-.48.57-.81,1.57-.81,2.71-.71,8.17-1.28,9.98-1.09,1.28.19,1.9,1.05,1.57,2.28-.9,3.75-1.38,9.74-1.24,15.3,0,.57-.19.9-.57.9-.71,0-1.47-1.09-1.47-2ZM270.07,38.32c-.33-.57-.81-1.38-1.04-2-.86-3.14-1.19-6.27-1.14-9.98l-.76-4.04c-.24-1.38-.24-2.47.05-3.33.29-.29.48-.38.67-.43.19,0,.38.09.43.29.38.52.28,1.47.33,1.76l1.05,6.37c-.05,1.57.28,5.23.52,6.51.1.48.81,2.19,1.09,3.47.33,1.33.1,1.81-.62,1.9-.14,0-.38-.14-.57-.52Z"/>
      </g>
      <g>
        <path class="cls-2" d="M64.95,5.48c-.63-1.38-1.41-2.65-2.9-3.19-1.58-.58-3.18-1.09-4.88-1.08l-5.85.02c-2.26,0-4.43-.05-6.67-.41-2.99-.48-5.83-.6-8.86-.4-2.79.18-5.48.28-8.25.09L20.42.01H6.64C4.97,0,3.39.98,2.2,2.01c-.85.74-1.1,1.8-1.44,2.8C.28,6.28.05,7.69.1,9.24l.13,4.5c.07,2.51.06,4.91.28,7.41.23,2.66.22,5.21-.03,7.85C.28,30.94,0,32.8,0,34.77l.02,13.19.04,7.4c0,1.32.22,2.48.75,3.66.39.86.78,1.8,1.54,2.36,1.45,1.06,3.15,1.1,4.87,1.29,3.08.34,6.02.7,9.13.57,2.3-.09,4.39-.3,6.66-.12l.39-.02c3.21-.29,6.14.19,9.38.48,1.2.11,2.44-.26,3.64-.14h0l10.97.92c4.26.23,8.36-.3,12.5-1.07,1.21-.23,1.92-.67,2.73-1.54,1.6-1.72,2.65-3.66,2.65-6.1v-6.66s.53-6.09.53-6.09l.06-10.15.28-5.81.02-9.42.06-7.23c.02-1.75-.56-3.23-1.28-4.79Z"/>
        <path d="M64.95,5.48c-.63-1.38-1.41-2.65-2.9-3.19-1.58-.58-3.18-1.09-4.88-1.08l-5.85.02c-2.26,0-4.43-.05-6.67-.41-2.99-.48-5.83-.6-8.86-.4-2.79.18-5.48.28-8.25.09L20.42.01H6.64C4.97,0,3.39.98,2.2,2.01c-.85.74-1.1,1.8-1.44,2.8C.28,6.28.05,7.69.1,9.24l.13,4.5c.07,2.51.06,4.91.28,7.41.23,2.66.22,5.21-.03,7.85C.28,30.94,0,32.8,0,34.77l.02,13.19.04,7.4c0,1.32.22,2.48.75,3.66.39.86.78,1.8,1.54,2.36,1.45,1.06,3.15,1.1,4.87,1.29,3.08.34,6.02.7,9.13.57,2-.08,3.93-.05,5.9.08,4.31,0,8.61.15,12.91.4h.02s0,0,0,0c.4.02.81.05,1.21.07h0s11,.57,11,.57c4.26.23,8.36-.3,12.5-1.07,1.21-.23,1.92-.67,2.73-1.54,1.6-1.72,2.65-3.66,2.65-6.1v-6.66s.53-6.09.53-6.09l.06-10.15.28-5.81.02-9.42.06-7.23c.02-1.75-.56-3.23-1.28-4.79ZM65.01,16.49l-.03,9.86-.27,5.81-.06,10.44-.56,6.09.02,5.08c0,1.43,0,2.87-.44,4.22-.38,1.17-1.21,2.03-1.98,2.95-.32.38-.69.83-1.31.97-4.81,1.1-9.58,1.5-14.45,1.21l-9.25-.53-4.5-.03c-2.88-.02-5.67-.31-8.55-.37l-7.11-.14c-2.56-.05-5.01-.13-7.54-.41l-3.45-.38c-.94-.1-1.98-.43-2.67-1.08-.42-.39-.61-1.1-.86-1.61-.48-.97-.78-1.96-.73-3.06.14-2.7-.05-5.27-.06-7.98v-12.47c0-1.95.27-3.8.46-5.72.27-2.76.32-5.42.06-8.21-.23-2.41-.21-4.7-.27-7.11l-.13-4.64c-.04-1.58.25-3,.68-4.48.38-1.3,1-2.26,2.25-2.87.84-.41,1.71-.87,2.71-.87l13.13.03,5.12.35c2.98.2,5.85.27,8.85.14,2.35-.1,4.63-.37,6.96-.09l6.32.75c3.72.44,7.79-.56,12.44.47l1.9.67c1.19.42,1.62,1.4,2.1,2.44.59,1.27,1.08,2.46,1.21,3.89.2,2.25.02,4.4.02,6.67Z"/>
        <path class="cls-2" d="M60.37,61.91c-4.81,1.1-9.58,1.5-14.45,1.21l-9.25-.53-4.5-.03c-2.88-.02-5.67-.31-8.55-.37l-7.11-.14c-2.56-.05-5.01-.13-7.54-.41l-3.45-.38c-.94-.1-1.98-.43-2.67-1.08-.42-.39-.61-1.1-.86-1.61-.48-.97-.78-1.96-.73-3.06.14-2.7-.05-5.27-.06-7.98v-12.47c0-1.95.27-3.8.46-5.72.27-2.76.32-5.42.06-8.21-.23-2.41-.21-4.7-.27-7.11l-.13-4.64c-.04-1.58.25-3,.68-4.48.38-1.3,1-2.26,2.25-2.87.84-.41,1.71-.87,2.71-.87l13.13.03,5.12.35c2.98.2,5.85.27,8.85.14,2.35-.1,4.63-.37,6.96-.09l6.32.75c3.72.44,7.79-.56,12.44.47l1.9.67c1.19.42,1.62,1.4,2.1,2.44.59,1.27,1.08,2.46,1.21,3.89.2,2.25.02,4.4.02,6.67l-.03,9.86-.27,5.81-.06,10.44-.56,6.09.02,5.08c0,1.43,0,2.87-.44,4.22-.38,1.17-1.21,2.03-1.98,2.95-.32.38-.69.83-1.31.97ZM26.59,52.83c.3-2.47.41-4.83.4-7.33l-.04-5.73c4.76.18,10.52-.9,14.84-2.9,1.93-.9,3.36-2.28,4.23-4.23,1.72-3.86,1.41-8.72-.6-12.42l-2.18-3.47c-.8-1.27-2.02-2.07-3.38-2.74-4.16-2.04-8.69-2.88-13.34-2.7-2.21.08-4.23.4-6.39.81-.36.07-.92.4-.96.77l-.39,3.44c-.31,2.74-.29,5.37-.09,8.14.23,3.3.42,6.5.34,9.79l-.21,8.04-.36,4.77c-.16,2.09.02,4.05.51,6.12,1.72,1,4.65.84,6.75.48.4-.07.75-.48.88-.85Z"/>
        <path d="M26.59,52.83c-.13.37-.48.78-.88.85-2.1.36-5.03.52-6.75-.48-.49-2.06-.67-4.02-.51-6.12l.36-4.77.21-8.04c.09-3.3-.1-6.49-.34-9.79-.2-2.78-.22-5.4.09-8.14l.39-3.44c.04-.37.6-.7.96-.77,2.17-.41,4.18-.73,6.39-.81,4.65-.18,9.18.66,13.34,2.7,1.36.66,2.58,1.46,3.38,2.74l2.18,3.47c2.01,3.7,2.32,8.56.6,12.42-.87,1.95-2.29,3.34-4.23,4.23-4.32,2-10.08,3.09-14.84,2.9l.04,5.73c.02,2.5-.09,4.86-.4,7.33ZM25.76,39.01c0-.22.55-.54.73-.48,2.24.15,4.29.02,6.47-.35,3.39-.6,9.17-1.86,11.03-4.51,2.61-3.71,2.52-8.82.43-12.75l-2.18-3.49c-.75-1.19-1.92-1.88-3.21-2.48-5.9-2.78-12.36-3.01-18.75-1.66l-.31,3.05c-.19,1.89-.37,3.75-.25,5.65l.44,6.96c.2,3.18.02,6.24-.16,9.42-.1,1.82.12,3.56-.09,5.36-.34,2.92-.56,5.78.1,8.69,1.77.48,3.55.38,5.41.07.32-2.43.39-4.8.4-7.29l.02-3.68-.09-2.52Z"/>
        <path class="cls-3" d="M25.76,39.01l.09,2.52-.02,3.68c-.01,2.48-.08,4.86-.4,7.29-1.85.31-3.64.42-5.41-.07-.66-2.91-.44-5.77-.1-8.69.21-1.79-.01-3.54.09-5.36.18-3.18.36-6.24.16-9.42l-.44-6.96c-.12-1.9.06-3.76.25-5.65l.31-3.05c6.39-1.35,12.85-1.12,18.75,1.66,1.28.61,2.46,1.29,3.21,2.48l2.18,3.49c2.09,3.93,2.18,9.04-.43,12.75-1.86,2.65-7.64,3.91-11.03,4.51-2.18.37-4.24.5-6.47.35-.18-.06-.74.25-.73.48ZM36.06,31.95c2.63-.88,4.05-3.09,4.1-5.74.04-2.13-.82-4.04-2.66-5.2-3.22-2.03-6.95-2.11-10.69-1.79-.63.05-.9.44-.93,1.05l-.35,7.39.25,4.65c.02.45.46.59.88.63,3.18.25,6.34.04,9.4-.98Z"/>
        <path d="M36.06,31.95c-3.06,1.02-6.22,1.23-9.4.98-.42-.03-.86-.18-.88-.63l-.25-4.65.35-7.39c.03-.61.3-1,.93-1.05,3.74-.32,7.47-.24,10.69,1.79,1.84,1.16,2.7,3.07,2.66,5.2-.05,2.65-1.46,4.86-4.1,5.74ZM36.72,30.31c2.66-1.67,3.04-5.42.95-7.71-2.82-2.32-7.16-2.7-10.63-2.16l-.34,7.07c-.07,1.41.17,2.77.2,4.2,2.82.35,7.7-.07,9.82-1.4Z"/>
        <path class="cls-2" d="M36.72,30.31c-2.12,1.33-6.99,1.75-9.82,1.4-.03-1.42-.27-2.79-.2-4.2l.34-7.07c3.47-.54,7.81-.16,10.63,2.16,2.09,2.28,1.71,6.03-.95,7.71Z"/>
      </g>
    </g>
  </g>
</svg>